<?xml version="1.0" standalone="no"?>
<!DOCTYPE svg PUBLIC "-//W3C//DTD SVG 20010904//EN"
 "http://www.w3.org/TR/2001/REC-SVG-20010904/DTD/svg10.dtd">
<svg version="1.0" xmlns="http://www.w3.org/2000/svg"
 width="960.000000pt" height="952.000000pt" viewBox="0 0 960.000000 952.000000"
 preserveAspectRatio="xMidYMid meet">

<g transform="translate(0.000000,952.000000) scale(0.100000,-0.100000)"
fill="#000000" stroke="none">
<path d="M4410 9510 c-14 -5 -92 -16 -174 -25 -82 -9 -203 -26 -270 -39 -66
-13 -157 -30 -201 -36 -44 -7 -84 -16 -90 -20 -5 -4 -26 -11 -45 -15 -46 -9
-262 -72 -325 -95 -27 -10 -68 -24 -90 -30 -22 -7 -68 -25 -103 -41 -35 -16
-75 -32 -90 -36 -15 -3 -57 -21 -93 -38 -37 -18 -80 -35 -95 -39 -16 -4 -40
-14 -53 -23 -14 -9 -81 -44 -150 -79 -69 -34 -141 -74 -160 -88 -19 -14 -43
-26 -52 -26 -10 0 -19 -3 -21 -7 -5 -14 -138 -102 -178 -119 -14 -6 -67 -43
-119 -83 -52 -39 -97 -71 -100 -71 -3 0 -28 -20 -56 -45 -27 -25 -52 -45 -56
-45 -4 0 -14 -6 -21 -12 -7 -7 -40 -35 -73 -61 -84 -68 -195 -175 -195 -187 0
-5 -6 -10 -12 -10 -18 -1 -182 -166 -304 -305 -109 -126 -274 -325 -274 -331
0 -4 -17 -31 -37 -62 -21 -30 -43 -62 -48 -72 -18 -31 -69 -104 -91 -132 -12
-15 -25 -41 -29 -57 -3 -16 -15 -37 -26 -47 -10 -9 -19 -21 -19 -27 0 -5 -8
-21 -19 -35 -10 -15 -33 -54 -50 -87 -35 -65 -46 -86 -61 -112 -25 -45 -90
-182 -90 -189 0 -5 -13 -35 -29 -69 -63 -127 -191 -485 -191 -531 0 -8 -9 -33
-21 -55 -11 -23 -25 -69 -30 -103 -5 -33 -16 -79 -23 -101 -18 -51 -61 -292
-75 -415 -6 -52 -15 -135 -21 -183 -29 -236 -30 -803 -2 -957 5 -30 15 -100
22 -155 16 -138 38 -263 65 -375 13 -52 29 -126 36 -165 7 -38 17 -73 22 -76
5 -4 16 -35 24 -70 7 -35 28 -102 44 -149 17 -47 42 -116 55 -155 14 -38 31
-83 39 -100 7 -16 28 -64 45 -105 18 -41 47 -106 65 -145 18 -38 40 -86 49
-105 8 -19 38 -75 66 -125 28 -49 58 -106 68 -125 9 -19 23 -39 29 -43 7 -4
13 -14 13 -21 0 -7 15 -33 34 -58 19 -25 49 -72 66 -104 18 -32 44 -72 60 -89
15 -16 40 -50 55 -75 16 -25 48 -68 72 -96 23 -28 43 -54 43 -58 0 -30 423
-489 463 -502 9 -3 17 -11 17 -19 0 -7 11 -20 25 -29 13 -9 44 -35 69 -58 25
-24 51 -48 58 -53 7 -6 40 -34 74 -63 33 -28 66 -52 72 -52 6 0 15 -6 19 -14
13 -24 228 -178 328 -236 25 -14 55 -35 67 -47 13 -12 34 -27 48 -33 14 -5 48
-25 75 -42 79 -50 384 -208 402 -208 2 0 37 -15 76 -34 40 -18 92 -41 117 -51
25 -9 60 -23 78 -31 31 -13 184 -65 334 -113 266 -86 621 -153 968 -182 178
-15 739 -6 910 15 157 20 350 51 435 71 33 8 114 26 180 40 66 14 131 32 145
39 14 7 54 19 90 26 36 7 67 16 70 20 3 4 39 19 80 33 145 51 213 78 233 92
12 8 28 15 36 15 8 0 37 11 65 24 28 13 89 41 136 62 47 21 90 41 95 45 6 4
55 31 110 59 55 28 107 57 115 64 8 7 32 20 52 30 21 9 38 21 38 26 0 6 8 10
19 10 10 0 24 6 30 14 7 8 44 34 84 57 40 24 86 54 104 69 17 14 48 36 68 50
82 57 203 152 342 269 154 130 451 441 566 591 23 30 48 59 54 63 7 4 13 12
13 17 0 8 16 29 68 87 12 14 22 30 22 36 0 5 16 29 35 53 19 23 35 46 35 51 0
4 9 14 20 21 11 7 20 19 20 27 0 8 20 43 44 78 25 35 57 86 71 113 14 27 37
67 50 89 13 22 47 87 76 145 29 58 58 112 64 120 7 8 18 31 25 50 7 19 26 64
43 100 16 36 40 96 53 134 13 38 28 74 33 80 19 22 85 226 137 421 9 33 20 65
24 70 4 6 13 42 19 82 6 39 16 84 21 99 6 15 21 95 34 178 62 390 70 512 63
907 -5 288 -9 359 -32 514 -30 208 -78 467 -100 540 -9 28 -29 97 -46 155 -17
58 -37 125 -44 150 -22 70 -88 245 -135 355 -23 55 -43 104 -45 110 -1 5 -7
23 -13 38 -7 16 -12 32 -12 37 0 5 -6 15 -14 23 -15 14 -25 34 -83 150 -17 36
-59 110 -92 166 -34 56 -61 105 -61 109 0 4 -12 21 -26 37 -14 17 -35 46 -45
65 -26 47 -45 75 -101 153 -27 35 -48 68 -48 72 0 4 -29 40 -63 79 -35 39 -66
76 -68 82 -28 74 -575 620 -699 699 -20 13 -59 44 -88 70 -29 27 -81 66 -115
88 -34 22 -68 49 -75 59 -7 10 -19 18 -25 18 -7 0 -41 21 -77 45 -58 41 -108
71 -278 167 -26 14 -73 38 -104 53 -32 15 -63 34 -69 41 -6 8 -19 14 -28 14
-9 0 -28 8 -41 18 -14 9 -38 22 -55 28 -16 7 -91 38 -165 69 -143 61 -296 119
-370 140 -25 7 -79 23 -120 35 -41 12 -97 28 -125 34 -27 6 -54 14 -60 18 -33
21 -476 95 -720 120 -137 14 -751 20 -785 8z m585 -120 c323 -15 700 -74 980
-152 151 -42 429 -137 550 -188 127 -53 414 -194 525 -257 697 -398 1322
-1039 1714 -1758 394 -725 587 -1561 546 -2372 -47 -930 -348 -1773 -891
-2498 -218 -290 -393 -478 -676 -726 -626 -547 -1433 -921 -2253 -1043 -494
-74 -883 -74 -1391 -2 -699 100 -1416 399 -1996 832 -755 563 -1287 1292
-1600 2189 -173 498 -261 1121 -233 1658 32 609 165 1152 418 1705 172 375
411 742 703 1077 93 107 339 352 453 450 101 88 323 254 466 349 650 432 1468
699 2247 735 98 4 189 9 203 9 14 1 120 -3 235 -8z"/>
<path d="M4696 9113 c-36 -10 -94 -54 -120 -91 -32 -48 -50 -117 -71 -282 -23
-181 -22 -178 -82 -173 -37 4 -54 1 -65 -11 -9 -9 -23 -16 -32 -16 -8 0 -24
-13 -35 -29 -46 -64 -145 -87 -207 -46 -29 19 -48 84 -39 136 8 49 77 123 123
132 41 8 41 28 -2 51 -62 33 -84 133 -47 209 21 44 69 76 92 61 12 -7 11 -51
-1 -59 -14 -9 -13 -58 2 -73 18 -18 73 -14 91 6 21 23 22 81 1 110 -54 78
-183 64 -276 -29 -45 -45 -48 -51 -48 -99 0 -61 20 -103 60 -127 16 -9 30 -20
30 -23 0 -3 -20 -18 -45 -33 -24 -16 -59 -47 -77 -70 -30 -38 -33 -47 -33
-113 0 -67 2 -75 30 -104 37 -38 90 -53 180 -48 59 3 77 8 115 35 25 17 52 43
60 57 l14 26 12 -30 c25 -60 86 -64 148 -10 18 17 37 30 40 30 4 0 22 -11 39
-24 83 -62 152 -80 205 -52 30 16 103 89 120 121 11 19 11 19 12 -4 0 -14 17
-40 43 -66 53 -54 126 -73 211 -55 111 23 171 102 171 225 -1 62 -6 81 -48
172 -40 85 -48 111 -45 149 4 57 39 91 82 80 31 -8 33 -20 6 -53 -24 -31 -26
-76 -4 -93 27 -23 75 -16 101 14 27 31 29 65 8 106 -47 90 -228 82 -299 -13
-35 -47 -28 -133 19 -237 63 -137 49 -241 -37 -283 -46 -22 -97 -12 -140 29
-30 30 -38 78 -18 115 12 22 52 25 69 5 22 -26 52 -26 77 -1 27 28 31 57 9 79
-67 66 -205 -9 -205 -112 0 -19 -6 -32 -17 -36 -10 -4 -31 -14 -48 -23 -33
-19 -142 -23 -229 -9 l-48 8 20 21 c45 48 70 127 97 311 19 127 46 193 82 202
41 11 49 -10 19 -46 -28 -34 -32 -51 -16 -81 14 -26 80 -26 103 -1 28 30 22
96 -11 133 -23 26 -37 32 -78 35 -27 1 -58 0 -68 -3z"/>
<path d="M3671 8974 c-35 -45 -27 -72 42 -153 28 -32 29 -38 24 -96 -10 -106
-82 -291 -135 -347 -28 -30 -46 -35 -58 -16 -4 7 -10 105 -14 218 -6 186 -9
211 -29 253 -36 74 -105 85 -196 32 -52 -30 -118 -99 -144 -150 -43 -85 -36
-184 16 -225 56 -44 143 -10 143 57 0 32 -3 36 -50 56 -32 14 -53 29 -56 42
-11 43 42 131 100 166 88 54 106 6 79 -220 -23 -202 -23 -287 1 -323 23 -35
80 -54 118 -39 136 52 321 453 306 662 -6 81 -27 109 -83 109 -35 0 -47 -5
-64 -26z"/>
<path d="M6196 8741 c-83 -34 -126 -88 -126 -159 0 -82 97 -123 143 -61 19 27
19 27 -3 72 -27 54 -18 80 37 98 46 15 175 7 223 -14 l35 -15 -45 -1 c-43 -1
-49 -5 -130 -88 -47 -49 -133 -145 -192 -215 -138 -162 -141 -188 -23 -187 37
0 43 4 83 57 24 31 65 82 92 112 l48 55 27 -25 c30 -29 29 -44 -15 -135 -39
-82 -45 -110 -30 -146 15 -36 84 -79 127 -79 16 0 52 7 79 15 64 19 65 19 58
-9 -7 -29 16 -86 56 -136 57 -73 177 -110 255 -80 25 9 26 8 25 -17 -5 -67 1
-84 41 -128 45 -49 85 -65 164 -65 45 0 213 36 257 55 12 5 30 -5 63 -37 l46
-43 -66 -48 c-115 -85 -145 -145 -103 -207 32 -47 70 -64 146 -64 58 0 75 -7
52 -21 -5 -3 -14 -24 -20 -46 -18 -65 10 -136 79 -208 52 -54 59 -58 106 -59
121 -5 217 53 264 159 13 30 35 79 48 109 29 64 47 86 86 107 25 13 31 12 60
-4 18 -11 33 -28 35 -40 3 -17 -4 -21 -39 -26 -57 -8 -84 -36 -72 -73 20 -60
89 -69 140 -18 22 22 25 32 21 75 -6 59 -28 93 -86 132 -117 79 -219 34 -282
-123 -17 -43 -47 -96 -66 -118 -98 -115 -244 -78 -244 62 0 59 36 99 84 94 28
-3 32 -7 37 -46 6 -46 20 -62 56 -62 29 0 53 26 53 58 0 85 -132 133 -207 76
-27 -20 -33 -22 -33 -9 0 14 -7 16 -38 10 -53 -9 -92 8 -92 39 0 25 52 75 138
131 34 23 45 26 52 15 4 -7 15 -10 25 -6 14 5 15 9 5 20 -15 19 -2 27 163 106
70 34 127 67 126 73 0 16 -107 83 -159 102 -64 23 -173 19 -286 -10 l-98 -25
-31 30 c-28 27 -65 40 -65 23 0 -4 14 -21 31 -39 l30 -31 -108 -32 c-127 -37
-170 -39 -207 -10 -33 26 -33 44 2 66 39 24 52 43 52 74 0 53 -73 77 -121 41
-36 -27 -137 -29 -187 -3 -38 20 -72 69 -72 106 0 25 25 67 58 99 42 39 102
50 170 29 29 -9 54 -14 57 -12 2 3 -1 23 -6 46 -9 33 -8 47 5 74 32 66 97 119
145 119 28 0 71 -21 71 -35 0 -16 -21 -35 -40 -35 -23 0 -50 -32 -50 -58 0
-30 34 -62 66 -62 37 0 84 53 84 95 0 127 -235 211 -333 117 -26 -25 -49 -82
-42 -105 2 -7 6 -26 9 -44 5 -32 5 -32 -22 -22 -15 6 -56 11 -92 12 -80 0
-132 -22 -164 -69 -13 -19 -25 -31 -28 -28 -3 3 -25 0 -47 -6 -86 -23 -104 6
-66 106 25 66 29 115 12 154 -6 12 5 15 63 16 105 2 163 37 190 115 18 49 6
99 -33 139 -122 126 -382 203 -511 151z m406 -138 c54 -49 -15 -168 -112 -194
-49 -13 -120 -5 -120 12 0 15 186 199 201 199 7 0 21 -7 31 -17z m1149 -884
c17 -9 3 -18 -101 -70 -67 -32 -124 -59 -128 -59 -10 0 -72 60 -72 69 0 11
206 70 248 70 18 1 42 -4 53 -10z"/>
<path d="M2909 8712 c-15 -15 -45 -45 -68 -66 -66 -64 -101 -179 -101 -336 l0
-86 -35 -17 c-34 -16 -54 -42 -42 -54 4 -3 21 4 40 15 l34 20 6 -82 c6 -73 4
-120 -8 -182 -7 -33 -41 -66 -66 -62 -16 2 -25 14 -33 43 -8 26 -21 45 -39 55
-24 13 -30 13 -54 0 -36 -20 -51 -61 -36 -100 6 -17 7 -30 2 -30 -5 0 -9 -13
-9 -30 0 -39 -19 -78 -42 -86 -12 -4 -31 4 -54 23 -112 90 -116 93 -151 93
-30 0 -34 3 -28 18 45 110 47 203 4 248 -57 62 -111 68 -198 24 -160 -80 -318
-313 -298 -437 9 -50 53 -120 89 -139 84 -43 181 53 117 117 -18 18 -29 20
-65 15 -37 -5 -45 -2 -59 16 -31 45 -13 120 53 224 15 24 30 43 34 44 4 0 5
-19 2 -43 -7 -49 25 -129 153 -377 81 -156 97 -180 122 -180 17 0 61 68 61 95
0 8 -27 66 -60 128 -33 63 -60 121 -60 131 0 21 46 39 68 27 9 -5 47 -40 84
-78 63 -63 71 -68 111 -68 79 0 137 73 137 173 0 55 4 60 34 37 28 -21 90 -19
135 5 88 44 119 119 128 307 l6 123 44 25 c42 26 63 26 63 2 0 -23 69 -157 94
-182 47 -47 136 -21 178 51 25 44 36 124 16 124 -10 0 -17 -14 -21 -42 -6 -46
-37 -81 -63 -71 -17 6 -47 61 -80 149 -20 54 -21 64 -9 74 8 7 15 21 15 32 0
17 -2 18 -15 8 -9 -7 -18 -11 -21 -8 -4 5 -42 199 -59 301 -7 43 -20 46 -56 9z
m-28 -255 c11 -54 23 -105 25 -112 3 -7 -15 -25 -45 -44 l-51 -31 0 128 c0
110 3 133 22 172 l22 45 3 -30 c2 -16 13 -74 24 -128z m-762 -462 c32 -44 36
-56 35 -106 -1 -56 -26 -118 -50 -126 -12 -4 -86 151 -104 217 -16 60 -9 72
42 68 37 -3 46 -8 77 -53z"/>
<path d="M1587 7719 c-22 -13 -47 -68 -47 -102 0 -15 -11 -29 -32 -41 -48 -28
-107 -86 -126 -126 -24 -50 -23 -166 2 -203 39 -58 111 -73 151 -32 51 50 17
138 -48 121 -14 -3 -32 1 -45 10 -48 33 -14 132 58 169 40 21 58 19 65 -7 9
-30 71 -133 106 -178 15 -19 53 -75 83 -124 65 -104 73 -150 31 -191 -13 -14
-33 -25 -44 -25 -14 0 -19 -5 -15 -15 5 -11 22 -15 63 -15 51 0 60 3 88 33 41
43 53 69 53 114 0 57 -41 131 -128 229 -108 122 -172 204 -172 221 0 8 14 26
30 40 22 18 30 33 30 56 0 38 -7 50 -37 66 -27 14 -42 14 -66 0z"/>
<path d="M7908 6963 c-30 -8 -20 -32 15 -35 l32 -3 -40 -22 c-115 -61 -155
-182 -101 -299 46 -98 147 -153 301 -161 165 -10 341 55 392 143 61 105 -10
224 -147 249 -32 6 -40 2 -83 -37 -34 -32 -47 -52 -47 -72 0 -31 40 -76 68
-76 28 0 61 31 66 60 2 17 9 24 20 22 10 -2 16 4 16 18 0 28 31 26 59 -4 19
-20 22 -32 17 -58 -7 -40 -44 -77 -56 -58 -12 19 -38 5 -42 -22 -2 -19 -18
-29 -88 -55 -200 -74 -387 -54 -406 45 -16 86 21 135 150 196 97 46 140 55
259 56 108 0 117 7 57 48 -62 41 -153 63 -264 61 -56 -1 -114 0 -131 3 -16 3
-38 4 -47 1z"/>
<path d="M7480 6940 c0 -5 -21 -10 -46 -10 -43 0 -74 -16 -74 -38 0 -6 8 -9
18 -7 9 2 43 4 75 4 36 1 56 5 52 11 -3 6 1 10 9 10 20 0 20 7 2 26 -17 16
-36 19 -36 4z"/>
<path d="M962 6813 c-34 -30 -33 -83 3 -119 25 -25 29 -25 108 -19 81 6 83 6
133 -27 124 -80 234 -213 234 -283 0 -44 -17 -65 -53 -65 -69 1 -182 76 -332
221 -51 49 -99 89 -107 89 -20 0 -28 -30 -28 -111 0 -66 0 -67 43 -105 24 -22
72 -59 106 -84 122 -87 216 -218 209 -292 -6 -61 -64 -45 -159 44 -150 140
-202 176 -275 192 -112 24 -175 -121 -129 -299 36 -137 172 -218 245 -145 44
44 33 115 -22 134 -20 7 -32 4 -56 -12 -55 -39 -89 -27 -126 45 -19 38 -21
118 -3 152 32 63 103 32 206 -90 136 -161 156 -181 192 -200 74 -37 151 -15
179 51 20 48 8 136 -27 213 l-32 67 39 0 c103 0 170 70 170 178 0 34 -11 69
-42 131 -64 129 -223 283 -351 339 -40 18 -101 15 -125 -5z"/>
<path d="M8290 6395 c0 -8 -4 -15 -10 -15 -5 0 -10 -9 -10 -20 0 -18 -7 -20
-60 -20 -137 0 -195 -79 -169 -227 7 -40 17 -73 22 -73 4 0 25 -13 45 -30 64
-51 111 -62 285 -68 l158 -4 -58 -36 c-32 -19 -112 -66 -178 -104 -66 -38
-127 -76 -136 -84 -27 -24 -12 -51 34 -63 118 -31 457 -71 599 -71 68 0 68 0
68 28 0 18 -10 38 -25 52 -25 23 -28 23 -98 12 -63 -10 -179 -15 -324 -13 -24
1 -43 6 -43 11 0 6 4 10 9 10 5 0 47 23 92 51 119 73 211 118 265 132 51 13
63 27 42 48 -8 8 -25 30 -40 49 l-27 34 -208 1 c-169 1 -218 5 -263 19 -91 29
-183 86 -140 86 6 0 10 5 10 11 0 6 7 17 15 25 8 9 15 24 15 35 0 19 -1 19
-16 5 -8 -9 -20 -16 -25 -16 -5 0 -9 -7 -9 -15 0 -25 -27 -17 -34 11 -20 77
68 150 130 109 21 -13 25 -22 21 -44 -9 -43 16 -71 63 -71 29 0 42 5 50 19 18
35 11 75 -20 111 -30 36 -38 60 -20 60 6 0 10 7 10 16 0 8 5 12 10 9 6 -4 10
5 10 19 0 19 -5 26 -20 26 -11 0 -20 -7 -20 -15z"/>
<path d="M2498 6129 c-31 -4 -93 -22 -137 -39 -173 -67 -263 -171 -262 -303 1
-62 21 -120 29 -82 11 54 69 89 194 120 44 11 49 14 31 20 -13 4 -20 11 -17
16 3 5 18 2 34 -6 33 -17 90 -20 90 -5 0 6 7 10 15 10 8 0 15 -4 15 -10 0 -5
6 -8 13 -6 6 3 33 7 59 10 53 6 51 14 23 -109 -7 -33 -12 -61 -10 -63 5 -5 25
68 25 91 0 9 4 17 9 17 5 0 12 -8 15 -17 4 -15 5 -15 4 2 -1 34 1 36 22 25 11
-6 20 -7 20 -1 0 5 -12 12 -27 17 -21 5 -24 8 -10 11 9 3 17 9 17 14 0 5 7 9
15 9 9 0 18 12 22 30 3 17 9 30 14 30 4 0 1 19 -7 42 -10 28 -11 45 -4 52 7 7
10 4 10 -10 0 -24 32 -45 51 -33 11 7 11 9 -3 9 -9 0 -20 5 -24 12 -5 7 -2 9
9 5 9 -3 18 1 21 9 9 24 7 31 -4 14 -8 -12 -10 -12 -11 5 0 11 -3 15 -5 9 -3
-6 -15 -9 -28 -7 -19 4 -25 13 -29 41 -4 39 0 53 11 36 4 -6 23 -16 43 -23 51
-16 119 -83 119 -116 0 -14 6 -38 14 -53 12 -24 12 -30 0 -47 -8 -10 -14 -27
-14 -37 0 -10 -7 -18 -15 -18 -8 0 -15 -4 -15 -10 0 -5 -7 -10 -15 -10 -8 0
-15 -4 -15 -10 0 -5 -11 -12 -25 -16 -14 -3 -22 -10 -19 -15 3 -5 -3 -9 -13
-9 -45 -1 -79 -74 -77 -167 1 -46 -1 -51 -16 -43 -10 5 -20 6 -24 3 -3 -3 -6
-1 -6 5 0 7 8 12 18 13 12 0 11 3 -7 10 -12 5 -21 15 -18 22 2 6 -2 18 -9 25
-11 10 -13 7 -11 -18 1 -16 5 -30 9 -30 4 0 8 -10 10 -22 2 -14 10 -23 20 -23
9 0 20 -4 25 -9 4 -5 3 -6 -4 -2 -7 4 -13 4 -13 -1 0 -10 62 -63 74 -63 5 0
35 -22 65 -48 31 -26 67 -55 81 -64 25 -15 39 -38 78 -128 l20 -45 -56 -3
c-31 -2 -60 -9 -65 -15 -6 -9 -10 -9 -13 -1 -7 16 -53 -7 -74 -36 -8 -11 -24
-20 -37 -20 -12 0 -24 -4 -27 -9 -4 -5 3 -7 14 -4 11 3 20 1 20 -5 0 -21 -20
-23 -52 -6 -32 16 -32 16 -18 -1 14 -17 13 -17 -5 -8 -11 6 -26 8 -32 6 -17
-6 -16 5 0 22 9 8 19 10 30 4 8 -5 18 -6 20 -2 8 12 -16 38 -33 38 -8 0 -16 9
-16 20 -1 11 -2 24 -3 28 -1 4 -10 3 -21 -3 -14 -8 -20 -8 -20 0 0 6 -6 8 -12
5 -7 -4 -5 0 5 8 20 17 21 30 5 56 -9 15 -17 17 -34 11 -16 -7 -24 -5 -28 6
-3 8 -10 12 -16 9 -5 -3 -10 -1 -10 5 0 6 -5 8 -12 4 -8 -5 -9 -2 -5 9 3 10 4
17 1 17 -8 0 -59 -34 -66 -45 -5 -6 -8 -4 -8 5 0 23 72 60 106 54 15 -3 31 -7
36 -10 4 -3 8 4 8 15 0 12 -4 21 -10 21 -5 0 -10 -5 -10 -12 0 -27 -21 10 -23
40 -1 18 -6 32 -11 32 -4 0 -6 -16 -4 -35 3 -25 0 -35 -10 -35 -7 0 -33 -12
-58 -26 -33 -20 -48 -23 -58 -15 -7 6 -16 8 -19 5 -3 -4 3 -14 15 -24 l21 -17
-24 1 c-13 1 -28 6 -32 11 -5 6 -7 3 -4 -6 3 -10 -3 -21 -18 -29 -13 -7 -21
-18 -18 -26 3 -8 9 -11 14 -8 5 3 9 3 9 0 0 -3 -9 -10 -21 -16 -24 -14 -49 2
-49 31 0 12 -10 21 -25 25 -14 3 -23 10 -20 14 9 15 -13 21 -27 8 -7 -7 -24
-14 -38 -15 l-25 -3 25 16 25 15 -32 -6 c-27 -6 -32 -4 -27 9 3 9 10 13 15 10
5 -3 9 0 9 7 0 7 9 5 27 -6 24 -16 26 -16 20 -1 -6 14 -3 16 16 11 21 -6 21
-5 -2 8 -14 8 -26 23 -27 32 -2 10 -9 22 -16 27 -9 6 -6 8 11 6 14 -2 26 3 29
11 3 10 -3 11 -28 6 -24 -5 -37 -2 -53 13 -41 36 -79 35 -133 -4 -52 -37 -64
-38 -164 -11 -8 2 -28 7 -45 12 -16 4 -39 14 -50 21 -11 8 -36 14 -55 14 -20
0 -41 5 -46 10 -16 16 -61 -5 -69 -31 -4 -13 -15 -30 -23 -39 -14 -13 -14 -15
1 -18 23 -5 21 -19 -3 -27 -28 -9 -25 -25 6 -25 15 0 23 4 19 10 -9 15 46 1
63 -15 11 -10 3 -12 -38 -9 -47 2 -51 0 -47 -17 6 -21 -8 -26 -16 -6 -4 9 -6
9 -6 0 -1 -17 12 -23 38 -16 17 4 19 8 10 14 -8 4 -10 11 -6 15 4 4 12 3 19
-4 8 -8 8 -22 0 -53 -6 -24 -9 -46 -6 -51 9 -14 26 -9 21 6 -4 10 -1 13 9 9 7
-3 14 -9 14 -13 0 -5 17 -7 38 -5 20 1 31 1 25 -2 -16 -6 -17 -39 -3 -48 6 -4
9 -1 8 6 -2 7 6 14 17 16 11 1 14 0 8 -3 -7 -3 -13 -12 -13 -20 0 -8 -8 -14
-17 -14 -14 0 -15 -2 -5 -9 10 -6 10 -10 -3 -21 -12 -10 -15 -10 -15 4 0 11
-4 14 -12 10 -9 -5 -8 -2 1 9 12 15 12 17 -1 12 -9 -4 -18 1 -22 10 -5 13 -1
15 14 10 29 -9 24 8 -6 22 -23 10 -32 9 -65 -10 -31 -18 -37 -27 -36 -49 2
-24 6 -28 31 -28 16 0 26 -3 22 -7 -12 -12 -48 -14 -62 -2 -11 9 -14 7 -15 -7
-4 -49 5 -91 22 -107 10 -10 19 -26 19 -37 0 -13 5 -18 15 -14 9 4 15 0 15
-10 0 -8 9 -20 20 -26 11 -6 19 -16 17 -23 -3 -16 70 -22 89 -6 11 9 14 8 14
-5 0 -9 8 -16 20 -16 31 0 100 -47 100 -68 0 -4 9 -13 19 -19 17 -11 19 -25
20 -117 1 -58 6 -117 11 -131 6 -14 10 -27 10 -29 0 -5 -99 2 -109 9 -20 12
-48 -4 -46 -27 2 -34 45 -61 76 -49 15 5 32 6 39 1 8 -5 19 -5 26 1 14 12 19
5 29 -38 3 -18 19 -58 34 -89 32 -66 32 -125 0 -117 -11 3 -17 8 -14 11 3 3
-12 16 -33 28 -33 20 -44 22 -75 13 -38 -10 -59 -29 -33 -29 9 0 16 -4 16 -10
0 -5 21 -10 48 -11 26 -1 58 -5 72 -9 l25 -8 -25 -1 c-43 -2 -121 -61 -80 -61
6 0 10 5 10 11 0 5 4 7 10 4 5 -3 21 2 35 11 24 16 25 15 25 -4 0 -11 -13 -30
-30 -42 -34 -24 -74 -88 -88 -142 l-10 -37 34 35 c19 19 39 34 45 34 6 0 8
-43 4 -115 -5 -121 -17 -162 -59 -197 -16 -13 -18 -17 -5 -18 8 0 25 9 37 20
12 11 25 20 29 20 16 0 81 76 95 110 l15 35 6 -27 c11 -41 54 -81 75 -69 9 5
17 15 18 23 0 7 2 23 2 36 2 21 4 22 17 9 16 -16 92 -21 114 -7 9 5 3 8 -14 8
-15 0 -31 6 -36 13 -6 11 -9 10 -15 -4 -6 -17 -7 -17 -21 0 -8 10 -11 12 -7 4
5 -9 3 -12 -5 -7 -6 4 -20 24 -30 44 -22 43 -56 77 -90 90 -18 6 -32 28 -52
78 -15 37 -25 73 -21 79 3 5 6 19 7 30 0 11 6 20 13 21 6 1 16 2 21 3 5 0 12
13 16 28 6 24 8 26 16 10 6 -9 18 -17 29 -17 12 0 17 -6 15 -17 -1 -10 0 -12
2 -5 3 6 8 12 12 12 11 0 39 -32 43 -50 2 -8 7 -18 13 -22 16 -12 -1 -19 -28
-13 -18 5 -24 12 -20 23 3 11 2 13 -4 5 -10 -13 -103 4 -115 21 -4 6 -6 -3 -4
-19 3 -32 33 -55 74 -55 26 0 87 -54 78 -69 -3 -5 1 -11 9 -15 13 -5 13 -1 0
31 -14 34 -40 62 -57 63 -5 0 -8 4 -8 10 0 12 61 -24 84 -49 10 -11 30 -43 45
-72 15 -29 32 -54 39 -57 18 -6 125 107 149 158 30 61 36 82 34 103 -1 10 4
17 16 17 14 0 15 2 4 9 -10 7 -11 13 -1 31 7 14 8 25 3 29 -6 3 -11 37 -12 76
-5 142 -55 217 -153 228 -38 5 -53 1 -86 -20 -21 -14 -47 -40 -58 -57 l-18
-30 -6 24 c-4 14 -14 39 -23 57 l-17 32 41 -1 c44 0 55 5 44 22 -5 8 -23 10
-54 6 l-46 -7 24 21 c13 11 29 20 36 20 18 0 55 48 55 70 0 10 -7 21 -16 24
-10 4 -13 2 -8 -6 5 -8 0 -9 -15 -5 -14 3 -20 1 -19 -6 2 -7 -8 -23 -20 -35
-13 -13 -21 -26 -18 -30 4 -3 15 4 26 16 23 25 32 28 24 9 -7 -19 -41 -37 -59
-31 -8 3 -12 11 -8 18 3 6 2 7 -3 3 -5 -5 -10 -13 -10 -18 -1 -5 -2 -12 -3
-15 0 -4 -13 5 -27 19 -15 15 -24 33 -21 41 3 8 -1 17 -9 20 -24 9 -27 7 -19
-11 5 -15 4 -16 -6 -5 -19 18 -28 15 -22 -8 3 -11 14 -20 24 -20 11 0 19 -7
19 -15 0 -8 -5 -15 -11 -15 -6 0 -8 -9 -4 -20 4 -11 2 -20 -4 -20 -6 0 -11 -7
-11 -15 0 -12 9 -14 40 -10 22 3 40 1 40 -4 0 -13 -28 -21 -32 -9 -2 6 -9 -1
-15 -15 -10 -21 -10 -25 1 -21 7 3 16 -2 20 -11 3 -9 2 -13 -3 -10 -5 3 -12 1
-16 -5 -3 -6 2 -13 12 -17 10 -3 30 -19 44 -34 15 -15 30 -25 33 -22 3 4 6
-11 7 -33 0 -34 2 -36 9 -16 10 23 36 39 47 29 3 -3 -1 -13 -10 -21 -8 -8 -17
-12 -21 -9 -3 4 -6 1 -6 -5 0 -7 4 -12 9 -12 6 0 11 -13 13 -30 2 -22 6 -27
17 -21 11 7 10 13 -3 34 -11 17 -14 27 -7 32 6 3 11 1 11 -4 0 -6 9 -11 19
-11 11 0 26 -6 33 -14 9 -9 20 -11 29 -5 18 9 79 -38 79 -61 0 -13 -2 -13 -10
0 -5 8 -10 11 -10 5 0 -19 15 -31 38 -29 12 1 25 -3 29 -9 4 -6 1 -7 -7 -2
-10 6 -12 4 -6 -11 18 -45 17 -47 -8 -19 -26 31 -36 24 -11 -8 7 -11 11 -26 8
-35 -4 -10 -2 -13 5 -8 7 4 12 2 12 -3 0 -6 -4 -11 -9 -11 -5 0 -12 -12 -16
-27 l-8 -28 -10 33 c-14 46 -25 40 -25 -15 0 -34 -5 -50 -19 -60 -10 -7 -23
-17 -29 -22 -9 -7 -14 2 -18 33 -5 31 -18 54 -52 89 -24 26 -56 50 -69 53 -14
3 -22 10 -20 15 7 11 -23 69 -35 69 -6 0 -10 7 -10 15 0 8 -8 29 -18 47 -19
34 -25 68 -11 68 4 0 10 -6 12 -12 3 -8 6 -6 6 5 1 10 -6 17 -19 17 -14 0 -21
9 -26 38 -4 20 -15 60 -25 87 -25 68 -31 108 -18 116 8 5 8 17 -1 43 -14 44
-8 66 20 66 12 0 18 -5 15 -10 -4 -6 -11 -7 -17 -4 -7 5 -9 1 -5 -9 4 -10 1
-17 -6 -17 -7 0 -6 -4 3 -10 11 -7 16 -4 21 13 4 16 12 22 32 22 15 -1 27 4
27 10 0 5 7 22 14 38 12 22 13 27 1 27 -17 0 -45 -27 -45 -45 0 -17 -53 -5
-56 13 -1 7 0 8 3 2 7 -14 23 -12 19 3 -1 6 -1 9 1 5 8 -15 25 -8 19 7 -3 9 0
15 9 15 8 0 15 5 15 10 0 13 -6 13 -30 0 -11 -6 -21 -6 -24 -1 -3 5 6 12 21
16 21 5 24 8 13 15 -8 5 -12 12 -8 15 3 3 13 -1 22 -10 19 -20 46 -13 46 12 0
13 -3 14 -12 5 -9 -9 -15 -5 -26 21 -12 24 -16 28 -19 15 -3 -10 -9 -18 -14
-18 -16 0 -22 29 -9 45 10 12 9 15 -8 15 -20 0 -36 -15 -37 -35 0 -5 -11 -9
-23 -8 -17 2 -22 -2 -22 -22 0 -24 9 -30 38 -26 10 2 14 -11 11 -35 0 -4 5
-11 13 -15 11 -7 11 -9 0 -9 -8 0 -16 9 -19 20 -6 23 -43 27 -43 4 0 -8 -4
-13 -9 -10 -4 3 -6 17 -4 30 4 20 2 24 -13 20 -11 -2 -25 0 -32 4 -17 11 -5
42 14 35 8 -3 11 -9 8 -14 -3 -5 2 -6 11 -3 14 6 14 8 -2 20 -16 12 -14 13 21
14 39 0 39 0 21 20 -18 20 -18 21 3 27 29 7 28 20 -2 25 -17 4 -23 1 -19 -9 3
-7 0 -13 -7 -13 -6 0 -9 -4 -6 -9 3 -5 -2 -15 -11 -22 -15 -12 -16 -12 -10 4
3 9 2 17 -3 17 -13 0 -13 37 0 45 6 4 8 11 5 16 -4 5 5 5 20 -1 33 -12 38 -12
30 -1 -3 5 4 12 15 16 11 3 20 10 20 15 0 5 7 7 15 4 22 -9 18 -22 -7 -27 -13
-2 5 -2 40 1 55 4 62 3 56 -12 -3 -9 -10 -16 -15 -16 -5 0 -9 -4 -9 -10 0 -17
28 -11 33 8 3 12 5 10 6 -7 1 -21 -2 -23 -31 -17 l-33 6 25 -20 c14 -11 40
-20 58 -20 20 0 32 -5 32 -14 0 -7 11 -25 26 -41 20 -21 24 -33 19 -57 -5 -21
-2 -35 11 -49 9 -10 13 -19 8 -19 -5 0 3 -6 17 -14 24 -12 90 -25 187 -35 6 0
12 -8 12 -16 0 -8 9 -15 20 -15 30 0 125 -40 158 -67 12 -10 37 -29 56 -43 24
-17 38 -36 42 -58 4 -21 15 -37 28 -42 11 -5 16 -9 10 -9 -13 -1 -34 -45 -34
-71 0 -11 -6 -20 -14 -20 -8 0 -16 -13 -18 -31 -4 -24 0 -33 16 -40 29 -13 60
-32 68 -44 4 -5 24 -10 45 -11 21 -1 51 -7 67 -13 24 -10 32 -9 44 2 12 12 12
18 0 38 -25 45 -41 59 -60 53 -13 -4 -21 2 -28 22 -6 15 -8 29 -6 32 11 11
142 -32 158 -52 15 -18 18 -19 18 -3 0 9 -4 17 -10 17 -5 0 -10 5 -10 11 0 5
5 7 10 4 6 -3 10 -1 10 4 0 6 -7 11 -15 11 -8 0 -15 4 -15 9 0 5 8 7 19 4 15
-4 19 1 19 23 0 16 4 30 10 32 6 2 8 10 5 18 -4 10 0 12 11 8 17 -6 23 -34 7
-34 -5 0 -14 -14 -20 -32 -11 -32 -4 -47 24 -48 6 0 -1 -10 -15 -22 l-25 -21
28 5 c29 6 32 2 17 -22 -8 -12 -13 -13 -29 -3 -18 12 -22 9 -36 -18 -21 -39
-16 -51 20 -54 17 -2 24 -1 18 2 -24 9 -13 20 14 15 21 -4 25 -2 20 12 -6 15
3 20 30 17 18 -2 25 16 8 23 -8 3 -15 10 -15 16 0 6 4 9 9 5 6 -3 15 4 21 15
9 18 8 20 -15 20 -47 0 -86 65 -46 78 9 3 11 0 7 -9 -4 -8 1 -3 13 11 12 15
16 26 9 29 -6 2 0 10 13 17 13 7 18 13 12 14 -7 0 -13 7 -13 17 0 14 2 14 20
-2 20 -18 21 -18 34 0 10 14 10 22 2 31 -9 9 -12 9 -16 0 -5 -13 -43 -13 -73
-1 -13 6 -16 3 -11 -9 4 -10 1 -16 -8 -16 -25 0 -29 13 -11 33 17 20 17 20 0
14 -10 -4 -21 -7 -23 -7 -2 0 -4 -7 -4 -16 0 -12 -3 -14 -13 -6 -9 8 -21 7
-41 -3 -27 -14 -29 -13 -48 10 -11 14 -30 25 -44 25 -28 0 -30 6 -10 26 19 18
30 18 23 0 -6 -14 39 -33 51 -21 3 3 -3 5 -12 5 -20 0 -17 21 4 28 7 3 10 0 6
-7 -4 -6 -1 -11 8 -11 9 0 16 6 16 13 0 6 5 4 11 -6 8 -14 14 -16 25 -6 8 6
14 7 14 2 0 -6 -10 -15 -22 -21 -23 -10 -23 -10 2 -8 14 1 38 8 53 14 34 15
40 15 32 2 -3 -6 1 -7 9 -4 20 8 21 24 2 24 -12 0 -24 24 -24 47 0 3 -6 10
-14 14 -10 7 -10 9 0 9 6 0 12 11 12 25 0 30 -20 33 -27 5 -4 -14 -13 -20 -32
-19 l-26 1 25 8 25 8 -25 1 c-20 1 -22 3 -10 11 13 8 12 10 -2 10 -10 0 -18
-7 -18 -16 0 -8 -5 -12 -10 -9 -8 5 -7 11 0 20 7 8 9 18 6 23 -5 9 29 26 47
23 4 -1 7 4 7 10 0 6 7 8 15 5 20 -7 33 23 15 34 -7 4 -9 13 -5 21 6 9 10 7
16 -9 12 -33 26 -26 21 10 -4 26 -2 30 12 25 10 -4 22 -7 27 -7 5 0 18 -9 28
-19 20 -20 67 -18 54 2 -4 7 0 8 13 3 19 -7 16 -3 -44 62 -8 9 -22 11 -41 7
-21 -4 -30 -2 -35 11 -4 9 -9 14 -12 11 -4 -3 -13 1 -22 9 -13 14 -13 17 -1
26 11 8 11 9 -3 5 -9 -3 -21 0 -27 6 -7 10 19 12 117 10 70 -1 127 -3 127 -4
0 -3 43 -7 160 -13 65 -3 122 -10 126 -14 8 -8 75 -247 85 -302 9 -44 26 -80
52 -103 25 -22 87 -31 115 -15 12 7 26 11 30 10 7 -2 5 46 -7 149 -2 14 -6 31
-10 38 -4 6 -10 24 -12 39 -5 27 -29 96 -59 165 l-16 39 22 -16 c15 -10 28
-12 39 -6 10 5 57 9 106 9 53 1 105 7 129 15 39 15 39 15 10 16 -26 1 -27 3
-10 10 16 7 16 9 4 9 -9 1 -20 8 -23 17 -8 22 -9 21 19 28 26 7 35 26 12 26
-7 0 -24 14 -39 30 -18 20 -32 28 -45 24 -14 -4 -13 -1 5 12 12 9 22 23 22 30
0 21 -31 17 -37 -5 -3 -12 -13 -18 -29 -17 -28 1 -27 1 -14 27 14 25 0 24 -27
0 -12 -11 -24 -17 -28 -13 -3 4 -11 -1 -16 -11 -6 -9 -20 -17 -32 -16 -21 1
-20 2 3 9 17 5 -2 8 -60 9 -81 1 -86 2 -97 27 -11 23 -10 26 6 21 15 -3 17 0
13 17 -3 11 -10 24 -16 28 -8 5 -7 8 2 8 16 0 9 96 -12 166 -17 54 -91 174
-107 174 -5 0 -9 6 -9 13 0 13 -44 50 -100 84 -20 12 -50 42 -68 66 -19 25
-64 63 -104 88 -90 55 -111 78 -127 130 -36 121 -201 255 -286 233 -23 -6 -23
-9 -18 -89 5 -81 4 -83 -19 -88 l-23 -4 23 -2 c32 -1 26 -42 -8 -57 -36 -17
-110 -28 -90 -14 11 8 -8 10 -71 8 -48 -2 -85 -6 -82 -10 2 -5 -3 -8 -12 -8
-8 0 -18 7 -22 16 -3 8 -12 13 -20 10 -8 -3 -12 -2 -9 3 9 14 46 20 46 8 0 -7
5 -4 11 6 12 20 35 23 42 5 4 -8 6 -7 6 4 1 9 7 19 14 22 6 3 -5 3 -26 0 -24
-3 -37 -2 -33 4 3 6 45 13 94 17 98 8 122 17 122 45 0 24 -36 35 -85 26 -54
-11 -178 -81 -187 -107 -7 -17 -11 -20 -17 -10 -6 10 -10 8 -16 -6 -7 -16 -9
-15 -15 7 l-8 25 -1 -27 c-1 -33 -1 -33 -45 -7 -22 13 -33 26 -29 35 3 7 10
11 15 8 6 -4 6 -9 -2 -14 -8 -5 -8 -9 3 -13 11 -4 14 1 12 20 -2 19 1 24 15
20 13 -3 17 2 18 24 1 32 -14 39 -21 12 -4 -15 -5 -15 -6 2 -1 27 38 53 51 33
8 -10 8 -9 4 5 -5 16 8 25 17 10 2 -5 2 -3 1 4 -3 14 51 34 74 27 14 -5 14 -4
3 4 -17 12 35 30 117 39 28 3 52 10 52 14 0 5 -1 8 -2 8 -2 -1 -28 -5 -60 -10z
m62 -129 c0 -5 -8 -10 -17 -10 -15 0 -16 2 -3 10 19 12 20 12 20 0z m-245
-130 c3 -6 -1 -7 -9 -4 -10 4 -16 1 -16 -7 0 -7 -3 -10 -6 -6 -7 7 4 27 16 27
5 0 12 -4 15 -10z m671 -138 c-4 -3 -14 2 -24 12 -16 18 -16 18 6 6 13 -6 21
-14 18 -18z m-59 -30 c8 -5 7 -14 -4 -32 -8 -14 -12 -17 -9 -6 4 10 1 25 -5
32 -12 15 -2 19 18 6z m-117 -34 c0 -19 -16 -5 -17 14 -2 18 0 20 7 8 5 -8 10
-18 10 -22z m30 12 c0 -5 -5 -10 -11 -10 -5 0 -7 5 -4 10 3 6 8 10 11 10 2 0
4 -4 4 -10z m140 -5 c11 -13 10 -14 -4 -9 -9 3 -16 10 -16 15 0 13 6 11 20 -6z
m-213 -17 c-3 -8 -6 -5 -6 6 -1 11 2 17 5 13 3 -3 4 -12 1 -19z m198 -8 c3 -5
1 -10 -4 -10 -6 0 -11 5 -11 10 0 6 2 10 4 10 3 0 8 -4 11 -10z m-39 -28 c-18
-16 -18 -16 -6 6 6 13 14 21 18 18 3 -4 -2 -14 -12 -24z m172 7 c-10 -7 -10
-9 2 -10 8 -1 21 -1 28 0 6 1 12 -3 12 -8 0 -10 -34 -6 -74 9 -20 7 -24 6 -19
-5 3 -8 9 -13 13 -10 4 3 10 -3 12 -13 5 -17 3 -17 -28 -3 -18 9 -33 23 -34
31 0 12 2 12 9 2 7 -11 9 -10 15 3 3 9 9 14 14 11 4 -2 14 -1 22 4 7 4 20 6
27 3 12 -5 12 -7 1 -14z m-208 -4 c-7 -9 -15 -13 -19 -10 -3 3 1 10 9 15 21
14 24 12 10 -5z m-170 -15 c0 -5 -2 -10 -4 -10 -3 0 -8 5 -11 10 -3 6 -1 10 4
10 6 0 11 -4 11 -10z m45 0 c-3 -5 -11 -10 -16 -10 -6 0 -7 5 -4 10 3 6 11 10
16 10 6 0 7 -4 4 -10z m194 -21 c-16 -10 -23 -4 -14 10 3 6 11 8 17 5 6 -4 5
-9 -3 -15z m-136 -14 c-2 -5 -9 -10 -15 -10 -7 0 -16 -4 -20 -10 -5 -6 -8 -5
-8 3 0 8 -8 10 -24 6 -14 -3 -27 -1 -32 7 -5 8 -2 11 8 7 8 -4 20 -3 26 1 17
10 67 7 65 -4z m187 0 c7 -8 9 -15 6 -15 -4 0 -14 7 -22 15 -9 8 -11 15 -6 15
5 0 15 -7 22 -15z m50 -28 c0 -6 -9 0 -20 13 -11 13 -20 25 -20 28 0 3 9 -3
20 -13 11 -10 20 -23 20 -28z m-136 7 c3 -8 2 -12 -4 -9 -6 3 -10 10 -10 16 0
14 7 11 14 -7z m-77 -10 c-3 -3 -12 -4 -19 -1 -8 3 -5 6 6 6 11 1 17 -2 13 -5z
m-62 -24 c3 -5 1 -10 -4 -10 -6 0 -11 5 -11 10 0 6 2 10 4 10 3 0 8 -4 11 -10z
m50 0 c3 -5 2 -10 -4 -10 -5 0 -13 5 -16 10 -3 6 -2 10 4 10 5 0 13 -4 16 -10z
m431 -14 c16 -17 19 -36 4 -36 -5 0 -10 -8 -10 -17 1 -15 4 -14 20 6 11 13 20
19 20 13 0 -5 -6 -14 -13 -20 -16 -13 -20 -59 -6 -67 6 -4 1 -14 -12 -26 -26
-23 -36 -25 -19 -4 10 12 9 15 -6 15 -11 0 -25 9 -32 20 -7 11 -20 20 -30 20
-15 0 -15 2 -2 10 11 7 19 5 32 -10 17 -21 34 -28 22 -8 -4 7 -3 8 5 4 6 -4 9
-11 6 -16 -3 -4 2 -11 11 -14 12 -5 14 -1 8 17 -4 12 -11 24 -15 25 -5 2 -6 9
-2 15 4 7 -1 6 -10 -2 -9 -7 -17 -12 -18 -10 -8 37 -8 59 1 59 5 0 9 -4 8 -9
-5 -16 17 -13 27 5 7 12 6 18 -2 21 -7 3 -13 9 -13 14 0 13 9 11 26 -5z m-486
-26 c0 -5 -2 -10 -4 -10 -3 0 -8 5 -11 10 -3 6 -1 10 4 10 6 0 11 -4 11 -10z
m140 -55 c0 -5 -5 -3 -10 5 -5 8 -10 20 -10 25 0 6 5 3 10 -5 5 -8 10 -19 10
-25z m220 15 c0 -5 -2 -10 -4 -10 -3 0 -8 5 -11 10 -3 6 -1 10 4 10 6 0 11 -4
11 -10z m50 -4 c-7 -7 -14 -6 -21 1 -9 9 -7 12 9 10 14 -1 18 -5 12 -11z m155
-24 c-3 -3 -16 5 -28 17 l-22 23 28 -17 c15 -10 25 -20 22 -23z m-385 -32 c5
0 7 7 4 15 -4 8 -1 15 6 15 6 0 8 -4 5 -10 -6 -10 41 -60 56 -60 5 0 9 -5 9
-11 0 -6 -12 -2 -27 9 -16 11 -38 23 -50 26 -18 6 -23 14 -22 39 2 30 2 31 6
5 2 -16 8 -28 13 -28z m68 40 c1 -2 5 -3 10 -4 19 -3 71 -49 66 -58 -4 -6 -9
-6 -13 -1 -3 5 -27 22 -53 37 -27 15 -48 29 -48 31 0 3 33 -2 38 -5z m82 -21
c0 -6 -7 -6 -20 1 -11 6 -20 15 -20 21 0 6 7 6 20 -1 11 -6 20 -15 20 -21z
m64 -9 c8 0 19 -7 26 -15 10 -12 10 -15 -1 -16 -8 -1 -18 -2 -24 -4 -5 -1 -14
-3 -19 -3 -5 -1 -2 -10 7 -20 12 -13 13 -22 6 -32 -9 -13 -10 -13 -6 0 2 8 -3
20 -12 27 -14 10 -14 13 4 33 19 21 19 21 -3 27 -22 5 -27 14 -15 27 4 3 11 0
15 -9 5 -8 15 -15 22 -15z m-244 10 c0 -5 -10 -10 -22 -9 -22 0 -22 1 -3 9 11
5 21 9 23 9 1 1 2 -3 2 -9z m-1300 -39 c0 -12 -3 -12 -12 -3 -18 18 -28 15
-21 -5 6 -16 5 -16 -10 -4 -21 17 -22 31 -1 31 8 0 12 5 9 11 -4 6 2 5 14 -3
12 -7 21 -19 21 -27z m1225 29 c3 -6 -1 -7 -9 -4 -18 7 -21 14 -7 14 6 0 13
-4 16 -10z m-1168 -13 c13 5 13 3 2 -15 -16 -25 -29 -19 -28 11 0 12 3 17 5
10 3 -7 12 -9 21 -6z m287 -9 c-5 -8 -2 -9 10 -5 10 4 15 3 11 -3 -7 -12 -35
-13 -35 -2 0 9 10 22 17 22 2 0 1 -5 -3 -12z m1086 -9 l25 -20 -32 16 c-18 8
-33 18 -33 20 0 10 16 4 40 -16z m75 11 c3 -5 1 -10 -4 -10 -6 0 -11 5 -11 10
0 6 2 10 4 10 3 0 8 -4 11 -10z m190 0 c3 -5 2 -10 -4 -10 -5 0 -13 5 -16 10
-3 6 -2 10 4 10 5 0 13 -4 16 -10z m-1791 -15 c-6 -16 -24 -21 -24 -7 0 11 11
22 21 22 5 0 6 -7 3 -15z m522 7 c-3 -3 -1 -11 5 -18 9 -11 6 -16 -12 -23 -30
-11 -44 -4 -28 15 8 10 8 14 0 14 -6 0 -11 4 -11 9 0 5 11 9 25 9 14 0 23 -3
21 -6z m856 -12 c18 -11 29 -20 25 -20 -11 0 -67 29 -67 35 0 9 9 5 42 -15z
m-812 -12 c0 -13 -23 -5 -28 10 -2 7 2 10 12 6 9 -3 16 -11 16 -16z m-540 8
c0 -3 -4 -8 -10 -11 -5 -3 -10 -1 -10 4 0 6 5 11 10 11 6 0 10 -2 10 -4z m82
-13 c-6 -2 -10 -9 -6 -14 3 -5 -2 -9 -10 -9 -9 0 -16 4 -16 9 0 10 18 19 35
19 6 0 4 -2 -3 -5z m206 -5 c7 -7 12 -16 12 -22 0 -5 -6 -2 -13 8 -13 17 -14
18 -20 2 -4 -10 -12 -14 -19 -10 -7 5 -9 2 -5 -8 4 -11 -1 -18 -14 -21 -14 -4
-19 0 -19 14 0 10 -5 19 -11 19 -5 0 -8 4 -5 9 3 4 16 6 30 4 13 -3 27 0 30 6
9 14 19 14 34 -1z m-139 -24 c14 17 32 13 27 -7 -1 -7 -1 -9 1 -4 9 15 21 6
21 -17 0 -17 -5 -23 -15 -19 -7 3 -22 -2 -33 -12 -17 -15 -22 -16 -36 -5 -11
10 -18 10 -22 3 -5 -8 -13 -7 -27 3 -18 13 -16 14 23 11 24 -2 45 0 48 5 5 8
-16 12 -51 10 -15 -2 -17 0 -6 7 11 7 11 9 0 14 -10 4 -8 6 4 6 11 1 15 5 11
13 -5 8 -2 9 9 5 10 -4 17 -1 18 6 1 7 4 1 8 -12 6 -21 8 -22 20 -7z m193 14
c-9 -9 -15 -9 -24 0 -9 9 -7 12 12 12 19 0 21 -3 12 -12z m1168 8 c0 -3 -4 -8
-10 -11 -5 -3 -10 -1 -10 4 0 6 5 11 10 11 6 0 10 -2 10 -4z m300 -6 c0 -5 -2
-10 -4 -10 -3 0 -8 5 -11 10 -3 6 -1 10 4 10 6 0 11 -4 11 -10z m-1273 -19 c2
-24 -46 -48 -58 -29 -7 10 -9 9 -9 -4 0 -12 -8 -18 -25 -18 -14 0 -25 4 -25 9
0 5 -7 12 -16 15 -13 5 -15 1 -12 -19 3 -14 1 -25 -3 -25 -5 0 -9 4 -9 9 0 5
-8 7 -19 4 -11 -3 -21 2 -24 11 -4 9 -2 16 3 16 6 0 10 -4 10 -10 0 -5 7 -7
15 -4 8 4 15 15 15 25 0 18 2 18 23 5 20 -14 26 -14 51 -1 16 8 37 15 48 15
10 0 16 5 13 10 -3 6 0 10 7 10 8 0 14 -8 15 -19z m-497 -8 c0 -10 -4 -14 -8
-8 -4 6 -11 13 -16 18 -5 4 -2 7 7 7 10 0 17 -8 17 -17z m321 -7 c5 3 9 0 9
-6 0 -7 -7 -9 -16 -6 -9 3 -18 6 -20 6 -3 0 -2 5 2 12 6 9 9 9 12 0 2 -7 8
-10 13 -6z m204 4 c3 -5 1 -10 -4 -10 -6 0 -11 5 -11 10 0 6 2 10 4 10 3 0 8
-4 11 -10z m1015 -10 c0 -5 -2 -10 -4 -10 -3 0 -8 5 -11 10 -3 6 -1 10 4 10 6
0 11 -4 11 -10z m-1260 -30 c0 -16 -22 -23 -30 -10 -4 7 -13 9 -19 6 -6 -4
-11 -1 -11 8 0 8 6 16 13 19 15 5 47 -10 47 -23z m1360 -26 c0 -2 -13 2 -30
11 -16 9 -30 18 -30 21 0 2 14 -2 30 -11 17 -9 30 -18 30 -21z m-1190 16 c0
-5 -4 -10 -10 -10 -5 0 -10 5 -10 10 0 6 5 10 10 10 6 0 10 -4 10 -10z m-302
-12 c9 -9 12 -9 12 0 0 18 36 15 55 -4 11 -11 14 -25 10 -41 -5 -22 -4 -23 14
-13 17 8 19 8 15 -4 -3 -9 2 -16 12 -18 14 -2 13 -5 -9 -15 -22 -10 -25 -10
-20 2 3 8 0 15 -6 15 -6 0 -11 -4 -11 -10 0 -5 -7 -10 -15 -10 -8 0 -15 7 -15
15 0 8 -8 15 -17 15 -15 0 -16 2 -3 10 9 5 19 5 26 -1 19 -15 26 20 9 44 -8
12 -15 17 -15 11 0 -5 5 -15 12 -22 9 -9 7 -12 -11 -12 -14 0 -20 4 -16 13 4
6 -1 3 -9 -8 -16 -19 -17 -19 -51 -1 -32 17 -33 20 -17 32 21 17 35 17 50 2z
m-108 -8 c12 -7 17 -16 13 -27 -5 -12 -2 -15 10 -10 21 8 32 -10 18 -27 -6 -7
-7 -17 -3 -22 4 -4 -1 -2 -10 5 -10 7 -18 20 -18 28 0 9 -6 13 -14 10 -8 -3
-19 5 -26 18 -7 14 -18 22 -23 18 -6 -3 -7 -1 -3 5 9 15 31 15 56 2z m210 0
c0 -5 7 -7 15 -4 22 9 19 -3 -4 -15 -15 -9 -20 -7 -24 9 -3 11 -1 20 4 20 5 0
9 -4 9 -10z m498 -13 c5 -24 -15 -21 -21 4 -3 13 -1 19 6 16 7 -2 13 -11 15
-20z m135 -3 c-4 -10 -9 -12 -16 -5 -5 5 -16 7 -24 4 -11 -5 -11 -9 3 -24 10
-11 14 -22 11 -26 -4 -3 -7 -1 -7 5 0 7 -7 12 -16 12 -23 0 -13 33 16 47 28
14 42 9 33 -13z m-513 12 c0 -3 -4 -8 -10 -11 -5 -3 -10 -1 -10 4 0 6 5 11 10
11 6 0 10 -2 10 -4z m124 -29 c4 -19 3 -20 -7 -7 -7 8 -18 15 -26 15 -8 0 -16
5 -18 11 -2 7 5 10 21 7 14 -3 26 -14 30 -26z m291 23 c4 -6 10 -8 14 -6 4 3
8 -1 8 -9 0 -11 -4 -12 -14 -4 -10 9 -13 8 -13 -5 0 -9 5 -16 10 -16 18 0 11
-18 -9 -23 -14 -3 -18 -1 -14 9 3 9 -2 14 -13 15 -18 1 -18 1 -1 6 13 3 17 11
14 24 -5 20 7 26 18 9z m171 -13 c2 -18 -11 -23 -21 -7 -3 5 -12 7 -20 3 -8
-3 -15 0 -15 5 0 11 27 21 44 18 5 -1 10 -10 12 -19z m614 19 c0 -11 -19 -15
-25 -6 -3 5 1 10 9 10 9 0 16 -2 16 -4z m-1605 -27 c-4 -5 1 -9 9 -9 9 0 16
-4 16 -10 0 -14 -13 -13 -28 2 -15 15 -16 42 -2 33 6 -4 8 -11 5 -16z m603 6
c26 0 29 -10 6 -19 -27 -10 -54 -7 -54 8 0 8 -6 17 -12 20 -7 3 -2 3 12 -1 14
-4 35 -7 48 -8z m-120 -25 c15 0 15 -2 2 -10 -10 -6 -16 -6 -18 0 -7 21 -19
-1 -14 -25 3 -18 11 -25 28 -25 18 0 22 4 17 18 -6 16 -6 16 10 0 9 -9 17 -25
16 -35 0 -10 -3 -13 -6 -5 -2 6 -14 12 -26 12 -20 0 -20 -1 -2 -14 17 -12 17
-13 -8 -18 -24 -5 -27 -1 -33 29 -4 23 -10 31 -18 24 -22 -18 -59 -17 -62 3
-4 25 16 67 29 59 5 -3 3 -9 -4 -14 -12 -8 -11 -11 1 -19 10 -6 16 -6 18 0 2
6 9 7 14 3 7 -4 9 2 6 15 -4 12 -2 20 2 17 5 -3 12 0 17 7 5 10 8 8 11 -4 2
-10 11 -18 20 -18z m482 0 c0 -5 -4 -10 -10 -10 -5 0 -10 5 -10 10 0 6 5 10
10 10 6 0 10 -4 10 -10z m580 -16 c0 2 16 0 36 -4 41 -9 67 -3 57 13 -3 6 6 2
20 -9 15 -10 24 -25 22 -31 -2 -7 -1 -12 3 -12 22 4 20 -4 -8 -31 -31 -30 -41
-36 -39 -22 3 18 -2 27 -9 17 -9 -13 -292 -7 -292 6 0 5 32 9 70 9 56 0 70 3
70 15 0 8 4 15 10 15 5 0 12 11 16 25 5 21 9 23 25 14 10 -5 19 -8 19 -5z
m225 6 c3 -6 -1 -7 -9 -4 -18 7 -21 14 -7 14 6 0 13 -4 16 -10z m40 0 c3 -5 1
-10 -4 -10 -6 0 -11 5 -11 10 0 6 2 10 4 10 3 0 8 -4 11 -10z m-1205 -12 c0
-4 -5 -8 -11 -8 -6 0 -8 -9 -4 -22 5 -21 5 -21 -9 2 -20 33 -20 36 4 36 11 0
20 -4 20 -8z m350 -3 c0 -1 -9 -5 -19 -8 -13 -3 -18 -1 -14 9 4 10 33 10 33
-1z m950 -25 c0 -14 -14 -12 -28 2 -19 19 -14 30 8 18 11 -6 20 -15 20 -20z
m-1691 4 c11 -10 -9 -14 -38 -8 -23 5 -29 9 -19 15 11 8 46 3 57 -7z m117 -10
c-3 -9 -2 -12 5 -9 13 9 39 -13 39 -34 0 -10 -9 -17 -20 -18 -16 -1 -18 2 -11
16 8 15 6 17 -18 13 -22 -3 -29 1 -34 17 -5 20 4 29 32 30 8 1 11 -5 7 -15z
m297 2 c4 -10 1 -13 -8 -9 -8 3 -12 9 -9 14 7 12 11 11 17 -5z m194 -2 c37 4
40 2 35 -16 -2 -11 -11 -22 -18 -25 -8 -3 -11 -9 -8 -14 6 -11 -4 -11 -31 1
-18 8 -18 9 -2 9 10 1 25 7 32 15 12 12 12 15 -1 20 -8 3 -12 2 -9 -4 5 -8 -4
-13 -25 -12 -3 0 -10 -5 -16 -12 -7 -8 -4 -17 13 -34 13 -12 23 -18 23 -12 0
18 20 11 21 -7 1 -10 5 -4 9 12 4 17 8 22 9 13 0 -10 7 -18 15 -18 17 0 41
-28 32 -37 -3 -4 -12 -1 -18 5 -18 18 -27 14 -21 -8 4 -15 0 -20 -16 -20 -15
0 -20 4 -15 13 6 9 5 9 -7 0 -15 -12 -96 -7 -84 5 8 9 -16 32 -34 32 -14 0
-14 -2 -1 -10 18 -11 6 -25 -16 -16 -10 4 -14 13 -11 25 5 22 -18 37 -29 19
-4 -7 -3 -8 4 -4 7 4 12 2 12 -3 0 -6 -6 -11 -14 -11 -15 0 -30 45 -21 60 10
16 28 11 21 -6 -4 -10 -1 -14 6 -11 7 2 26 -5 41 -15 15 -11 35 -17 44 -14 9
4 20 1 25 -6 6 -10 8 -11 8 0 0 11 -41 33 -58 31 -19 -3 -32 2 -32 14 0 17 72
55 86 45 6 -4 29 -6 51 -4z m523 6 c24 -8 24 -8 -5 -9 -16 0 -37 4 -45 9 -12
8 -11 10 5 9 11 -1 31 -5 45 -9z m-1350 -4 c0 -3 -4 -8 -10 -11 -5 -3 -10 -1
-10 4 0 6 5 11 10 11 6 0 10 -2 10 -4z m1030 -38 c0 -5 -12 -8 -26 -8 -15 0
-23 4 -19 10 4 6 3 10 -2 9 -25 -4 -34 1 -21 14 10 11 17 11 40 -2 15 -9 28
-19 28 -23z m-838 17 c5 -7 14 -6 28 3 11 6 25 12 32 12 10 0 10 -2 0 -9 -11
-6 -7 -13 13 -29 24 -19 25 -23 12 -37 -19 -18 -27 -19 -27 -2 0 14 -39 51
-47 43 -8 -8 7 -26 23 -26 8 0 14 -5 14 -11 0 -6 -7 -9 -15 -6 -8 4 -17 2 -21
-4 -3 -6 3 -13 15 -16 35 -9 24 -21 -30 -32 -58 -13 -65 -10 -50 16 8 14 10
14 11 3 0 -13 1 -13 10 0 6 10 10 11 10 3 0 -7 8 -13 18 -13 13 0 14 2 4 9
-12 7 -12 12 -1 29 7 12 9 25 5 29 -5 4 -11 2 -13 -5 -4 -10 -9 -9 -24 4 -10
9 -25 14 -34 11 -11 -5 -15 0 -15 16 0 18 2 19 10 7 8 -13 10 -12 10 2 0 13 7
17 28 16 15 -1 30 -7 34 -13z m1058 11 c0 -3 -4 -8 -10 -11 -5 -3 -10 -1 -10
4 0 6 5 11 10 11 6 0 10 -2 10 -4z m-936 -48 c-5 -8 -44 22 -44 35 0 4 11 0
24 -10 13 -10 22 -21 20 -25z m131 31 c11 -17 2 -18 -19 -3 -17 12 -17 14 -4
14 9 0 20 -5 23 -11z m495 -4 c7 -8 8 -15 2 -15 -5 0 -15 7 -22 15 -7 8 -8 15
-2 15 5 0 15 -7 22 -15z m277 0 c0 -8 -9 -15 -19 -15 -16 0 -17 2 -6 15 17 19
25 19 25 0z m560 -24 c-12 -1 -26 -8 -30 -15 -5 -6 -6 -1 -2 12 4 13 2 22 -4
22 -6 0 -11 4 -11 10 0 5 15 2 34 -8 30 -15 31 -17 13 -21z m-887 17 c0 7 5
10 10 7 16 -10 12 -23 -7 -21 -9 2 -19 9 -21 17 -3 11 -1 11 7 -1 8 -11 11
-12 11 -2z m-475 -8 c3 -5 1 -10 -4 -10 -6 0 -11 5 -11 10 0 6 2 10 4 10 3 0
8 -4 11 -10z m1300 0 c3 -5 1 -10 -4 -10 -6 0 -11 5 -11 10 0 6 2 10 4 10 3 0
8 -4 11 -10z m-419 -47 c-3 -3 -12 -1 -20 6 -11 9 -15 9 -18 -1 -4 -11 -8 -11
-21 0 -8 7 -21 12 -29 11 -29 -3 -49 2 -43 11 4 6 11 7 17 4 6 -4 26 -8 44
-10 25 -2 34 1 34 11 0 11 6 9 21 -6 11 -11 18 -23 15 -26z m-708 14 c3 -14 7
-16 18 -6 10 8 14 8 14 0 0 -6 -4 -11 -10 -11 -5 0 -10 -7 -10 -16 0 -14 -1
-14 -16 0 -8 9 -12 20 -9 26 9 15 -14 12 -31 -4 -18 -19 -18 -27 1 -20 8 4 15
1 15 -6 0 -7 -8 -10 -20 -7 -11 3 -20 1 -20 -5 0 -5 -5 -6 -11 -2 -8 5 -8 9 1
14 7 5 9 13 5 21 -6 9 -11 6 -17 -11 -6 -17 -4 -28 7 -39 10 -10 15 -11 15 -3
0 7 11 12 24 12 13 0 27 6 29 13 3 6 5 0 4 -14 -1 -23 -5 -26 -25 -23 -20 4
-23 2 -17 -18 5 -21 5 -21 -6 -5 -6 11 -25 25 -43 33 -17 7 -26 13 -19 14 7 0
10 7 6 17 -5 12 -3 14 8 8 11 -6 12 -5 2 6 -14 14 -17 30 -5 28 22 -4 42 2 37
10 -3 6 11 9 32 7 27 -1 39 -7 41 -19z m352 19 c0 -3 -4 -8 -10 -11 -5 -3 -10
-1 -10 4 0 6 5 11 10 11 6 0 10 -2 10 -4z m73 -27 c-4 -15 -8 -17 -17 -8 -8 8
-8 13 2 16 6 3 9 10 6 15 -4 6 -2 8 4 5 5 -4 8 -16 5 -28z m328 8 c-10 -9 -11
-8 -5 6 3 10 9 15 12 12 3 -3 0 -11 -7 -18z m343 1 c-3 -13 -8 -24 -9 -26 -7
-8 -167 -2 -183 7 -12 7 11 10 76 10 95 0 117 5 107 22 -4 5 -1 9 5 9 7 0 9
-8 4 -22z m-1264 -3 c10 -13 11 -18 1 -28 -10 -9 -15 -8 -26 7 -23 31 1 50 25
21z m40 -7 c0 -6 -6 -5 -15 2 -8 7 -15 14 -15 16 0 2 7 1 15 -2 8 -4 15 -11
15 -16z m514 6 c21 -20 20 -33 -1 -30 -10 2 -19 13 -21 24 -4 26 1 27 22 6z
m810 -12 c-8 -2 -12 -8 -9 -13 4 -5 2 -9 -4 -9 -17 0 -23 20 -11 35 9 11 15
12 25 2 11 -10 11 -13 -1 -15z m-442 -2 c18 0 19 -1 2 -17 -9 -10 -24 -18 -33
-18 -9 0 -15 -6 -13 -12 1 -9 -9 -13 -30 -12 -31 1 -32 1 -8 9 14 4 21 8 15 9
-5 1 1 8 13 17 12 8 22 23 23 32 0 10 3 12 6 5 2 -7 14 -13 25 -13z m703 10
c-3 -5 -14 -10 -23 -10 -15 0 -15 2 -2 10 20 13 33 13 25 0z m-814 -16 c40 -5
48 -9 34 -17 -11 -6 -26 -5 -42 2 -35 16 -41 6 -12 -19 19 -18 21 -23 9 -30
-18 -12 -30 -13 -29 -2 4 21 -3 24 -16 6 -8 -11 -15 -14 -15 -6 0 15 -40 16
-40 1 0 -6 -7 -8 -16 -5 -8 3 -12 2 -9 -4 3 -6 2 -10 -4 -10 -17 0 -20 14 -6
33 10 13 14 15 18 5 2 -7 8 -9 13 -5 4 4 3 17 -4 27 -11 17 -10 20 9 20 13 0
18 -4 13 -12 -5 -8 -2 -9 10 -5 14 6 17 3 12 -10 -6 -15 -5 -16 6 -5 10 10 10
16 -1 34 -11 18 -11 20 3 15 9 -4 39 -9 67 -13z m489 6 c-19 -13 -30 -13 -30
0 0 6 10 10 23 10 18 0 19 -2 7 -10z m300 -20 c12 0 12 -2 1 -12 -11 -10 -14
-10 -18 0 -3 6 -13 12 -24 12 -19 0 -25 11 -12 23 3 4 14 0 23 -8 9 -8 23 -15
30 -15z m-630 10 c0 -5 -4 -10 -10 -10 -5 0 -10 5 -10 10 0 6 5 10 10 10 6 0
10 -4 10 -10z m-716 -16 c6 -15 4 -15 -11 -3 -10 7 -20 15 -22 16 -2 2 3 3 11
3 9 0 19 -7 22 -16z m1050 1 c-4 -9 -19 -15 -40 -15 -46 0 -43 18 4 23 20 2
38 4 39 5 1 1 0 -5 -3 -13z m-1664 -5 c-8 -5 -19 -10 -25 -10 -5 0 -3 5 5 10
8 5 20 10 25 10 6 0 3 -5 -5 -10z m275 0 c3 -5 1 -10 -4 -10 -6 0 -11 5 -11
10 0 6 2 10 4 10 3 0 8 -4 11 -10z m704 -6 c-13 -16 -12 -17 9 -12 15 4 22 3
19 -5 -3 -7 -10 -11 -16 -9 -6 1 -11 -2 -11 -8 0 -5 -5 -10 -11 -10 -5 0 -7 4
-4 10 4 6 -6 7 -25 4 -19 -4 -30 -3 -28 4 2 5 -1 10 -7 11 -5 1 -10 -5 -10
-11 0 -16 -35 -52 -43 -44 -3 4 3 13 14 20 15 11 16 17 7 27 -19 20 5 34 65
37 51 2 54 1 41 -14z m401 6 c-19 -4 -48 -10 -65 -14 l-30 -8 25 15 c14 8 43
15 65 15 l40 0 -35 -8z m368 -5 c-2 -2 -16 -5 -33 -6 -16 -2 -33 -8 -37 -14
-5 -6 -8 -3 -8 6 0 23 5 26 45 21 20 -2 35 -6 33 -7z m-1418 -5 c0 -5 -5 -10
-11 -10 -5 0 -7 5 -4 10 3 6 8 10 11 10 2 0 4 -4 4 -10z m1247 4 c-3 -3 -12
-4 -19 -1 -8 3 -5 6 6 6 11 1 17 -2 13 -5z m217 -49 c8 -25 11 -43 6 -40 -5 3
-11 1 -15 -5 -3 -5 -11 -10 -16 -10 -6 0 -4 7 5 15 13 13 13 19 0 43 -7 15
-14 33 -14 40 0 25 18 2 34 -43z m136 45 c0 -5 12 -10 27 -10 17 0 24 -3 17
-10 -12 -12 -51 -2 -58 16 -3 8 -1 14 4 14 6 0 10 -4 10 -10z m90 0 c13 -8 13
-10 -2 -10 -9 0 -20 5 -23 10 -8 13 5 13 25 0z m-2067 -37 c8 -13 40 -6 32 7
-11 17 24 32 52 22 22 -8 24 -11 8 -11 -15 -1 -17 -3 -6 -10 23 -15 3 -30 -32
-24 -22 3 -39 0 -48 -10 -20 -20 -43 -2 -46 36 -2 26 0 27 15 15 9 -7 20 -18
25 -25z m1887 21 c0 -2 -9 -4 -20 -4 -11 0 -20 4 -20 9 0 5 9 7 20 4 11 -3 20
-7 20 -9z m-287 -1 c-7 -2 -19 -2 -25 0 -7 3 -2 5 12 5 14 0 19 -2 13 -5z m90
0 c-7 -2 -19 -2 -25 0 -7 3 -2 5 12 5 14 0 19 -2 13 -5z m-1750 -14 c7 0 3 -4
-8 -8 -22 -9 -35 -5 -35 11 0 5 7 7 16 4 9 -3 21 -6 27 -7z m197 -10 c0 -5 -7
-9 -15 -9 -9 0 -12 6 -9 15 6 15 24 11 24 -6z m518 -19 c-2 -22 -7 -38 -13
-36 -5 2 -9 9 -7 15 1 6 -2 11 -8 11 -5 0 -10 -5 -10 -11 0 -6 -9 -8 -22 -4
-17 6 -20 4 -12 -4 6 -7 26 -13 45 -14 26 -2 34 2 34 15 0 9 4 20 8 24 4 4 7
2 7 -4 0 -7 6 -12 13 -12 8 0 14 -7 14 -15 0 -8 -4 -12 -9 -9 -4 3 -8 0 -8 -6
0 -6 -5 -8 -12 -4 -7 4 -8 3 -4 -4 4 -7 15 -12 24 -12 12 0 13 -3 4 -12 -8 -8
-15 -8 -27 2 -12 10 -15 10 -15 -1 -1 -10 -4 -8 -11 4 -12 21 -31 23 -23 2 4
-8 1 -15 -5 -15 -6 0 -11 5 -11 11 0 8 -4 8 -12 2 -7 -5 -24 -6 -38 -2 -14 4
-19 7 -12 8 6 1 12 8 12 17 0 10 -6 14 -15 10 -8 -3 -15 -1 -15 4 0 6 7 10 15
10 7 0 18 6 22 14 7 12 30 20 75 25 4 1 5 8 2 16 -4 8 -1 15 5 15 7 0 10 -15
9 -40z m856 25 c4 -13 -7 -15 -77 -13 l-82 2 70 6 c57 5 64 7 35 11 l-35 6 41
1 c29 2 44 -3 48 -13z m-668 -11 c-4 -10 4 -19 27 -30 l32 -14 -30 2 c-32 3
-56 18 -48 31 2 4 -2 7 -9 8 -7 0 -4 4 7 9 28 12 28 12 21 -6z m444 4 c0 -6
-11 -8 -25 -6 -14 3 -25 1 -25 -3 0 -30 -91 -71 -97 -44 -2 6 5 10 15 10 30 1
62 16 72 34 10 19 60 26 60 9z m260 2 c0 -5 -4 -10 -10 -10 -5 0 -10 5 -10 10
0 6 5 10 10 10 6 0 10 -4 10 -10z m326 -16 c-3 -7 -1 -15 5 -18 5 -2 4 -3 -2
-2 -7 1 -16 12 -20 24 -6 16 -5 20 7 15 8 -3 13 -11 10 -19z m-1376 12 c0 -3
-4 -8 -10 -11 -5 -3 -10 -1 -10 4 0 6 5 11 10 11 6 0 10 -2 10 -4z m70 -6
c-19 -13 -30 -13 -30 0 0 6 10 10 23 10 18 0 19 -2 7 -10z m320 -12 c0 -13
-23 -5 -28 10 -2 7 2 10 12 6 9 -3 16 -11 16 -16z m318 7 c3 -3 -1 -6 -9 -6
-8 -1 -25 -3 -39 -4 -29 -3 -43 3 -35 16 6 9 73 4 83 -6z m395 8 c-7 -2 -19
-2 -25 0 -7 3 -2 5 12 5 14 0 19 -2 13 -5z m414 1 c-3 -3 -12 -4 -19 -1 -8 3
-5 6 6 6 11 1 17 -2 13 -5z m-1213 -19 c4 -10 -1 -15 -16 -15 -17 0 -18 2 -8
15 7 8 14 15 15 15 2 0 5 -7 9 -15z m256 4 c0 -5 -4 -8 -9 -5 -5 3 -11 -1 -15
-9 -4 -10 1 -15 14 -15 11 0 20 -5 20 -10 0 -13 -32 -9 -42 5 -5 6 -8 5 -8 -3
0 -10 -5 -10 -22 2 -23 16 -66 12 -81 -8 -5 -7 -7 -3 -5 8 4 23 60 46 66 27 2
-6 8 -9 13 -5 5 3 9 0 9 -5 0 -19 18 -12 25 9 7 21 35 28 35 9z m-1099 -16
c13 -17 13 -17 -6 -3 -11 8 -22 16 -24 17 -2 2 0 3 6 3 6 0 17 -8 24 -17z
m1337 6 c-12 -7 -24 -7 -35 0 -15 9 -12 10 17 10 29 0 32 -1 18 -10z m170 4
c-15 -2 -42 -2 -60 0 -18 2 -6 4 27 4 33 0 48 -2 33 -4z m305 0 c-29 -2 -77
-2 -105 0 -29 2 -6 3 52 3 58 0 81 -1 53 -3z m-653 -13 c0 -5 -2 -10 -4 -10
-3 0 -8 5 -11 10 -3 6 -1 10 4 10 6 0 11 -4 11 -10z m963 3 c-7 -2 -19 -2 -25
0 -7 3 -2 5 12 5 14 0 19 -2 13 -5z m-1927 -17 c19 -19 -2 -27 -34 -13 -17 8
-19 13 -10 19 18 11 27 10 44 -6z m1079 4 c3 -5 1 -10 -4 -10 -6 0 -11 5 -11
10 0 6 2 10 4 10 3 0 8 -4 11 -10z m-405 -11 c12 -8 9 -9 -10 -4 -17 4 -21 3
-11 -3 7 -5 10 -15 6 -22 -5 -8 0 -7 14 2 12 7 21 17 21 23 0 5 5 3 10 -5 5
-8 10 -10 10 -4 0 6 6 11 14 11 11 0 12 -4 3 -19 -7 -10 -22 -18 -35 -18 -13
0 -21 -4 -18 -9 3 -5 -1 -11 -9 -15 -8 -3 -17 -1 -20 5 -4 5 -11 6 -17 3 -8
-5 -9 -1 -5 10 6 14 3 17 -9 12 -8 -3 -20 -6 -26 -6 -6 0 -5 -6 2 -15 7 -9 10
-18 6 -22 -3 -3 -6 -1 -6 5 0 7 -9 12 -21 12 -18 0 -19 2 -5 15 8 9 19 16 23
17 4 0 19 9 32 19 27 22 31 22 51 8z m441 -16 c-12 -20 -14 -14 -5 12 4 9 9
14 11 11 3 -2 0 -13 -6 -23z m613 18 c3 -5 -1 -11 -9 -14 -9 -4 -12 -1 -8 9 6
16 10 17 17 5z m66 -22 c0 -5 -5 -9 -11 -9 -5 0 -7 5 -4 10 3 6 1 10 -4 10 -6
0 -11 5 -11 11 0 8 5 8 15 -1 8 -7 15 -16 15 -21z m-967 14 c-7 -2 -13 -11
-13 -19 0 -8 -4 -14 -10 -14 -12 0 -12 3 -4 24 3 9 14 16 23 15 10 0 11 -2 4
-6z m-923 -23 c-19 -12 -30 -12 -30 -1 0 10 31 20 40 14 2 -2 -2 -8 -10 -13z
m1111 10 c16 0 29 -4 29 -10 0 -5 -7 -6 -17 -3 -11 4 -14 3 -9 -5 4 -7 1 -12
-9 -12 -9 0 -13 -4 -10 -10 3 -5 1 -10 -4 -10 -6 0 -11 4 -11 9 0 5 -8 8 -17
6 -10 -1 -12 0 -5 2 6 3 12 8 12 12 0 4 -6 13 -12 20 -11 11 -10 13 5 7 10 -3
32 -6 48 -6z m-1061 -28 c0 -4 -9 -8 -20 -9 -22 -2 -27 13 -7 20 14 5 27 -1
27 -11z m1202 -37 c3 4 9 2 13 -4 7 -12 -14 -14 -40 -5 -13 5 -14 8 -3 15 9 6
10 9 1 9 -8 0 -10 7 -6 17 6 14 9 13 18 -10 6 -15 14 -25 17 -22z m654 20 c2
-21 0 -22 -13 -10 -8 8 -11 19 -8 25 11 17 20 11 21 -15z m-1899 -12 c-8 -7
-37 9 -31 19 3 5 12 4 20 -3 8 -6 13 -14 11 -16z m1006 20 c-7 -2 -19 -2 -25
0 -7 3 -2 5 12 5 14 0 19 -2 13 -5z m166 -2 c2 -1 -9 -11 -24 -23 -20 -15 -30
-18 -33 -10 -2 7 -9 9 -14 6 -7 -5 -8 -2 -4 5 5 7 14 10 22 7 8 -3 11 0 8 8
-4 11 14 14 45 7z m-588 -21 c13 -10 19 -19 12 -20 -6 0 -15 5 -18 10 -3 6
-11 10 -17 10 -7 0 -6 -6 2 -15 7 -9 8 -15 2 -15 -5 0 -13 7 -16 16 -15 39 -1
45 35 14z m699 10 c0 -5 -4 -10 -9 -10 -6 0 -13 5 -16 10 -3 6 1 10 9 10 9 0
16 -4 16 -10z m-480 -16 c-12 -14 -3 -24 22 -24 10 0 18 -7 18 -15 0 -14 -3
-14 -30 0 -37 19 -41 20 -50 5 -5 -8 -12 -7 -24 5 -9 9 -13 22 -9 28 5 8 8 8
11 -1 3 -9 7 -9 16 1 17 16 59 18 46 1z m194 -16 c-8 -13 -24 -9 -42 9 -16 16
-16 16 6 11 13 -4 22 -2 22 5 0 7 4 6 9 -3 6 -8 7 -18 5 -22z m237 -8 c11 0
17 -4 14 -10 -3 -5 -19 -7 -35 -3 -19 3 -30 1 -30 -6 0 -6 11 -11 25 -11 14 0
25 -3 25 -6 0 -12 -63 -64 -69 -58 -3 4 -1 9 5 11 17 6 4 43 -15 43 -9 0 -12
-3 -6 -8 16 -11 12 -36 -6 -40 -8 -1 -26 6 -39 18 l-23 20 26 0 c28 0 32 6 18
29 -6 10 -10 10 -16 1 -6 -9 -10 -9 -16 1 -13 22 -11 28 10 22 10 -3 28 0 39
6 15 8 22 8 25 -2 4 -9 7 -9 18 1 10 9 10 12 0 12 -7 0 -9 5 -6 11 5 6 13 3
22 -10 8 -12 23 -21 34 -21z m-711 14 c0 -2 -7 -4 -15 -4 -8 0 -15 4 -15 10 0
5 7 7 15 4 8 -4 15 -8 15 -10z m144 9 c-5 -5 -12 -12 -16 -18 -4 -6 -8 -2 -8
8 0 9 7 17 17 17 9 0 12 -3 7 -7z m-424 -13 c0 -5 -5 -10 -11 -10 -5 0 -7 5
-4 10 3 6 8 10 11 10 2 0 4 -4 4 -10z m644 1 c4 -5 0 -12 -6 -15 -7 -4 -3 -4
10 -2 12 2 20 0 16 -5 -3 -5 -12 -9 -20 -9 -8 0 -14 -5 -14 -11 0 -6 9 -8 20
-4 11 3 20 2 20 -3 0 -6 8 -9 18 -7 9 2 20 4 25 4 4 1 7 8 7 16 0 8 4 15 10
15 5 0 7 -7 4 -15 -4 -10 0 -15 12 -16 18 0 17 -1 -1 -9 -11 -5 -14 -9 -7 -9
6 -1 12 -5 12 -10 0 -5 -8 -8 -17 -7 -10 2 -22 -2 -26 -8 -6 -8 -10 -8 -14 1
-3 9 -11 9 -29 -3 -23 -15 -24 -34 -3 -34 6 0 7 5 4 10 -3 6 3 10 14 10 12 0
21 -5 21 -11 0 -5 -4 -8 -9 -4 -5 3 -12 -4 -16 -15 -8 -27 -16 -25 -49 9 -32
34 -27 54 12 45 l27 -6 -23 17 c-17 12 -22 25 -20 51 2 33 11 43 22 25z m51
-9 c-3 -3 -11 0 -18 7 -9 10 -8 11 6 5 10 -3 15 -9 12 -12z m-465 -2 c0 -6 -7
-13 -15 -16 -8 -4 -15 -14 -15 -23 0 -14 -2 -14 -10 -1 -6 9 -5 17 2 21 6 4 7
12 4 18 -5 7 1 11 13 11 12 0 21 -5 21 -10z m560 6 c0 -2 3 -11 6 -20 4 -11 0
-16 -14 -16 -23 0 -36 15 -27 30 6 10 35 14 35 6z m-850 -25 c0 -5 3 -18 7
-28 6 -16 5 -16 -10 -4 -19 15 -23 41 -7 41 6 0 10 -4 10 -9z m505 -1 c3 -5
-1 -10 -9 -10 -9 0 -16 5 -16 10 0 6 4 10 9 10 6 0 13 -4 16 -10z m255 2 c0
-5 -7 -9 -15 -9 -8 0 -12 4 -9 9 3 4 9 8 15 8 5 0 9 -4 9 -8z m-133 -28 c-3
-4 -14 -3 -24 0 -15 6 -15 8 -3 16 16 10 39 -4 27 -16z m-283 -10 c5 -14 4
-15 -9 -4 -17 14 -19 20 -6 20 5 0 12 -7 15 -16z m326 -4 c0 -19 -18 -19 -23
-1 -3 14 -1 18 9 14 8 -3 14 -9 14 -13z m200 10 c0 -5 -2 -10 -4 -10 -3 0 -8
5 -11 10 -3 6 -1 10 4 10 6 0 11 -4 11 -10z m-560 -4 c0 -3 -4 -8 -10 -11 -5
-3 -10 -1 -10 4 0 6 5 11 10 11 6 0 10 -2 10 -4z m306 -6 c11 0 39 -49 35 -63
-1 -5 3 -6 8 -3 5 3 14 0 20 -7 8 -11 7 -13 -7 -12 -25 1 -43 15 -37 26 4 5 1
9 -4 9 -6 0 -11 -8 -12 -17 -1 -12 -4 -10 -9 7 -4 14 -8 19 -9 13 -2 -21 -28
-15 -34 8 -5 18 -2 20 19 15 13 -4 24 -2 24 3 0 12 -29 23 -41 15 -5 -3 -9 0
-9 7 0 7 9 9 23 5 12 -3 27 -6 33 -6z m-211 -10 c3 -5 1 -10 -4 -10 -6 0 -11
5 -11 10 0 6 2 10 4 10 3 0 8 -4 11 -10z m535 -30 c0 -5 -9 -10 -20 -10 -11 0
-20 5 -20 10 0 6 9 10 20 10 11 0 20 -4 20 -10z m-73 -34 c24 -10 29 2 7 20
-17 14 -16 14 11 0 22 -10 36 -11 49 -4 20 11 40 -7 29 -25 -3 -5 -8 -5 -12 1
-4 7 -12 7 -20 2 -8 -4 -20 -6 -28 -3 -7 3 -13 0 -13 -6 0 -6 -11 -16 -25 -21
-27 -10 -32 -29 -12 -49 9 -11 7 -11 -10 0 -15 9 -21 20 -17 31 4 13 0 18 -13
18 -15 0 -16 -2 -3 -10 13 -9 13 -10 0 -10 -9 0 -26 7 -38 16 -18 13 -26 13
-38 3 -10 -8 -18 -9 -25 -2 -6 6 3 13 26 20 26 8 35 8 36 0 0 -7 7 2 15 18
l15 30 -6 -29 c-6 -26 -4 -28 9 -17 13 11 16 11 16 0 0 -11 2 -11 10 1 6 9 5
17 -3 22 -9 6 -8 10 3 18 11 7 16 5 18 -4 2 -8 10 -17 19 -20z m-227 -46 c0
-5 -2 -10 -4 -10 -3 0 -8 5 -11 10 -3 6 -1 10 4 10 6 0 11 -4 11 -10z m280 1
c0 -5 -7 -11 -15 -15 -9 -3 -15 0 -15 9 0 8 7 15 15 15 8 0 15 -4 15 -9z
m-120 -25 c0 -2 -7 -7 -16 -10 -8 -3 -12 -2 -9 4 6 10 25 14 25 6z m-681 -46
c-6 -5 -18 -6 -26 -3 -19 8 -16 11 13 11 17 0 22 -3 13 -8z m800 -78 c-1 -15
-2 -15 -6 1 -2 9 -9 14 -15 11 -7 -4 -8 -2 -4 5 10 15 26 4 25 -17z m-766 -12
c-20 -23 -20 -23 -29 -8 -4 6 -3 8 3 5 6 -4 13 0 17 8 3 8 10 15 16 15 5 0 2
-9 -7 -20z m214 4 c-3 -3 -12 -4 -19 -1 -8 3 -5 6 6 6 11 1 17 -2 13 -5z m438
-4 c-28 -12 -37 -12 -30 0 3 6 16 10 28 9 21 0 21 -1 2 -9z m90 0 c3 -5 -1
-10 -9 -10 -9 0 -16 5 -16 10 0 6 4 10 9 10 6 0 13 -4 16 -10z m145 -4 c0 -2
-7 -6 -15 -10 -8 -3 -15 -1 -15 4 0 6 7 10 15 10 8 0 15 -2 15 -4z m-719 -15
c-9 -6 -10 -10 -2 -16 7 -4 18 -1 26 5 8 7 26 9 40 6 14 -4 27 -6 30 -6 16 1
65 -33 65 -45 0 -13 -3 -13 -25 1 -13 8 -29 13 -35 9 -17 -11 -11 -23 15 -29
14 -4 25 -11 25 -17 0 -6 -7 -8 -16 -5 -9 3 -21 6 -29 6 -7 0 -15 9 -18 20 -3
12 -14 20 -25 20 -12 0 -23 -9 -27 -20 -3 -11 -12 -20 -18 -20 -6 0 -1 -7 12
-17 18 -12 28 -14 41 -5 18 11 30 -1 30 -29 0 -26 -91 1 -120 36 -11 14 -9 17
19 28 17 6 31 15 31 19 0 13 -34 9 -58 -8 -17 -11 -22 -12 -22 -2 1 18 25 48
39 48 6 0 10 3 10 8 -3 15 1 22 14 22 9 0 8 -3 -2 -9z m629 0 c0 -4 11 -6 25
-3 16 3 25 0 25 -8 0 -7 -7 -10 -16 -6 -8 3 -12 2 -9 -4 3 -6 -1 -10 -9 -10
-8 0 -20 9 -26 20 -7 14 -7 20 0 20 5 0 10 -4 10 -9z m-971 -16 c2 -3 -12 -5
-32 -5 -20 0 -38 4 -42 10 -6 9 64 5 74 -5z m941 5 c8 -5 11 -12 7 -16 -3 -4
-14 -1 -23 7 -16 13 -17 11 -11 -16 3 -16 4 -24 1 -17 -3 6 -12 12 -19 12 -8
0 -11 7 -8 20 6 21 28 26 53 10z m-740 -16 c0 -2 -9 -4 -21 -4 -11 0 -18 4
-14 10 5 8 35 3 35 -6z m790 -26 c0 -6 -6 -8 -14 -5 -8 3 -17 1 -19 -6 -2 -7
-8 -9 -12 -5 -12 11 14 38 31 31 8 -3 14 -10 14 -15z m37 16 c-3 -3 -12 -4
-19 -1 -8 3 -5 6 6 6 11 1 17 -2 13 -5z m-192 -21 c-4 -10 -8 -22 -9 -28 -3
-21 -21 -19 -24 4 -2 15 0 21 7 16 6 -3 14 1 17 9 3 9 8 16 11 16 3 0 2 -8 -2
-17z m-630 -3 c3 -5 1 -10 -4 -10 -6 0 -11 5 -11 10 0 6 2 10 4 10 3 0 8 -4
11 -10z m845 0 c0 -5 -7 -10 -15 -10 -8 0 -15 5 -15 10 0 6 7 10 15 10 8 0 15
-4 15 -10z m-190 -40 c0 -11 -4 -20 -9 -20 -5 0 -11 9 -14 20 -3 13 0 20 9 20
8 0 14 -9 14 -20z m154 -5 c4 -13 2 -14 -14 -5 -23 13 -26 20 -6 20 8 0 16 -7
20 -15z m-239 -25 c-3 -5 1 -10 9 -10 9 0 16 -4 16 -10 0 -5 4 -10 10 -10 5 0
7 8 4 18 -4 10 -3 13 3 6 4 -6 15 -14 23 -17 11 -4 10 -7 -7 -12 -13 -4 -23
-11 -23 -16 0 -5 -4 -9 -10 -9 -5 0 -10 7 -10 15 0 9 -7 18 -15 21 -17 7 -21
34 -4 34 5 0 7 -4 4 -10z m159 -79 c-6 -6 -24 19 -24 34 1 6 7 1 15 -9 8 -11
12 -22 9 -25z m-473 11 c-7 -2 -18 1 -23 6 -8 8 -4 9 13 5 13 -4 18 -8 10 -11z
m-441 -82 c0 -5 -11 -10 -25 -10 -14 0 -25 5 -25 10 0 6 11 10 25 10 14 0 25
-4 25 -10z m155 -120 c17 -7 15 -9 -12 -9 -17 -1 -35 4 -38 9 -7 12 22 12 50
0z m-119 -47 c-24 -47 -77 -96 -62 -58 3 9 6 21 6 26 0 5 7 9 15 9 9 0 12 6 9
15 -4 10 0 15 12 15 9 0 14 3 11 7 -8 7 11 33 24 33 5 0 -2 -21 -15 -47z m52
-55 c18 -25 28 -108 12 -108 -7 0 -10 8 -8 18 4 15 0 18 -28 15 -28 -2 -34 1
-34 17 0 10 6 21 13 23 9 4 9 8 -2 15 -18 13 -7 40 16 39 10 -1 24 -10 31 -19z
m73 -69 c16 -11 27 -25 24 -30 -4 -5 -2 -9 3 -9 5 0 12 -10 15 -22 2 -13 8
-32 12 -42 8 -19 8 -19 -12 0 -11 10 -18 22 -16 27 2 4 -1 7 -6 7 -6 0 -11 -4
-11 -9 0 -5 -8 -8 -17 -6 -10 2 -21 4 -25 4 -5 1 -8 15 -8 31 0 20 5 30 15 30
8 0 15 4 15 10 0 5 -6 7 -13 4 -8 -3 -14 2 -14 11 0 19 3 19 38 -6z m-71 -59
c0 -13 1 -13 11 0 7 11 8 4 3 -25 -3 -22 -10 -44 -15 -49 -4 -5 -6 2 -3 15 l6
24 -21 -23 c-11 -13 -25 -21 -31 -17 -15 9 -13 78 3 73 15 -6 22 -48 8 -48 -6
0 -11 -5 -11 -11 0 -18 27 8 33 31 3 13 -2 25 -15 34 -11 8 -17 19 -14 25 9
14 46 -9 46 -29z m100 -51 c0 -6 -4 -7 -10 -4 -5 3 -10 11 -10 16 0 6 5 7 10
4 6 -3 10 -11 10 -16z m-30 1 c0 -5 -2 -10 -4 -10 -3 0 -8 5 -11 10 -3 6 -1
10 4 10 6 0 11 -4 11 -10z m-122 -77 c-14 -18 -19 -12 -11 16 4 16 8 19 14 10
4 -7 3 -19 -3 -26z"/>
<path d="M1628 5203 c7 -3 16 -2 19 1 4 3 -2 6 -13 5 -11 0 -14 -3 -6 -6z"/>
<path d="M2326 5107 c3 -10 9 -15 12 -12 3 3 0 11 -7 18 -10 9 -11 8 -5 -6z"/>
<path d="M2280 5090 c-8 -5 -12 -12 -9 -15 4 -3 12 1 19 10 14 17 11 19 -10 5z"/>
<path d="M1718 5083 c7 -3 16 -2 19 1 4 3 -2 6 -13 5 -11 0 -14 -3 -6 -6z"/>
<path d="M1960 5031 c0 -5 5 -13 10 -16 6 -3 10 -2 10 4 0 5 -4 13 -10 16 -5
3 -10 2 -10 -4z"/>
<path d="M2560 4980 c-13 -8 -12 -10 3 -10 9 0 17 5 17 10 0 12 -1 12 -20 0z"/>
<path d="M1625 4960 c-3 -5 -1 -10 4 -10 6 0 11 5 11 10 0 6 -2 10 -4 10 -3 0
-8 -4 -11 -10z"/>
<path d="M2770 4756 c0 -2 9 -6 20 -9 11 -3 18 -1 14 4 -5 9 -34 13 -34 5z"/>
<path d="M1895 3890 c3 -5 8 -10 11 -10 2 0 4 5 4 10 0 6 -5 10 -11 10 -5 0
-7 -4 -4 -10z"/>
<path d="M1890 3866 c0 -2 7 -7 16 -10 8 -3 12 -2 9 4 -6 10 -25 14 -25 6z"/>
<path d="M2598 6123 c6 -2 18 -2 25 0 6 3 1 5 -13 5 -14 0 -19 -2 -12 -5z"/>
<path d="M2695 6040 c-3 -5 -1 -10 4 -10 6 0 11 5 11 10 0 6 -2 10 -4 10 -3 0
-8 -4 -11 -10z"/>
<path d="M2770 5989 c0 -5 5 -7 10 -4 6 3 10 8 10 11 0 2 -4 4 -10 4 -5 0 -10
-5 -10 -11z"/>
<path d="M7930 5957 c0 -9 -46 -57 -55 -57 -4 0 -13 -7 -22 -16 -12 -12 -13
-20 -5 -37 6 -12 11 -16 11 -9 1 7 12 17 26 22 14 5 25 15 25 23 0 7 10 19 21
27 54 38 64 61 24 58 -14 -1 -25 -6 -25 -11z"/>
<path d="M2476 5942 c-2 -4 12 -6 32 -4 56 5 62 10 15 11 -23 1 -44 -3 -47 -7z"/>
<path d="M2660 5832 c0 -5 7 -13 16 -16 22 -8 24 -8 24 6 0 6 -3 8 -7 5 -3 -4
-12 -2 -20 4 -8 7 -13 8 -13 1z"/>
<path d="M659 5797 c-50 -33 -71 -80 -67 -152 5 -74 36 -142 81 -172 46 -32
113 -31 161 2 20 14 39 25 41 25 2 0 9 -25 15 -55 14 -66 60 -132 110 -157 46
-24 117 -23 156 1 44 27 85 114 91 193 4 55 1 70 -24 117 -29 56 -56 82 -70
67 -4 -5 -2 -11 5 -13 6 -3 12 -11 12 -19 0 -8 4 -14 9 -14 12 0 31 -56 31
-94 0 -37 -30 -89 -64 -112 -49 -31 -138 1 -186 68 -22 31 -30 52 -30 85 0 54
-18 64 -53 29 -15 -14 -36 -26 -49 -27 -116 -5 -198 45 -198 120 0 45 23 49
65 12 41 -36 43 -36 73 -15 16 11 22 25 22 55 0 34 -5 42 -32 59 -42 26 -57
25 -99 -3z"/>
<path d="M3055 5812 c6 -6 24 -14 40 -18 21 -4 27 -3 20 4 -5 6 -23 14 -40 18
-21 4 -27 3 -20 -4z"/>
<path d="M2760 5800 c-9 -6 -10 -10 -3 -10 6 0 15 5 18 10 8 12 4 12 -15 0z"/>
<path d="M7730 5771 c0 -13 -9 -21 -30 -26 -16 -4 -30 -10 -30 -14 0 -4 -9
-18 -19 -30 -11 -13 -17 -29 -14 -37 7 -18 17 -18 33 1 7 8 21 15 31 15 10 0
21 9 24 20 3 11 13 20 21 20 8 0 13 4 10 9 -3 5 1 11 9 15 8 3 15 15 15 26 0
15 -7 20 -25 20 -18 0 -25 -5 -25 -19z"/>
<path d="M2630 5730 c-18 -12 -2 -12 25 0 13 6 15 9 5 9 -8 0 -22 -4 -30 -9z"/>
<path d="M2601 5664 c0 -11 3 -14 6 -6 3 7 2 16 -1 19 -3 4 -6 -2 -5 -13z"/>
<path d="M7523 5604 c7 -8 -17 -34 -32 -34 -6 0 -11 -4 -11 -10 0 -5 -6 -10
-13 -10 -18 0 -47 -37 -47 -60 0 -24 13 -26 34 -5 8 8 17 15 21 15 4 0 13 7
22 15 8 8 20 12 26 8 7 -3 9 -3 5 1 -7 8 27 46 41 46 5 0 7 9 4 20 -4 13 -14
20 -31 20 -14 0 -23 -3 -19 -6z"/>
<path d="M8289 5477 c-50 -33 -74 -88 -73 -167 2 -145 103 -240 244 -227 66 6
107 24 172 79 74 60 128 88 175 88 46 0 73 -25 73 -67 0 -31 -15 -36 -49 -18
-39 20 -64 19 -84 -3 -58 -64 31 -149 113 -107 111 57 48 286 -86 311 -46 8
-97 -7 -158 -48 -150 -102 -145 -100 -220 -96 -64 4 -71 6 -97 38 -34 40 -38
92 -13 146 20 42 78 64 119 46 25 -12 34 -45 15 -57 -18 -11 -12 -73 9 -85 53
-28 107 9 98 67 -13 76 -71 123 -153 123 -36 0 -61 -6 -85 -23z"/>
<path d="M5900 5470 c0 -5 -7 -10 -16 -10 -8 0 -12 -4 -9 -10 6 -9 -8 -14 -27
-11 -5 0 -8 -10 -8 -24 0 -16 6 -25 16 -25 8 0 12 -4 9 -10 -3 -5 0 -10 8 -10
8 0 43 -27 78 -59 101 -94 109 -101 119 -101 6 0 10 -5 10 -12 0 -10 66 -78
77 -78 2 0 28 -25 58 -55 29 -30 57 -55 61 -55 11 0 74 -68 74 -80 0 -5 -7
-10 -15 -10 -8 0 -15 -3 -15 -7 0 -5 -18 -17 -40 -27 -22 -10 -47 -27 -56 -38
-10 -10 -24 -18 -33 -18 -9 0 -27 -14 -40 -30 -13 -17 -29 -30 -37 -30 -7 0
-24 -11 -38 -25 -14 -14 -29 -25 -33 -25 -5 0 -30 -20 -57 -45 -27 -25 -55
-45 -62 -45 -7 0 -15 -9 -19 -19 -3 -11 -15 -23 -26 -26 -10 -4 -19 -11 -19
-16 0 -5 -7 -9 -16 -9 -8 0 -12 -4 -9 -10 3 -5 -3 -10 -14 -10 -12 0 -21 5
-21 10 0 6 -12 10 -26 10 -14 0 -23 4 -20 9 4 5 -12 12 -34 16 -22 4 -38 11
-34 16 3 5 -4 9 -15 9 -12 0 -21 5 -21 10 0 15 -49 12 -66 -4 -17 -18 -17 -24
-1 -40 6 -8 19 -23 27 -35 8 -11 20 -21 27 -21 7 0 13 -4 13 -10 0 -8 26 -36
65 -68 22 -18 19 -42 -5 -42 -12 0 -32 -11 -46 -25 -14 -14 -36 -28 -49 -31
-14 -3 -25 -10 -25 -15 0 -5 -9 -9 -20 -9 -14 0 -20 -7 -20 -24 0 -18 5 -23
18 -21 9 2 25 4 35 4 10 1 15 6 12 11 -3 6 1 10 10 10 9 0 25 9 37 20 12 11
30 20 40 20 10 0 18 7 18 15 0 23 43 13 57 -14 7 -13 13 -34 13 -47 0 -13 5
-24 10 -24 6 0 10 -13 10 -30 0 -16 4 -30 10 -30 5 0 12 -11 16 -25 5 -19 13
-25 34 -25 l28 0 8 123 9 122 28 3 c15 2 27 8 27 13 0 5 9 9 20 9 11 0 20 4
20 10 0 5 16 12 35 16 19 3 35 10 35 15 0 5 6 9 13 9 6 0 23 9 37 20 14 11 32
20 41 20 8 0 25 9 37 20 12 11 28 20 37 20 8 0 15 4 15 9 0 5 14 12 30 16 17
4 30 11 30 16 0 5 7 9 15 9 8 0 15 5 15 10 0 6 9 10 19 10 11 0 26 7 35 15 8
8 19 15 25 15 6 0 11 4 11 8 0 9 44 32 60 32 6 0 10 -13 10 -30 0 -16 5 -30
10 -30 6 0 10 -14 10 -31 0 -17 4 -28 10 -24 6 4 10 -7 10 -24 0 -17 4 -31 9
-31 5 0 11 -19 13 -42 5 -40 29 -120 50 -161 5 -10 12 -41 15 -68 3 -26 10
-46 14 -43 5 3 9 -9 9 -26 0 -17 4 -29 9 -26 5 3 12 -20 16 -51 4 -31 14 -63
22 -72 14 -13 17 -13 33 7 10 12 23 22 30 22 27 0 40 29 39 92 0 44 -3 57 -9
43 -6 -14 -9 4 -9 56 -1 72 0 76 25 87 22 11 25 17 22 55 -2 35 -7 43 -25 45
-21 3 -23 9 -23 58 0 41 4 54 15 54 8 0 15 7 15 15 0 8 5 15 10 15 6 0 10 8
10 18 0 13 -2 14 -9 4 -6 -10 -10 -4 -14 18 -4 17 -11 29 -16 25 -20 -12 -31
36 -31 129 0 71 3 96 13 96 7 0 19 9 27 20 8 11 20 20 28 20 7 0 20 7 28 15 9
8 24 15 34 15 10 0 22 9 25 20 3 11 15 20 26 20 10 0 19 3 19 8 0 4 15 14 33
21 38 17 162 139 171 169 4 12 12 22 17 22 5 0 9 20 9 45 0 32 4 45 14 45 7 0
31 16 52 35 21 19 42 35 47 35 14 0 35 25 39 46 5 28 -27 28 -56 0 -14 -15
-30 -26 -36 -26 -5 0 -10 -4 -10 -10 0 -5 -11 -12 -24 -16 -13 -3 -26 -14 -29
-23 -4 -16 -10 -17 -54 -8 -41 9 -60 7 -120 -11 -39 -12 -78 -22 -87 -22 -9 0
-16 -4 -16 -10 0 -5 -9 -10 -21 -10 -11 0 -17 -4 -14 -10 3 -6 -5 -10 -19 -10
-24 0 -56 -23 -56 -41 0 -5 -11 -9 -25 -9 -14 0 -25 -4 -25 -10 0 -5 -7 -10
-15 -10 -8 0 -15 -4 -15 -10 0 -5 -7 -10 -16 -10 -9 0 -25 -11 -36 -25 -23
-29 -77 -34 -102 -10 -8 8 -18 15 -21 15 -4 0 -19 9 -34 19 -14 10 -37 21 -51
22 -21 3 -26 10 -28 43 -2 21 -9 45 -17 52 -16 16 -71 19 -80 4 -8 -13 -45
-13 -45 -1 0 5 -10 11 -22 13 -19 2 -22 8 -20 31 3 22 -1 30 -17 34 -11 3 -18
9 -15 14 3 5 -3 10 -13 10 -33 2 -58 -3 -61 -12 -5 -12 -32 -11 -32 1 0 6 -9
10 -21 10 -11 0 -17 5 -14 10 3 6 -3 10 -15 10 -12 0 -19 4 -16 9 3 5 -10 12
-30 16 -20 3 -33 9 -30 12 9 9 -43 33 -70 33 -13 0 -24 -4 -24 -10z"/>
<path d="M2633 5435 c-8 -22 6 -33 17 -15 13 20 12 30 0 30 -6 0 -13 -7 -17
-15z"/>
<path d="M2660 5365 c0 -18 5 -25 20 -25 22 0 26 20 8 38 -19 19 -28 14 -28
-13z"/>
<path d="M2194 5323 c5 -15 3 -23 -4 -23 -6 0 -8 -4 -5 -10 9 -15 32 -12 38 4
3 8 -4 22 -15 33 -20 18 -21 18 -14 -4z"/>
<path d="M525 5311 c-12 -20 6 -70 32 -91 19 -14 41 -20 80 -20 82 0 334 -57
347 -79 3 -4 -70 -28 -162 -54 -117 -33 -185 -47 -229 -47 -68 0 -82 -10 -60
-43 8 -12 19 -38 26 -58 14 -43 31 -51 140 -68 114 -18 282 -77 353 -125 80
-54 108 -94 108 -157 0 -41 -4 -51 -31 -73 -33 -28 -62 -32 -104 -16 -25 10
-26 12 -19 69 6 53 4 60 -14 70 -27 15 -75 14 -90 -1 -16 -16 -15 -93 2 -126
29 -55 62 -76 129 -80 53 -3 67 0 97 20 71 49 101 155 66 239 -18 44 -77 104
-124 128 -43 22 -182 64 -267 82 l-60 12 215 61 c118 34 221 65 228 69 19 13
14 41 -10 56 -62 39 -271 126 -464 192 -134 45 -179 55 -189 40z"/>
<path d="M1418 5286 c-24 -18 -23 -23 7 -28 13 -3 22 -2 20 3 -3 4 -1 10 5 14
14 9 13 25 -2 25 -7 0 -21 -7 -30 -14z"/>
<path d="M2226 5282 c-2 -4 -1 -14 4 -21 6 -11 13 -11 38 2 21 10 32 11 35 4
2 -6 6 -3 10 6 5 14 0 17 -38 17 -24 0 -46 -4 -49 -8z"/>
<path d="M2475 5270 c-4 -6 9 -10 31 -10 42 0 42 4 2 14 -15 3 -30 2 -33 -4z"/>
<path d="M2266 5234 c-4 -10 -1 -14 6 -12 15 5 23 28 10 28 -5 0 -13 -7 -16
-16z"/>
<path d="M2670 5100 c0 -5 5 -10 10 -10 6 0 10 5 10 10 0 6 -4 10 -10 10 -5 0
-10 -4 -10 -10z"/>
<path d="M1875 4920 c3 -5 8 -10 11 -10 2 0 4 5 4 10 0 6 -5 10 -11 10 -5 0
-7 -4 -4 -10z"/>
<path d="M2958 4863 c12 -2 32 -2 45 0 12 2 2 4 -23 4 -25 0 -35 -2 -22 -4z"/>
<path d="M3188 4863 c6 -2 18 -2 25 0 6 3 1 5 -13 5 -14 0 -19 -2 -12 -5z"/>
<path d="M3205 4841 c-3 -5 -1 -12 5 -16 12 -7 30 2 30 16 0 12 -27 12 -35 0z"/>
<path d="M1894 4649 c-3 -6 0 -15 7 -20 22 -14 36 -10 16 5 -14 11 -15 15 -5
19 9 4 9 6 1 6 -6 1 -15 -4 -19 -10z"/>
<path d="M2840 4650 c0 -12 26 -19 39 -10 9 5 4 9 -13 12 -14 3 -26 2 -26 -2z"/>
<path d="M2970 4479 c0 -5 5 -7 10 -4 6 3 10 8 10 11 0 2 -4 4 -10 4 -5 0 -10
-5 -10 -11z"/>
<path d="M2780 4470 c-9 -6 -10 -10 -3 -10 6 0 15 5 18 10 8 12 4 12 -15 0z"/>
<path d="M1930 4357 c0 -7 9 -18 20 -25 18 -11 19 -10 8 13 -12 26 -28 34 -28
12z"/>
<path d="M2930 4293 c0 -15 2 -15 9 -4 8 13 12 13 28 0 16 -13 17 -13 4 4 -7
9 -20 17 -27 17 -8 0 -14 -8 -14 -17z"/>
<path d="M1992 4260 c0 -14 2 -19 5 -12 2 6 2 18 0 25 -3 6 -5 1 -5 -13z"/>
<path d="M2810 4263 c0 -14 28 -49 34 -42 3 3 -3 16 -14 29 -11 13 -20 19 -20
13z"/>
<path d="M5460 4263 c0 -7 -8 -13 -18 -13 -11 0 -27 -9 -37 -20 -10 -11 -26
-20 -35 -20 -10 0 -28 -8 -41 -19 -20 -16 -22 -21 -10 -35 10 -12 17 -14 25
-6 5 5 18 10 28 10 10 0 27 9 38 20 11 11 31 22 45 26 14 3 25 13 25 23 0 19
-20 53 -20 34z"/>
<path d="M2092 4215 c0 -16 2 -22 5 -12 2 9 2 23 0 30 -3 6 -5 -1 -5 -18z"/>
<path d="M2169 4218 c12 -31 -1 -104 -18 -100 -9 2 -12 -4 -8 -18 4 -17 2 -20
-10 -16 -14 6 -14 4 -2 -10 12 -14 14 -14 24 0 7 9 15 12 21 6 6 -6 15 -6 24
0 13 8 12 10 -2 10 -24 0 -23 17 2 30 23 12 18 32 -5 23 -8 -3 -15 0 -15 6 0
6 4 11 9 11 6 0 9 9 8 20 -1 11 -5 20 -9 20 -4 0 -8 6 -8 14 0 8 -4 18 -10 21
-6 4 -7 -2 -1 -17z"/>
<path d="M1995 4180 c3 -5 8 -10 11 -10 2 0 4 5 4 10 0 6 -5 10 -11 10 -5 0
-7 -4 -4 -10z"/>
<path d="M5210 4130 c12 -8 9 -10 -12 -10 -16 0 -28 -4 -28 -9 0 -5 -14 -13
-32 -16 -38 -9 -87 -53 -69 -64 15 -10 71 -1 71 10 0 5 12 9 28 9 21 0 24 2
12 10 -11 7 -6 10 20 10 26 0 31 3 20 10 -13 8 -12 10 2 10 13 0 17 7 16 25
-2 18 -8 25 -23 25 -16 0 -17 -2 -5 -10z"/>
<path d="M2899 4116 c28 -16 50 -52 51 -83 0 -13 5 -23 10 -23 14 0 12 25 -5
67 -18 41 -30 53 -60 52 -18 0 -18 -1 4 -13z"/>
<path d="M2200 4103 c8 -3 19 -11 23 -17 6 -7 7 -6 4 4 -2 8 -12 16 -23 17
-13 2 -15 1 -4 -4z"/>
<path d="M1975 4060 c3 -5 8 -10 11 -10 2 0 4 5 4 10 0 6 -5 10 -11 10 -5 0
-7 -4 -4 -10z"/>
<path d="M2168 4039 c-6 -19 3 -59 13 -59 11 0 11 41 0 59 -7 11 -9 11 -13 0z"/>
<path d="M4950 4000 c0 -5 -7 -10 -15 -10 -8 0 -15 -4 -15 -9 0 -5 -16 -12
-35 -15 -19 -4 -35 -11 -35 -16 0 -6 -7 -10 -16 -10 -18 0 -44 -23 -44 -39 0
-20 56 -16 77 5 8 8 26 14 39 14 14 0 22 4 19 10 -3 6 3 10 15 10 12 0 18 5
15 10 -3 6 3 10 14 10 16 0 21 6 21 25 0 18 -5 25 -20 25 -11 0 -20 -4 -20
-10z"/>
<path d="M1440 3934 c-14 -13 -35 -35 -48 -47 -33 -31 -42 -51 -31 -68 6 -10
9 -10 9 -1 0 6 5 12 10 12 16 0 110 99 110 115 0 22 -22 17 -50 -11z"/>
<path d="M4675 3861 c-3 -6 -15 -11 -26 -11 -10 0 -19 -4 -19 -10 0 -5 -9 -10
-20 -10 -11 0 -20 -4 -20 -10 0 -5 -5 -10 -11 -10 -6 0 -18 -8 -27 -17 -16
-15 -13 -16 38 -10 30 4 56 11 58 17 2 5 10 10 18 10 8 0 14 5 14 10 0 6 9 10
21 10 14 0 19 5 17 17 -4 20 -33 29 -43 14z"/>
<path d="M2129 3823 c6 -13 8 -23 4 -23 -4 0 -2 -5 5 -12 17 -17 15 -28 -5
-22 -15 5 -15 4 -3 -4 8 -6 18 -8 22 -6 4 3 8 0 8 -6 0 -6 5 -8 11 -4 8 4 7 9
-2 16 -11 7 -11 11 -1 15 6 2 12 9 12 15 0 7 -5 6 -14 -1 -9 -7 -17 -8 -20 -2
-3 5 -2 11 2 13 5 1 0 12 -11 23 -20 20 -20 20 -8 -2z"/>
<path d="M1744 3795 c4 -17 2 -25 -6 -26 -7 0 -3 -4 10 -9 12 -5 22 -13 23
-17 0 -4 2 -16 4 -26 2 -9 0 -15 -5 -12 -4 3 -10 -2 -14 -10 -7 -18 -38 -20
-35 -2 3 28 -2 58 -9 53 -5 -3 -7 -19 -4 -36 3 -22 12 -34 29 -41 23 -9 23 -9
7 -41 -9 -18 -20 -35 -23 -38 -9 -7 -41 -58 -41 -65 0 -13 22 -2 43 21 12 15
33 37 47 50 13 13 21 26 17 30 -4 4 1 13 11 21 15 13 15 13 -8 7 -22 -6 -23
-5 -11 9 7 9 18 14 25 10 6 -3 8 -3 4 2 -4 4 -2 15 4 23 10 11 9 17 -6 27 -10
8 -15 19 -11 24 3 6 -1 18 -9 27 -12 12 -16 12 -16 2 0 -8 -5 -5 -11 6 -9 14
-8 20 2 27 11 7 10 9 -5 9 -14 0 -17 -5 -12 -25z"/>
<path d="M1243 3735 c-13 -13 -23 -28 -23 -32 0 -5 -9 -15 -20 -23 -11 -8 -20
-20 -20 -28 0 -7 -4 -10 -10 -7 -5 3 -10 -3 -10 -14 0 -15 6 -21 21 -21 11 0
17 5 14 10 -3 6 1 10 9 10 9 0 16 7 16 15 0 9 16 31 35 51 35 35 46 65 23 63
-7 0 -23 -11 -35 -24z"/>
<path d="M1807 3754 c-8 -8 1 -24 12 -24 4 0 8 7 8 15 0 16 -9 20 -20 9z"/>
<path d="M4388 3727 c-7 -8 -24 -17 -38 -20 -60 -16 -66 -49 -8 -38 37 7 118
50 118 63 0 13 -57 9 -72 -5z"/>
<path d="M4190 3640 c0 -5 -12 -10 -26 -10 -14 0 -23 -4 -20 -9 3 -5 -11 -12
-31 -16 -48 -9 -70 -30 -52 -51 8 -10 15 -12 23 -4 5 5 18 10 28 10 10 0 18 5
18 10 0 6 9 10 21 10 11 0 17 5 14 10 -4 6 5 10 19 10 21 0 26 5 26 25 0 14
-4 25 -10 25 -5 0 -10 -4 -10 -10z"/>
<path d="M1063 3510 c-13 -15 -23 -33 -23 -39 0 -6 -4 -11 -10 -11 -5 0 -10
-7 -10 -15 0 -8 -4 -15 -10 -15 -5 0 -10 -7 -10 -15 0 -8 9 -15 20 -15 11 0
20 5 20 11 0 6 10 25 23 42 22 31 47 75 47 83 0 14 -29 -2 -47 -26z"/>
<path d="M3920 3527 c-14 -6 -27 -14 -30 -18 -3 -4 -21 -10 -40 -14 -58 -13
-69 -45 -14 -45 21 0 33 4 29 10 -3 6 3 10 14 10 12 0 21 5 21 10 0 6 14 10
30 10 20 0 30 5 30 15 0 8 0 18 1 22 1 12 -15 12 -41 0z"/>
<path d="M3665 3423 c-11 -3 -24 -9 -29 -14 -6 -5 -18 -9 -28 -9 -10 0 -18 -4
-18 -10 0 -5 -9 -10 -20 -10 -11 0 -20 -6 -20 -14 0 -19 23 -33 28 -18 2 7 19
12 38 12 19 0 34 5 34 10 0 6 8 10 18 10 18 0 52 29 52 43 0 8 -24 7 -55 0z"/>
<path d="M3420 3330 c0 -5 -9 -10 -20 -10 -11 0 -20 -4 -20 -9 0 -5 -18 -12
-40 -16 -30 -5 -40 -11 -40 -26 0 -15 7 -19 31 -19 17 0 28 4 24 10 -4 6 7 10
25 10 18 0 29 4 25 10 -3 6 3 10 14 10 33 0 51 11 51 31 0 14 -7 19 -25 19
-14 0 -25 -4 -25 -10z"/>
<path d="M955 3310 c3 -5 -1 -10 -9 -10 -10 0 -16 -9 -16 -25 0 -14 -4 -25
-10 -25 -5 0 -10 -20 -10 -44 0 -25 5 -48 10 -51 6 -3 10 1 10 9 0 9 5 16 10
16 6 0 10 16 10 36 0 21 4 33 10 29 6 -4 10 10 10 34 0 23 -5 41 -11 41 -5 0
-7 -4 -4 -10z"/>
<path d="M3150 3234 c-19 -9 -43 -20 -52 -25 -10 -5 -25 -9 -33 -9 -8 0 -15
-9 -15 -20 0 -13 7 -20 20 -20 11 0 20 5 20 10 0 6 12 10 28 10 38 1 96 31
100 53 4 22 -21 22 -68 1z"/>
<path d="M2910 3150 c0 -5 -14 -10 -31 -10 -17 0 -28 -4 -24 -10 4 -6 -7 -10
-24 -10 -26 0 -31 -4 -31 -25 0 -16 6 -25 16 -25 8 0 12 5 9 10 -4 6 7 10 25
10 18 0 29 4 25 10 -3 6 4 10 17 10 43 0 68 12 68 31 0 14 -7 19 -25 19 -14 0
-25 -4 -25 -10z"/>
<path d="M910 3040 c0 -16 5 -30 10 -30 6 0 10 -5 10 -10 0 -6 11 -22 25 -35
24 -25 41 -33 30 -15 -3 6 -1 10 4 10 6 0 11 7 11 16 0 8 -5 12 -10 9 -6 -4
-13 7 -16 24 -4 17 -10 28 -15 25 -5 -3 -9 4 -9 15 0 14 -6 21 -20 21 -16 0
-20 -7 -20 -30z"/>
<path d="M2595 3063 c-38 -8 -63 -25 -61 -42 4 -22 40 -26 78 -7 17 9 37 16
43 16 7 0 23 9 36 20 l24 19 -50 0 c-27 -1 -59 -3 -70 -6z"/>
<path d="M2357 3003 c-26 -2 -45 -8 -42 -14 4 -5 1 -9 -5 -9 -12 0 -40 -24
-40 -34 0 -3 25 -6 56 -6 34 0 53 4 49 10 -4 6 8 10 30 10 22 0 34 4 30 10 -3
6 1 10 9 10 10 0 13 6 10 15 -4 8 -16 14 -28 13 -11 -1 -42 -3 -69 -5z"/>
<path d="M2170 2950 c11 -7 3 -10 -30 -11 -75 -2 -105 -12 -105 -34 0 -14 6
-20 23 -19 105 3 116 5 102 14 -12 8 -9 10 13 10 22 0 27 4 27 25 0 19 -5 25
-22 25 -19 0 -20 -2 -8 -10z"/>
<path d="M1060 2890 c6 -11 21 -20 35 -20 13 0 27 -4 30 -10 7 -12 75 -14 75
-2 0 5 -12 14 -27 21 -16 8 -36 17 -45 22 -10 5 -31 9 -48 9 -28 0 -30 -2 -20
-20z"/>
<path d="M1836 2883 c-8 -8 -13 -9 -41 -12 -8 0 -15 -5 -15 -11 0 -13 107 -13
115 0 4 6 14 9 22 8 9 -2 18 3 20 10 3 8 -10 12 -44 12 -28 0 -53 -3 -57 -7z"/>
<path d="M1283 2854 c-10 -27 11 -35 82 -32 110 5 95 31 -25 43 -40 4 -52 2
-57 -11z"/>
<path d="M1558 2863 c-20 -3 -28 -10 -28 -24 0 -21 18 -23 106 -13 40 5 51 10
50 23 -2 12 -15 16 -52 17 -27 1 -61 -1 -76 -3z"/>
<path d="M2810 1835 c-139 -32 -253 -113 -310 -220 -82 -155 14 -344 195 -385
58 -13 155 -5 155 14 0 8 -20 11 -70 8 -81 -5 -124 15 -165 76 -113 166 188
454 446 430 57 -6 96 -33 78 -55 -6 -7 -22 -13 -35 -13 -27 0 -70 -36 -79 -67
-8 -29 34 -73 70 -73 108 0 150 137 66 213 -85 76 -214 103 -351 72z"/>
<path d="M6975 1683 c-14 -16 -31 -42 -37 -59 -9 -26 -18 -33 -49 -38 -110
-18 -162 -159 -104 -283 29 -64 67 -90 123 -85 52 5 108 51 123 100 10 36 13
38 46 34 61 -7 109 55 120 158 5 49 3 60 -9 60 -11 0 -17 -15 -21 -52 -8 -61
-28 -88 -55 -72 -23 15 -84 157 -90 211 -2 24 -8 46 -13 48 -4 3 -19 -7 -34
-22z m-47 -155 c31 -34 72 -128 72 -166 0 -75 -41 -94 -90 -40 -53 58 -78 178
-44 212 21 22 37 20 62 -6z"/>
<path d="M6041 1364 c-25 -21 -31 -33 -31 -65 0 -43 27 -79 59 -79 10 0 30 9
45 21 22 17 26 28 26 69 0 39 -4 52 -22 64 -31 22 -41 20 -77 -10z"/>
<path d="M5464 1340 c-143 -37 -282 -128 -323 -210 -41 -81 -33 -166 20 -214
27 -24 38 -27 73 -23 47 7 76 36 76 77 0 31 -23 55 -68 71 -29 10 -32 15 -32
50 0 33 7 46 43 82 39 39 159 107 188 107 7 0 -1 -15 -19 -33 -29 -30 -32 -40
-46 -152 -8 -66 -20 -205 -26 -309 -11 -168 -11 -190 3 -204 15 -14 20 -14 56
3 65 29 68 36 75 180 10 173 10 175 52 175 42 0 61 -27 74 -105 14 -88 28
-122 61 -150 35 -29 90 -33 142 -11 57 23 135 131 112 154 -3 4 -11 -2 -18
-13 -15 -28 -63 -75 -76 -75 -21 0 -50 39 -61 82 -18 72 -49 128 -80 146 -35
20 -37 28 -11 37 35 11 119 110 131 154 21 79 -26 171 -98 191 -56 15 -169 11
-248 -10z m173 -67 c49 -67 10 -221 -67 -267 -57 -33 -64 -25 -57 67 3 45 13
115 22 156 l17 73 37 -6 c20 -3 42 -13 48 -23z"/>
<path d="M6427 1288 c-55 -54 -77 -105 -77 -178 0 -77 59 -150 122 -150 46 0
122 37 160 77 34 36 68 103 71 138 3 45 -18 39 -31 -9 -14 -54 -68 -111 -112
-121 -57 -12 -104 39 -116 128 -8 56 16 117 47 117 18 0 20 -4 15 -26 -11 -41
1 -64 34 -64 58 0 80 62 39 114 -16 20 -29 26 -59 26 -34 0 -47 -7 -93 -52z"/>
<path d="M3098 1271 c-72 -24 -128 -81 -142 -148 -21 -94 113 -183 223 -148
14 4 37 -1 67 -15 50 -25 114 -21 114 6 0 11 -9 13 -37 8 -25 -3 -44 -1 -56 8
-17 12 -14 17 31 64 57 60 69 100 44 154 -24 48 -70 72 -150 76 -37 2 -79 0
-94 -5z m190 -57 c28 -20 28 -41 -3 -86 -23 -33 -28 -36 -60 -31 -43 7 -65 -9
-65 -48 0 -23 -6 -32 -27 -40 -33 -12 -72 -4 -80 16 -15 40 68 144 147 185 43
24 59 24 88 4z"/>
<path d="M3638 1144 c-36 -19 -48 -43 -48 -97 0 -40 -4 -47 -38 -71 -21 -14
-50 -26 -65 -26 -14 0 -35 -10 -47 -22 -61 -66 26 -166 160 -184 48 -6 151 22
179 51 25 25 4 28 -42 6 -67 -33 -79 -28 -52 19 19 33 19 87 0 140 -14 41 -14
44 5 57 64 45 76 89 34 122 -31 25 -49 26 -86 5z m-48 -235 c0 -62 -28 -109
-66 -109 -31 0 -31 20 2 50 17 17 24 33 22 51 -2 26 16 59 33 59 5 0 9 -23 9
-51z"/>
<path d="M6083 1129 c-24 -17 -43 -33 -43 -37 0 -36 33 -209 44 -237 42 -99
165 -55 211 74 19 54 19 61 0 61 -8 0 -15 -8 -15 -17 0 -31 -38 -83 -60 -83
-28 0 -39 33 -46 138 -9 149 -15 155 -91 101z"/>
<path d="M4050 1119 c-14 -5 -35 -27 -47 -48 -13 -22 -32 -43 -44 -46 -14 -5
-19 -13 -16 -25 3 -10 -15 -59 -39 -109 -24 -50 -49 -111 -56 -137 -13 -46
-12 -46 20 -75 53 -47 126 -39 215 24 19 13 25 23 19 29 -7 7 -20 4 -39 -9
-39 -27 -78 -36 -91 -20 -16 19 8 92 59 182 42 73 42 73 82 72 24 -1 42 3 44
11 3 7 -3 12 -14 12 -44 1 -45 15 -3 67 55 70 53 83 -12 82 -29 0 -64 -5 -78
-10z"/>
<path d="M4325 884 c-99 -51 -158 -192 -109 -262 37 -53 123 -68 183 -31 18
11 34 19 36 17 1 -2 7 -13 14 -25 26 -51 127 -36 206 31 30 26 37 37 28 46 -8
9 -19 5 -43 -19 -64 -60 -104 -50 -88 22 11 51 66 173 84 188 22 18 16 39 -11
39 -13 0 -45 -7 -70 -15 -43 -15 -47 -15 -72 5 -32 25 -114 27 -158 4z m139
-43 c15 -16 16 -25 6 -63 -25 -97 -74 -168 -117 -168 -89 0 -11 248 78 250 9
0 24 -9 33 -19z"/>
</g>
</svg>
