<?xml version="1.0" encoding="UTF-8"?>
<svg version="1.1" viewBox="0 0 4096 309" width="1919" height="145" xmlns="http://www.w3.org/2000/svg">
<path transform="translate(191,28)" d="m0 0 4 1-2 6h-2v3h3l1 6-2 5 4 1 2 2 5-4 5 2h2l2 9 1 1h5v-5l4-5 2-12 1-2h3v18l-2 8h7l5 1v-6l3-2 5 1 3-2h3l1-3 6 1 3 2-1 3-3 1h3l5-1v-2h3l1 1 2-5h2l-1 4 3-1v-3l4 2 1 3-1 2 6 1 3-2h9l3-2 1 5 3-1h13l4 1 1 3h2l3-5-5-5h-12l-2-3 1-5 2-3h3l2 5 10 3 7-1 3 4v2h-6v2l4 1-3 3 1 3 6-2 2-2 1-7 5-3 4-1-2 5-1 7 2 1h4v2l8-2h1v-3h-5v-4l3-3 5-6 4 1-2 4-1 3 3 1v-2h3l2 5-5 2v4l11 1v-3h3l2 5 3-2 12 2h3l-2-1v-3l-6-2-3-7 1-4 2-2 4 1 1 8h7l4 4-1 7h14l10 1-1-3-6-1-1-3 1-2h8v-2l-3-1 1-5 3-1 5 2v6l1 3-3 8h5l3-8 1-9 5 2 2 4-1 5-2 6 3-2 4-10 3-5 5 2 5-1 6 2 7 8v2l3-1 3-10h6l2 3 7-1v5l1-1 2-3 9 1h2l10-1 2 2 6 1v-2l4-1 1 2h5l5-1 1 1h10l1-2 11 3 1-3 4 2h5l1 4-6 5-6-2-3 4-4-2-6-2-2 4-3 4 5 2-1 8-4-2-2-3-7-1-3 9-5 2-4-2v-3l-4 4 4 1 5 3v-2l4-1 1 4 3 2-2 9-1 5 16 2-1-2-7-1h-6v-3l2-1h7l6-4 2-3v-8l4 1v11l8 2 1-9-5-2 1-2 6 1 1-4 2-2 3 4h18l13 1 1 3-15 1-5 2-1-1h-13v9l-4 2 1 7 8-1 3-3h6l-5-2 2-5 7-1h31l4 2 11-1 2-1 1-4h2l1 5h9l5 3h4l-1-4h4l2 4 4 1 1-3h10v-8h3l-1 7 11 1 1-9h2v3l2 1-1 3 14 2-1 3h-2l-1 5h3l3-5 4-1-1 5h5v-2l-3-2v-3h4v2h6l3-3h3l-2-4-9-1-1-1v-7l-17-1-7-3-4-2-1-11-1-4 5-2 8 1 7 2-1 2-6 3 6 2v5l4-1h14l3-4 6 1 4-2v3h-2v2l5-2 2-3h3l1 4h2l3-4 3 1 2-3h4v-6h3l1-5 1-2h7l5-1 7-1 3 1-1-10 1-1 7 1 7 2 6 2-1 6 2 1 1-3 4 1-1 4 4 4v5 2l7 5v17l2 3 4-2 1 9 2 5 6 1 1-4 8 1 3-3h2v4l2-1v-2h3v3l27 3h8l4 1-2-5h-2v-3l9 1 4-1 2-3h-6v-3l2-2v-2l5 1 3 3-1 5-1 2 3 1v2l4 1 2-4h4l4 3 1 8h5l1-2v-4l4-4 1-11 1-2 3 1v17l-1 6h5l4 2 2-6 4-2 1 1h6l5-6 2 1v2l4 1 1 4 1-2 5 1 1-4 4 2 1 1-1-6 5 3v5l5 1 3-2 12-1 1 3-1 2 3-1 1-2 16 1v2l-9 3-4 5 7-6h8l2-4h2v-2h-4l-1-3-12-1-2-2 1-6 2-3h2l1 5-1 1 7 1 7 2h5l2 4h-6l4 3v2l-2 1v3l6-3 3-8 7-4-1 5-1 6 2 2h4 7l2 1v-4l-5 1v-4l7-10 3 1-1 8 5-1 1 3-4 3v4l10 1v-4h2l2 5h2v-2l13 3h3l-3-1 1-5-4 1-3-5-3-2v-3h2v-2l4-1 2 5v3h7l3 2v8h12l7 2 2-1 1-3h-6l-1-4 6-3-1-4 2-2 6 1 1 6-1 6-1 5 6-1v-6l1-1 1-7h4l3 4 1 4 4-9h10l7 2 5 7v2h4v-6l3-4 5 1 4 2 4-1 1 2-2 4h2l2-6 8 2 1 2 1-2 10-1 1 1 10-1 1 2 10-1v2l8-1 1-1h7 4 4 4l3 2-2 4-3 3-7-1-2 3-4-2-4-1-5 5-2 3h4v8l-4-2-1-3-7-2-1 7-4 4-5-1v-3h-3l4 8 5-4h2l1 5 3 2 4 1-1 2h-4l-2 5 4-1 9-1 4-5-1-7 4-1 2 4-1 2v5l7 3 2-13 1-2h3l-1-7 4 1-1 7 4 1h9l5-1 12 3 1 2-14 1-6 2v-2h-13v6 3l-2 1v5l7 1 5-3h2v2l4-1v-2l-7-1v-3l2-1h51l2-5h2l2 5h7v2h7v-4h4l1-5 2 1v6l-1 3h5l1-2 7-1 1 1v-7l2-1 1 7h8v-7h3l1 5 13 2-2 5-1 3 1 2 4-6 5-3 10 1 4-4-5-2-6-1-1-8-15-1-10-4-1-3 1-5-2-6 6-2 10 2h3v2l-5 3 3 2 1 5h18v-2l-5-1v-3l6 2 7 1v-2l6 3 1-3 4 1v3l4-3 3 1 3-4 6 1 4-1 5-1h-3l-2-4h-2l-1 1-6-1-1 4h-3l-1-5 1-4 4 1 2 1 1-2 4-2h4l5-2 2 1v-2h2v2l6-1v-9l3-1 8 2 3 2 2-1 4 2-1 7 2-3h6l4-1-1 6-1 4-1 5h3l2-6h2v-2l-3-1 1-2h4l1-3 2 1v8h7l2-1 1-11-1-8-2-3 1-5h3l1 2 3 1v6l4 2-1 5 4-1 2 4-3 3-4-2-1 1v6l3 3 7-1 2-1 1-16-4 2-2-4 1-3h-2l1-8 3-3h3l2-7 1-7h3v8l2 3-1 2h-2l3 3 2-6h4l-2 6-1 2h-2l-2 5 1 4v3l3-2 1 1 1-4h-2l-2-3v-3h3v2l4-1 2-4v-3l5 1-1 10-5 1 1 2 6 2v-5l4 1 5 7 1 3 3 1v-3l-4-2-2-5-1-5 2-2h-2l-4 3-1-5 4-5h2l2 3 2-3 3 1-2 5-1 2h2l2 10 6-4-1-3 2-9 3-2 1 4 2 13-1 2 11-3 5-1 3-3 5-1-1-4h-2l-1 2-6-2-5-2h-4l2-4 3-3 6 1 3-3h2l1 4 12 1 16 1 5 1v2l3-1h7l-4-8 10 1 4-2-4-1 1-6 1-3h2v-6l5-1-1 6-2 4h3v7 2l1 2h5l5-3v2l4 1 2 10h6l-1-7h3l3-15 3-2 2 6 2 1v2h-4l1 8-1 5-1 3h10l1-4 4-3h2v2l3-1 3 1 1-5h7l4 4 5-1 2-3 3 1v3h2v-5l5-5h5v-2l3 1v6l-2 1-4-1-4 1 1 4v2l1 2h5v-2l6-1 8-1v4l3 1v-3h3v2l8-2 5 4 3 1 2-5-4-4h-8l-5-1-1-6 3-4h3v4l4 2 9 2 4-1 3 2-1 4v3 2h-3v3l8-4 1-6 4-4h3l-2 10 7 2h7v-2l-4-1 1-4 3-5 4-4 2 1-1 5v3h5l1 2-5 6 1 1 10 1v-4h3l2 6h2v-2l13 2h3l-4-2-1-3-4-1-3-9 3-3 4 1v7l9 1 2 2v7h12l3 2h6v-2l-5-2-2-4 7-2-1-6 4-1 4 2 1 8-2 3 1 4 4-1 1-6 1-3v-5h4l1 4h2l2 4 4-8h4l1 2 1-2 5 1 7 3 3 5 2 2h2l3-9 7 1h3 3v5l2-3 1-2 10 3 3-1v-2l9 2h5l4-1 1 2h4l5-2 1 4 2-1h6l1-12 3-1v-2l-3-1v-3h4l2-4 2 3 1 7 7 2v-2h2l-1-4 3-9 3-3 3-5 2 4v5l2-1 3 1v5l-4 2h-4v5l4 3 7-1 2-1 1-10 1-4v-8l-3-2-2 2h-3v-8l4-4h5l-2-7 3-1v2h5l1 4-3 1v2l4-1 2-5h3l-1 11 2 1 4-4 1-5h3l1 7-2 6h-4v3l6 2v3l-2 3h2v-2h2v-5l-1-4h4l1 2 2-6 2-1 2 1-1-2v-6l5-2-1 5h-2l3 3 1 11 5-2h3l-2-3 1-10 2-3 3 1 1 10 1 8 16-3 3-4 6-1-1-3-3-1-1 2h-2l-3-4-4 1h-4l-1 6-1 3-4-2 1-6 5-7 6-2 3 2 5-5 1 5h4l1-2v2l17 1 19 3h4l3-3-4-2v-2h-2v-2l7 2 8-1 2-3h-5v-4l1-5h3v-6l1-2h4l-1 6-2 4h3v8l-1 2 6 4 5-4 6 3 3 9h5v-5l3-4h2v-9l3-6 3 1-1 6 3 1h-3v13l-1 4 3 1 8 1v-5l4-3 9 1 2-4 4-1 4 2 1 4-4 2v3h-3v2l7 1-2-3v-3l8-4 2 3 1-5 4-2-1 4h3v-4l3 1 1 4-1 2 6 1 3-2 9 1v-2l3-1 1 5-1 2 3-1 1-2h13l4 1 1 3 3-1 2-4-5-5-4 1-8-1v-3h-2l1-4 2-4h3l1 4 11 4 7-1 3 4v2l-3 1-3-1v2l4 1v2l-3 1 1 4 8-5 1-7 5-3 3-2 1 3-3 7v4l5-1 3 2 7-1 1-3h-5v-4l6-8 4-1 1 4-3 5 5 2 1 3-3 2v2l11 1v-3l4 1 1 4 5-2 12 3h3l-3-2v-4h-6l-4-8 1-4 2-2 4 1 1 8h8l3 4v7h13l10 1v-4h-6l-1-4 1-1 7-1-3-2 1-5 4-1 4 2 1 9-3 8h5l3-7 1-10 5 1 2-1-1 4 2 5-4 8 4-3 5-13 4-1 2 2 1-1h5l7 3 6 9 3-3 2-7 1-1h5l2 4 7-2 1 5 2-4 9 1h2l10-1 2 2 6 1 1-3 4 1v2l7-2h4v2l7-1 3 1 1-3 4 1 7 1 1-2 4 1v2l5-1 3 2 2-2h4v7l-3 2h-4l-1-3 1-2-7 5-6-2-3 4-4-2v-2l-6 2-4 6 4 1-1 9-4-2-2-3-6-1-3 1 1 4-2 4h-2l-1 2-5-2-2-3-2 4 4 1v3l5-2 4-1v5l3 1-1 6-2 8 16 2-1-2-6-1h-7v-4h9l5-3h2l1-9v-3h4l1 3-1 9 8 1 3-13 2-3h2l2 3h19l12 1 1 3-15 1-2 2h-3v-2h-14l-2 7h2v4l-4 1 2 4v3l4-1 4 1 2-4 3-1-1-5 6-2h33l4 2 11-1 3-2 2-4h1l2 6h7l2 1v2h7l-1-5h3l4 4v2l4-2 1-1 9-1v-6l2-2 1 1v6l-1 2h11v-9h2l2 5 3 2 12 2-1 3-2 1-1 4 3-1 4-5h4v-2l4 1 6 1 4-4v-3l-10-1-1-1v-7l-17-1-7-3-3-1-1-11-2-4 1-2 9-1 5 2h5v3l-5 2-1 1 5 1v6l9-2 2 1h7l5-5 5 2 1-2h3v3h-2v2l5-1 1-4h3l1 5 5-5 8-2h4l2-6 1 2h2v4l5-1-4-1-3-5-1-5 5-1 15-2h2l-1-9 1-1 8 1 12 4v4 2l2-2 4 1 1 5 3 5v3l-2 1 9 6-1 20h3l1-2h2l1 10 2 5 7-1 1-3 7 1 2-3h3v4h8l13 2 19 1 4 1-2-4-2-1v-3l9 1 4-1 2-2-6-2 2-4 1-3h2v2l4 1 1 6-2 3 4 2 3 1 4-4 6 4 2 9 5-1v-5l4-5 2-12h4l-1 17-2 6h7v2l3-1 3-5 4-3 1 2h5l5-5h2v2l4 1 1 3h6l2-4h2l3 3-1-5 4 2-1 6h6l3-2 12-1 1 4 3 1v-3l4 1h12l-1 3-8 2-4 5 4-2 1-3 10-2 2-3h2v-2l-4-1-1-2-12-1-2-5 2-5 3-1 1 5 5 2 8 2 4-1 3 3v2h-5v2h3l-1 6 5-1 2-5 1-4 4-1 1-3h2l-1 5v7l9 1h5v-3h-6l2-4 6-9 4 2-1 4 3 1v2h2l-1 4h-3v6h10l1-4 3 3 1 2 1-2 10 2 5 2 1-1-3-2 1-4h-5l-3-5-2-1 2-4 4-2 2 2 1 5 8 2 1 1v8h12l6 2h4l-1-3-6-2 1-4 6-2-2-1 1-4 5-1 2 1 2 9-3 7h6v-6l2-4v-5h4l5 8 3-7 5-1h6l7 3 4 5v3l4-2 2-7 5-1 3 3 7-1h4l8 2h6l4-1 7 2v-2l4 1 5 1 1-1h5v2l7-1 2 1v-2h7 4 4l3 1h4l1 2 3-3h3l1 6-3 3h-5l-1-3-4 3-7-1-2 3-4-2-4-1-7 7 5 2-1 7-4-2v-2l-7-2-3 8h-2v2h2l1 5 2 1-1 8-3 6 3-1 2 1 11 1-2-2h-8l-3-1 1-4h8l6-2 1-8-1-2 1-2 5 1-1 5v6l7 1 2-12 2-2 5 1 9 1 8-1 12 3 1 2-15 1-4 2v-2h-10l-3 1-1 5 1 3-3 2v5h7l5-3h2v2l4-2-7-2 2-4h46l5-1 2-4h2v5h9l5 3 2-5h3l2-5 2 1v5 3l4 1 5-3 3-1 1-6 2 2-1 5 10-1 1-7h2l1 7h13v3l-3 6v2l2 1 2-5 1-2 5-3 8 2 5-4h2v-2l-12-2-1-7-15-2-10-4v-8l-2-6 6-2 10 2h3l-1 3-5 3 5 2v4h18v-2h-4v-4l3 1v2l2-1h6l4-1 1 3 4-3 3 1v3l9-6 4 1h3l5-1h4l-3-2-1-3-4-2 1-5 4-1v2h2v-2l9-1h5v-4l-5 3-3-1 8-8 9 1 4 3h4l2 1-1 7 2 1v-4h6l3-2 1 5-2 6-1 5 4 2v-8l2-1-1-4 4-1 1-2h2l1 9 8-1v-5h2l-2-14-2-5 2-3h2l2 2 2 1-1 9 1-4h2l3 4-2 4-1 1-1 12 8 1 5-2 1-17-3-9-1 5-3 1-1-4 2-6 3-2 3 1v-6l1-3 1-6h3v9h2l-1 4v2l2-1 2-4h3v3h-2l-1 5-3 3-1 9 6-1-1-4-2-2v-4l4 2h3l1-7-2-4 4 2 3 2-1 10-4 1-1 2 6 1-1 5-1 2 2-1 1-9h4l4 5v5l4 1 1-3-3-1-4-8v-3l7-2 1 1 1 10 7-4-2-1 2-10 4-3-1 7h2l1 10-1 2 10-2 7-3 4-3 3-3h-7l-1 4-2-1 1-4-4-1h-3l-2-1v-3h2l1-4 6 2 4-4h2l1 5 1-1 12 1 14 1 9 2 3-1 4 2-2-5-1-4 10 1 4-1v-3l-4 1 1-9 4 2 3 1v9l1 3h6l2-4 6 3 3 9h5l-1-5 3-1 2-6 1-8 1-3 3 1 1 5 1 3-2 1v5 3l-1 4v2l9 1 2-5 6-2v2l4-1 2-4h7l2 1-1 5-2 1v2h-3v2l4-1 2-4h2v-2l6 1 1-5h2l1 4h2l1-5 4-5h5v-2l3 1v6l-2 1-5-1-2 1-1 8h7v-2l14-2v5l4-4h2v3h2l1-3 1 3 5-2v2l6 2 4-5-4-2v-2l-10 1-5-3 1-5 2-3h3l1 4h2l1 2 10 2 4-1 2 2-1 4-2 1 2 4h-3v3l5-2h3v-7l5-5 4 1-3 9 7 2 6-1 1 1 1-2-5-1 1-4 4-6 2-2h3l-1 8 4 1 1-2 1 4-4 3v3l10 1v-4l4 1v4l4 1v-2l12 2 3 2v-2l-4-2v-3l-4-1-3-6 1-5 4-1 3 8 7 1 3 5v3l11 1 3 2h6v-2l-6-3 1-4 5-1 1-2h-2l1-4 4-1 3 1 1 9-3 7 6 1 2-11 1-5 4 1v3l3 1-2 9 1 1 1-5 4-9 5-1 1 2 2-2h4v2h5l4 4 2 6 4-4 2-6 7 1h4 2v6h2l1-5h4l6 1 6-2v2l5-1 1 1h5l4-1v2l4 1 4-3 3 1v3l6-2 3 1 1-3 5 1 2 1v2l4-4 4 1 2 2h4l-1 4-4 3-5-1-2-1-2 4-4-2-4-1-4 4-1 3 4 1-2 8h-2l-1-4-9-2-1 7-3 1v2h-5l-2-3v3l2 1v3l5-3 3 1 1 3 2 1-1 5-3 9 16 1-4-2h-9v-4l9-1 5-3 3-4v-2l-3-1 1-3 3-1 2 4-1 8 7 1 3-12 1-2 4 1 7 2v3l-8 2-2 5 3 1v2l-3 2v6l4-1h3l1-2h2v163h-4096v-120l3-1-1-17 3-28 5-25 4-24 1-7 2-1-2-2v-3l4-1 1-3h2l2 10 1 1 7-1 1-13-2-10-1-3 1-2 6 1 2 4-2 8-1 1 2 1 1-6 4 1v6l2-1 6 2 1 6-3 2-2-3-3 1-3-2-1 7 3 3h6l4-2 1-11 1-10-3-3-1-3-1 4-3 1-1-5 3-6 6-2-1-4v-3h2l1-7 3-1 1 8-1 1 3 2-1 4h-2v2l5-1 1-5h3l-1 5-2 4 2 1v3l4-2 2-4 1-5 4 3-1 10-1 1h-5v4l3-1 4 2-1 4-1 2h2l2-7-1-4h4l4 6v5l6 2v-3l-4-2-2-5-2-6 2-2 3-8 3-1v4l-2 4h2l1 12 5-1v-2l3-2-1-5 2-8 4 1 1 9 1 8 2-1 13-1 4-5 4-1v-3l-3-2-1 4h-2v2h-3l1-4v-3l-4 1-3-1-2 1v7l-3 2-2-1 1-7 5-7 5-2 2 1v2h2l2-5 3-1 1 5 22 1 18 3 3-1h4l4 1 5 2 1-2-4-3-5 1-5-4v-3l8 2 6-1 2-4-5 1-1-3 3-7h2v-6zm124 18m-1 1 1 2zm2028 0m-1 1m-2147 4v2h2v-2zm2018 0-3 2 1 3 3 2h3v-2l2-1-3-1zm9 1v4l4 3h2l-2-5h-2v-2zm-2028 1-1 2h2zm3 1-2 2 4 3 2-1zm176 1m-309 2-1 4h2l1-3zm2027 0-2 6h2l-1 7h6v-6l-3-3v-4zm-2e3 2m1989 0 2 2v-2zm87 0 1 2 1-2zm-2025 1-1 2 3-1zm8 0 3 4-1-4zm110 0-2 3 7 1-1-3zm208 0 1 2zm1710 0 1 4h2l-2-4zm317 0m-2432 1m3 0-2 5v4l4-1 2 2v-7zm206 0-1 3 4-1-1-2zm50 0m1848-1-2 2h3zm-2108 2m109 0 1 2zm147 0m203 0 1 2zm23 0m1755 0v2l3-1zm46 0m-2201 1m133 0 2 2v-2zm40 0-5 4v2l4-1 2-2zm226 0-3 4v2l-4 2h4l1 2 2-2v-4l4-1-3-1zm1801 0v2l-4 1v3h3l3-4zm204 0m22 0-3 5-3 3 5 2 2-6 3-1zm-2425 1m140 0v1h8v-1zm235 0m265 0 1 5h3v3l-2 1 2 1 6-1-3-3h-2v-2h-2l-2-4zm1520 0m7 0v1h8v-1zm-2177 1-1 5h2l1-2 4-2zm9 0-3 2 1 4 3-3zm156 0m1871-2v4l-9-2-1 5 3-1v-2l3 1 3 3 3-5-1-3zm156 2m64 0 1 2zm156 0m-2183 1m1752 0-1 2 2 7-5-1 3 4h2l1-2 5 2-1-5h-2l-1-6zm102 0m128 0 1 4 2-1zm-2027 1v3l3-1-1-2zm6 0 1 5h5l1-4-1-1zm222 0m1805 0v4l6 1 2-4-5-1zm222 0m-2375 1m140 0v2h2v-2zm170 0m275 0-3 5v2h2v-2l2-1zm1390 0v3h4v-2zm27 0m36 0m130 0m169 0m-2389 1v2h4v-2zm25 0-1 2 4 1 1-2zm164 0 1 4h2l-1-4zm19 0 1 3 3-1 1 3 7-1 1 2v-6zm1845 0-1 2h2zm163 0 1 4h2l1-4zm20 0-1 3h4l1 2 7-1v2l2-1-1-4zm155 0m-2300 1m109 0-5 1v2l8 1-1-4zm1850 0 1 2zm5 0-1 2 3-1zm63 0m109 0v3l3 1v-4zm205 1v4h5zm-2483 1 1 2zm334 0v3h5v-3zm123-1-2 1 1 3h5l-3-1zm1817 1m87 0v3h5v-3zm-2054 1-3 2v2h6v-4zm382 0m1645 0-3 4h6l2-3zm-2345 1 2 2v-2zm17 0v2l3-1zm95 0m248 0m1685 0v2l6 2 2 4 1-6-5-1zm95 0m247 0m-2384 1 1 3 1-3zm20 0-3 2h5v5l2-4-1-3zm10 0-3 5v2l2 1 1 3-3 1 4 1v-4l4-2 5-4h2l2 3-1-5-4-1v2l-6 1v-3zm258 0m82 0-1 4-6 2v1l7 1 1 4-5 1-1 4 8-4 1-6 3-1v-3h-6l1-3zm1687 0-2 3v5h2l-1 3-2 2h4l3-5 6-5h2l2 3 1-3-3-3-8 2-1-2zm259 0v2l2-1zm81 0v5l-7 1v1l7 1 1 3-5 2 1 4 6-4v-5l4-2v-3l-5-1zm-2108 1m397 1 1 2zm1296 0 1 2zm-1922 1-1 1v8l1 2h2v-11zm394 0v2h6v-2zm1633 0v11h3l-1-11zm394 0 1 2h5v-2zm-2136 1 1 7 3 3h2v-7l-1 2h-2l-2-5zm2027 0 2 9 4 1v-5h-3l-1-5zm-2037 1-1 5 2-1zm-293 1 1 2zm2027 0m293 0 1 2zm-1926 2v4h5l2-3-1-1zm1901 0m24 0 1 2zm102 0v4h6v-4zm-2042 1m2027 0v2h2v-2zm-2446 1m46-1-4 4 6-1-1-3zm291 1-1 3h2zm62 0m56 0m1266 0m351 0-3 3 7-1v-2zm291 0v3h2v-3zm63 0m56 0m-2431 1 1 3zm1668 0-1 2 3-1zm2028 0m-3711 1 1 2zm43 0m275 0v3h2l-1-3zm323 0v3l4-1zm6 0m1381 0-1 2h2zm15-1-2 2h3zm27 1-5 6h3l3-4zm604 0-1 2 3-1zm1036 0m-3668 1-4 6 3-1 2-5zm604 0m1699 0m312 0-5 4 4-1 4-2zm11 0v2l4-1zm-2346 1m18 0m40 0m250-1-5 1h-9v1l8 1 4 1 5-2-1-2zm1718 1-1 3h2l1-3zm19 0m40 0m236 0v1h8v-1zm-2323 1 1 2 1-2zm72 0 4 1zm2027 0 4 1zm-2199 1v2h-3l1 5 4-2v-4zm176 0v1h6v-1zm1167 0-2 4 7 1-3-5zm805 0v7h3l-1-5zm55 0v1h6v-1zm1167 0-2 4 7 1-2-5zm9 0v2l-2 1 5 3h2l-2-4zm-3383 1m125 0-1 5 4 1-2-6zm1907-1-5 1 3 6 3-3-1-2 2-1zm23 1 1 4 5 1v2l-3-1v4h6l1-3h2v-2l-9-4zm-2089 1m55 0 2 1v3h-4v3h5l1-5-1-2zm7 0 3 4h3l-3 3-1-2 1 4h6l3-5-9-4zm19 0m72 0m307 0v2l2-1zm930-1-2 2 7 4-1-5zm129 1v2h2v-2zm509 0 1 2zm40 0 1 2zm15 0 2 4h-3l-1-3-1 6 5 1 1-1v-7zm97 0m307 0v5l2-1-1-4zm1059 0m-3674 1 1 3zm7 0v2h2v-2zm171 0m59 0v2h2v-2zm8 0-5 3-2 4 9 2 3 1 2-9zm12 0m1778 0v3l2-3zm229 0 2 2v-2zm8 0-5 3-2 4 9 2 2 2 2-4 2-6-5-1zm12 0m46 0m-2172 1m17 0-4 2v2l6-2 1-2zm84 0 3 3v3l-3 2 7 1 2-1-2-2-1-5zm1321 0-2 2 1 2-4 1 4 1 2 2v-4-2l2-2zm9 0m438 0m158 0m17 0-4 2v2l6-2 1-2zm84 0 3 3v3l-3 2 2 1h7l-5-8zm-2047 1m70 0 1 2 4-1zm2028 0v2l3-1zm-2130 1m3 0m3 0-2 3h3l4-1 1 3 4-1 3 3-1-6zm1172 0-1 6 3-1-1-5zm443 0m407 0m3 0m3 0-2 4 5-1 1 2 7-1-1-3zm-1927 1m6 0m1146 0v3h3l-1-3zm10 0-1 3 3-1zm871 0 1 2zm1146 0 1 3h3l-1-3zm10 0v3l2 1v-4zm-3478 1m6 0m243 0-3 3v2h7v-5zm45 0m1452 0m530 0-3 5h8l-1-4zm4 0m25 0m-2100 1m355 0 1 2zm1e3 0 1 2zm669 0m355 0v2l2-1zm996 0 1 2zm7 0v2l4-1zm-3568 1v2h2v-2zm190 0m341 0m899 0m11 0m102 0m3 0m38 0-5 6h3l3-4zm621 0 1 3zm12 0m342 0m909 0m7 0m136 0-4 4v2h2l4-6zm46 0m-3470 1v2l3-1zm19 0m108 0v2l2-1zm1026 0 2 5 1-2zm83 0 1 3zm124 0m8 0v1h6v-1zm75 0m85 0 1 3zm79 0-4 5-2 2 5 1 1-5h2v-3zm420 0v2l3-1zm19 0m108 0v2l2-1zm1100 0-1 6 2 1 1-4 3 1 1 3 3-1v-3l-8-1zm133 0m8 0v1h6v-1zm239 0-4 5-2 2 6 1 1-4 2-2zm-2253 1v2l4-1zm1883 0-1 2h2zm144 0v2l4-1zm-3342 1m1161 0-1 4 3-1 1-3zm4 0 2 5h2v-4zm48 0m805 0m9 0m-2028 1m1334 0v4h2l-1-4zm128 0-1 2 3-1zm1129 0m770 0v4h2l-1-4zm-3197 1-3 3-4 1v2l-5-1 2 3h4l1 3 2-1-1-4 8-1-2-4zm95 0m50 0m764 0v5h1v-5zm100 0v3l4-1zm48 0m119 0v4l5-1v-3h-4zm222 0 1 2zm629 0v2l-6 2-4 3 5 3 2 1v-5l7-1-2-5zm45 0m354 0m611 0v3l3-1zm47 0m11 0m108 0 1 4 2-1-1-3zm3 0v3l3-1-1-2zm-2018 0-3 1 1 3h2v-2l3-1zm160 1v2l2-1zm656 0-8 3 2 4 3 1v-5h3l1 3 2-3 4 1-1-3zm115-1-3 3 5 2 2-1-1-4zm1097 0-3 1 1 4 4-4zm-3331 2 4 1zm93-1-9 3 2 4 2 1 1-4h4l1 2v-4l4 1v-2zm1053 1 4 2 1-2zm174-1-3 2 5 1 2 3 4-1 2 1v-5h-3-3zm192 1-3 5h4v-5zm515 0 4 1zm74 0 4 1zm1072 0m174-1-2 2 5 3h3l4 1v-5zm144 1m-3248 1-1 2h2zm321 0m747 0 3 3-1-3zm737 0m52 0 1 2zm170 0-1 2h2zm152 0-3 4 3 3h3l-1-5zm169 0v3l4-1h-2v-2zm407 0m340 0v2l3 1-1-3zm-3293 1-1 2 5-1zm7 0v2h2v-2zm46 0 1 2zm40 0m36 0m220 0-2 4 3 2h3l-1-4-1-2zm9 0-3 4 7 2-1-4zm160 0m499 0-1 3h2zm326 0v2h4v-2zm113 0v2l3-1zm571 0-1 2 5-1zm7 0 1 2zm123 0m228 0-2 3 5 3 2-1-3-5zm674 0m311 0 1 3 4-1v-2zm114 0-1 2 5 1-2-1v-2zm-2462 1 2 5 2-2v-2zm1063 0m965 0v3h3zm-3056 1m33-1-2 2 4-1zm70 1m8 0-1 2h2zm878 0m55 0v2l2-1zm15 0-3 4 1 7-1 2h3l3-5 5-3v-2l2-1-7 1zm264 0-1 3h3l1-3zm52 0m90 0m562 0m32 0m497 0m515 0v2l3-1zm6 0-1 2 2 1v5l2-1v-5zm8 0-2 7h2l-1 6h2l4-6 6-4-3-1-3 1-3-3zm267-1-3 2v2h4zm-3067 2v15l11-2 5-2 3-3 4-2v-2l-4-1-2 1-1 3-2 1 2-6-3-1-9-1zm764 0 2 1v6h1v-7zm250 0m75 0m764 0m1263 0-1 6 2 1 1 5-4-1-2 5 8-4 1-5 3-2-1-3-4 1-1-3zm-3244 1m913 0m230 0m75 0-2 5 2 1 1 4-5 1-1 3 7-2v-6l4-1 1-3h-5v-2zm809 0m129-1-2 3 1 12 9-1 7-2 3-4 4-1-1-4-2-1v2l-4-2-2-2v2l-5-2-4 4-1 5-1-4 2-4zm140 1-2 1-2 5 3-1 4-5zm645 0 1 4zm230 0m-2903 1 1 2 1-2zm193 0m828 0m16 0-2 7v2l-5 1-5-4-1 4 4 4h3l1-2 3-1 1 5h6l-1 5-2 1-1-3-3 9v2l7 1v-2l-4-1v-2l5-2 3-13v-9zm1183 0m-1602 1v6h1v-6zm44 0-1 1v9l2-4v-6zm366 0m1507 0 1 3v-3zm110 0 1 4zm410 0m-3317 1m148 0m306 0m316 0m419 0 1 3zm105 0m882 0v2l3 1v-2zm181 0 1 2zm124 0 1 2zm470 0m265 0 1 7 4 2v-5h-3v-4zm105 0m-3389 1m218 0 2 2v-2zm8 0 3 3v-3zm100 0 1 3 5-1-3-2zm195 0m454 0m298 0m981 0v2h2v-2zm104 0-1 3h3l-1-3zm230 0-1 2h2zm414 0m298 0m-3285 1 1 2zm323 0 1 3 3-1v-2zm522 0m114 0m273 0 1 3zm795 0 1 2 1-2zm323 0 1 2h3v-2zm90 0m433 0m113 0m17 0 1 3zm256 0 1 2zm-3054 1-2 5 1 3 3-5-1-3zm25 0m87 0m11 0m228 0m22 0m665 0 1 5 3 1v-6zm83 0v4h6v-4zm906 0m106 0m18 0m168 0-1 7h2l1-4zm829 0 1 4h5v-4zm-3023 1m7 0v1h6v-1zm239 0-2 4-3 3 4 1 5-6zm660 0-1 3h2zm832 0m165 0 1 3zm124 0m7 0v1h6v-1zm219 0m20 0-2 4-3 3 4 1 5-6zm718 0m-3124 1-1 6h2l1-3 3-2zm153 0v2l4-1zm147 0-1 4 3-1-1-3zm466 0v3h2v-3zm3 0v2h2v-2zm1259 0-2 3v3h2v-4l4 2 1 2h2v-3zm152 0v2l4-1zm614 0 2 3v-2l2-1zm13 0v4h2zm259 0-1 2h2zm-3223 1m892 0 1 2zm5 0m34 0v3zm1096 0m898 0m33 0-2 2 4-1zm-2959 1m163 0m167 0v4l1-4zm627 0m256 0m814 0 1 2zm166 0m1047 0 1 3zm-3241 1 1 2zm170 0v3l4-1zm25 0m23 0m118 0v3l6 1-1-4zm171 0m411 0m22 0m17 0m256 0 1 2zm4 0 1 2 1-2zm981 0-1 3 4-1-1-2zm48 0m112 0v3h2v-3zm5 0 1 4h5v-4zm582 0m39 0v3l2-3zm261 0m-3052 1-2 2h4v-2zm153 0v3l4-1 1-2zm18 0 1 3 5 2 4-2v2h2l-1-5-1 2-6-2zm592 0 1 2zm316 0m755 0m346 0v3l5-1v-2zm18 0 1 3 3-1 1 3 5-1 2 1-1-5-5 1zm853 0m55 0m30 0m-2973 1 1 3 3-1zm859 0m1007-1-4 2 6 1-1-3zm162 1v3l3-1-1-2zm859 0m85 0m-3132 1m352 0v4l3-1zm407 0m336 0m1284 0-1 3 2 2 2-2zm407 0-1 2h2zm-2548 1v2l4-1zm520 0m165 0m3 0m22 0m86 0 1 2zm1231 0 1 2h3v-2zm342 0m344 0 1 2 1-2zm3 0 1 3 1-3zm22 0 1 3 5 2 1 2-5-1 1 3h6l2-4-10-5zm-2764 1-2 4 3 1 2-1v-4zm567 0-1 3h2l1-3zm146 0 1 3zm17 0v4l-2 1 2 2h3v-7zm7 0 3 3 3 2h-4v2l7 1 2-5-8-3zm44 0v2l2-1zm1246 0-1 4h3l2-4zm568 0v3zm112 0m51 0-2 6 4 1 1-7zm51 0 1 2zm-3074 1-2 4v3h2l-2 6 3-1 3-5 5-3 4-2-3-1-4 2h-3zm305 0m11 0 1 3zm509 0 1 2zm147 0m9 0m9 0m62 0-5 5 4 2 5 1 2 2 2-7 1-2zm12 0m28 0-1 2h2zm936 0-2 3v7l-1 4 8-8 6-4-2-1-3 2h-4zm73 0m231 0m11 0m509 0 1 2zm147 0m7 0 1 3zm73 0-5 6 9 2 2 1 2-6 1-2-2-1zm13 0m27 0 1 3h2l-1-3zm-3127 0-5 1 1 2 6 1zm249 1m739 0m7 0-2 2 5-1zm80 0 1 2h2l-1 3-2 2 4 1 2-1-1-5zm27 0-1 2h2zm19 0 1 2 2-1zm902 0v1h5l1 4v-5zm253 0m76 0v4l-3 1 5 4v-2l4-1 1-4h-5zm92 0m581-1-5 2 1 2 6-3zm77 1 3 6-3 1 7 1-2-6zm46 0 1 2 2-1zm-2161 1m-966 1 1 2zm15 0v11h3l-1-10zm179 0m110 0-3 4 5 4 1-3 3-1 1-4zm667 0m34 0v1h5v-1zm6 0v3h4 5l2 3-1-5zm57 0-3 4v2h6v-5zm36 0m6 0m933 0-1 1v10h3l-1-8zm989 0 4 1zm5 0-1 2 6-1v2l6-1 1 4v-5zm-2655 1 1 2h5l-1-2zm1644 0-1 4h2l1-4zm383 0 2 2 4-1-1-1zm688-1-4 2-1 4h6v-6zm-3098 2v3zm281 0 1 5 3 4h2v-5h-4v-4zm745 0m1282 0 2 4v-4zm745 0m-3882 1 1 3zm907 0 1 2zm220 0m559 0 1 2 1-2zm1468 0m559 0 1 2 1-2zm177 0m-2762 1m734-1-2 2h3zm16 1m100 0m1178 0m731 0m19 0m99 0m-2809 1-2 4h6l1-2-1-2zm2026 0-1 4h7l-1-4-2 1zm-2389 1-2 5 4-2v-3zm2028 0v2l2-1zm281-1-3 2 2 4h2v-6zm66 1m28 0-2 3 7 5 3-4-5-1zm-2131 1v3zm2026 0v3h2v-3zm58 0m-2350 1v3zm292 0-1 4 5-1-2-3zm1735 0 1 2 1-2zm-2041 1-1 2h3v-2zm39 0v3zm257 0 1 3zm14 0m286 0 1 3v-3zm5 0-1 2h2zm1426 0v2h2v-2zm6 0 2 2v-2zm34 0m256 0v3h2l-1-3zm9 0 1 4v-2h5l-1-2zm291 0 1 3 2-2zm5 0 1 2zm-2042 1-1 2h3v-2zm556 0m898 0m26 0m548 0m567 0m-2816 1m209 0m4 0m2 0m1485 0v3zm327 0m209 0m4 0m6 0-3 2h4l2-2zm-2574 1 1 2zm267 0m62 0v1h7v-1zm215 0 1 2 3-1zm1813 0v1h7v-1zm816 0m-3008 1 1 3 1-3zm2029 0-2 3 1 3 2-1 3-3zm-2195 1m168 0-1 5h2l2-5zm23 0 1 4h5v3l-4-2 1 4h5l3-4-10-5zm90 0v5l3 1-1-4zm1746 0m191 0 1 4 3 1-1 4h5l1-3 2-1-9-5zm90 0 1 5h3zm-2294 1v3zm7 0 1 2zm159 0m3 0v7l4-1-1-3-2 1v-3l3 1 1-2zm53 0m326 0m1486 0 1 2zm162 0v7l4-1 1-3h-3v-2l3-1zm52 0 1 2zm40 0m286 0m-2427 1m16 0-4 2v2l6-2 1-2zm64 0-5 4v2l8 1 2 3 2-10zm13 0m42 0m1744 0m148 0m16 0-4 2v2l6-2 1-2zm64 0-5 5 3 2h6v3l2-1 2-8-1-1zm13 0m308 0 1 3zm-2333 1 3 6h-3v2h7l-3-7zm305 0v3h2v-3zm1628 0m94 0m-1981 1m1983 0 1 5-3 1 1 1h6v-2h-2l-1-5zm44 0 4 1zm-2119 1 1 3 6-2v-1zm86 0m1938 0m4 0v3l6-2 1 3 5-2 1 3-1-5zm58 0-2 6h6l-2-4zm27 0m15 0m-2118 0-3 1 1 3 6-2zm91 1m-83 1m40 0-2 4h7v-2zm284 0m6 0m1697 0 1 2zm324 0m6 0m-2527 1 1 2zm165 0 1 2zm1863 0m-1854 1m18 0m1835 0m174 0m18 0m100 0m-2019 2-2 5 18 2-3-4h-9zm171 2 1 5 4-2-1-3zm1922 0-6 3-2 2 4 3v-4l4-1 1 3 2-3 2-1-2-2zm19 0v3l-5 1-3 1v2l6 2 1-4 3 1v-2l3-1-1-3zm87 0-1 4 3 1 2-2v-3zm-2132 0-7 3-1 3 3 2v-4h4l1 2 1-2 4-1zm20 0-2 1v2l-9 1 1 3 4 1 2 1-1-4h6l2-1-2-4zm136 1m1784 0m243 0m-2197 1m153 0-1 2 3-1zm1803 0m71 0m-2058 1 1 2 2-2zm177 0m1851 0-1 2 3-1zm48 0 1 2zm128 0m8-1-2 2h3zm-2206 2m18 0-1 3 3-1zm2009 0m48 0m-1990 1m7 0m2020 0m7 0 1 2zm-2097 1m69 0m1954-1-2 2h5zm5 1m-2029 1m2027 0m-1993 2m2027 0m-1992 3m2028 0m38 1m-2028 1 1 2z" fill="#FEFEFE"/>
<path transform="translate(662,77)" d="m0 0h18l1 4-21 1 11 1v2l-8 1h-12l-1-2 5-6z" fill="#FDFDFD"/>
<path transform="translate(2691,77)" d="m0 0h16l2 3-1 1-20 1 10 1v2l-10 1h-10l-1-2 5-6z" fill="#fff"/>
<path transform="translate(1359,134)" d="m0 0h23v3l-8 1h-11v2h7l3 2-4 1h-11l-5-1 2-5z" fill="#fff"/>
<path transform="translate(3386,134)" d="m0 0h23v3l-7 1h-8l-3 1 9 2v2l-20-1 2-5z" fill="#fff"/>
<path transform="translate(161,28)" d="m0 0 4 1h4v2l6-2-1 4-2 2-1 6h-2l-2-7-7-2z" fill="#F8F8F8"/>
<path transform="translate(2058,59)" d="m0 0 7 1 1 4-2 8-4 2-1-8-2-5z" fill="#fff"/>
<path transform="translate(899,87)" d="m0 0 6 2v2l5-1-2 5-1 6-3-3-1-4-5-2z" fill="#FBFBFB"/>
<path transform="translate(553,81)" d="m0 0 5 1 1 1v5l-3 2-2 4-4-1v-2l2-2-1-3z" fill="#fff"/>
<path transform="translate(2581,80)" d="m0 0 4 2 1 5-3 3-2 4h-4l1-4h2l-2-5z" fill="#fff"/>
<path transform="translate(2927,87)" d="m0 0 6 2v2h2v-2l3 1-4 9h-2l-2-5-5-2v-4z" fill="#fff"/>
<path transform="translate(3329,133)" d="m0 0h11l3 1-1 3h-17l1-3z" fill="#fff"/>
<path transform="translate(2030,118)" d="m0 0 5 1v6l-3 5h-4l1-10z" fill="#fff"/>
<path transform="translate(3683,69)" d="m0 0 6 1 2 2v8l-4 1-1-1v-9l-3 1z" fill="#fff"/>
<path transform="translate(603,59)" d="m0 0 6 1h4l-1 4-1 1h-10l1-4z" fill="#fff"/>
<path transform="translate(3291,137)" d="m0 0 4 2v5l-3 1v4l-3 1-2-1 3-11z" fill="#fff"/>
<path transform="translate(1263,137)" d="m0 0 5 2-1 6-2 4-3 1-2-1z" fill="#fff"/>
<path transform="translate(4057,118)" d="m0 0 5 1v7h-2l-1 4h-4z" fill="#fff"/>
<path transform="translate(2311,44)" d="m0 0h4 3v7h-10v-4z" fill="#fff"/>
<path transform="translate(1301,133)" d="m0 0h11l4 1v2l-8 1h-9v-3z" fill="#fff"/>
<path transform="translate(3050,105)" d="m0 0 8 1v4l-12 3v-3l3-3z" fill="#fff"/>
<path transform="translate(990,95)" d="m0 0h3l3 6 3 3v3h-4l-2-4-4 1z" fill="#fff"/>
<path transform="translate(773,62)" d="m0 0 3 3 2-1 2-2 1 4-6 8-3-3v-8z" fill="#FAFAFA"/>
<path transform="translate(593,60)" d="m0 0h4l1 4-4 5-5-1 1-5z" fill="#fff"/>
<path transform="translate(2631,59)" d="m0 0h8l1 4-2 2h-9l-1-2z" fill="#fff"/>
<path transform="translate(249,41)" d="m0 0 5 2 2 3-4 2-1 4-3-1-2-5 1-4z" fill="#fff"/>
<path transform="translate(1301,117)" d="m0 0h3l1 5-3 4h-5l-1-3 2-4z" fill="#fff"/>
<path transform="translate(287,44)" d="m0 0h4v7l-7-1h-4l2-5z" fill="#fff"/>
<path transform="translate(2663,77)" d="m0 0h14l2 3-5 1h-8l-3-2z" fill="#fff"/>
<path transform="translate(636,77)" d="m0 0h14l1 4h-12l-3-2z" fill="#fff"/>
<path transform="translate(2625,76)" d="m0 0h11v3l-12 1-5 2 1-5z" fill="#fff"/>
<path transform="translate(24,66)" d="m0 0 5 5 1 3-3 3-5-1-2-3 4-1-1-4z" fill="#fff"/>
<path transform="translate(3494,121)" d="m0 0 5 2 1-2 3 1v3 3l-4-1-2 3-3-1z" fill="#fff"/>
<path transform="translate(598,76)" d="m0 0h11v3l-13 1-5 1 2-4z" fill="#fff"/>
<path transform="translate(2051,66)" d="m0 0h2l3 5v5l-4 1-4-2v-3h3z" fill="#fff"/>
<path transform="translate(2274,42)" d="m0 0h6l3 4-4 1-1 5-3-1-2-8z" fill="#fff"/>
<path transform="translate(1017,102)" d="m0 0 2 1v6h-7-3l2-5z" fill="#fff"/>
<path transform="translate(2643,76)" d="m0 0h9v3l-2 2-1 4-3-1-4-7z" fill="#fff"/>
<path transform="translate(2194,28)" d="m0 0h2l2 2h4l-4 8 1 3-3-1-2-6z" fill="#F7F7F7"/>
<path transform="translate(3338,116)" d="m0 0 8 1-1 5-8 1-2-3 1-3z" fill="#fff"/>
<path transform="translate(1311,116)" d="m0 0 5 1h3l-1 4-7 2-3-1 1-5z" fill="#fff"/>
<path transform="translate(1024,105)" d="m0 0 6 1 1 4-9 2-3 1v-3h2l2-4z" fill="#fff"/>
<path transform="translate(2910,102)" d="m0 0 4 2v5l-6-1-3 1-1-3 2-3z" fill="#F9F9F9"/>
<path transform="translate(3818,86)" d="m0 0 7 1v4l-8 2-3 1 1-4z" fill="#F9F9F9"/>
<path transform="translate(3039,103)" d="m0 0h7v6l-5-1-3 2-2-3z" fill="#fff"/>
<path transform="translate(3773,82)" d="m0 0h5l2 2v3h-3l-1 5h-2l-2-9z" fill="#fff"/>
<path transform="translate(1791,86)" d="m0 0 6 1 1 4-9 2h-3v-2z" fill="#fff"/>
<path transform="translate(3699,70)" d="m0 0h7v2l-2 1-2 8-3-1-1-8z" fill="#F9F9F9"/>
<path transform="translate(1671,70)" d="m0 0h6v3l-2 6v2l-4-2z" fill="#fff"/>
<path transform="translate(1746,82)" d="m0 0h5l2 4h-4l1 5-2 1-2-1-1-8z" fill="#fff"/>
<path transform="translate(2323,47)" d="m0 0 7 1 1 3-8 1-3 3h-2l2-5z" fill="#fff"/>
<path transform="translate(616,76)" d="m0 0h8v4l-3 5h-2l-3-6z" fill="#fff"/>
<path transform="translate(3565,104)" d="m0 0h2l3 6v3h-8l2-4z" fill="#fff"/>
<path transform="translate(296,47)" d="m0 0 7 1v3l-7 1-3 3h-2l2-5z" fill="#fff"/>
<path transform="translate(3622,91)" d="m0 0 3 1-1 6-2 2h-4l1-5z" fill="#fff"/>
<path transform="translate(2719,77)" d="m0 0 9 1 1 3h-14v-3z" fill="#fff"/>
<path transform="translate(2112,52)" d="m0 0 3 1v5l-4 4h-2l-1-4z" fill="#fff"/>
<path transform="translate(980,100)" d="m0 0h2v2l4 1-3 2-2 6-2-4-2-5z" fill="#F8F8F8"/>
<path transform="translate(688,78)" d="m0 0h13l1 3h-14z" fill="#fff"/>
<path transform="translate(1322,133)" d="m0 0 9 1v2l-4 1v3l-4-2-3-4z" fill="#fff"/>
<path transform="translate(1660,70)" d="m0 0 3 1 1 6-1 4-4-1v-8z" fill="#FCFBFB"/>
<path transform="translate(85,52)" d="m0 0 3 1-1 6-3 2h-3l1-5z" fill="#fff"/>
<path transform="translate(2182,29)" d="m0 0 4 2v8l-4 1z" fill="#fff"/>
<path transform="translate(155,29)" d="m0 0 3 1 1 2v7l-4 1-1-8z" fill="#fff"/>
<path transform="translate(3367,134)" d="m0 0h15l-1 3h-9l-5-1z" fill="#EDEEEE"/>
<path transform="translate(1538,104)" d="m0 0 3 3 2 5-1 1h-7l1-3h2l-1-5z" fill="#fff"/>
<path transform="translate(3548,96)" d="m0 0 4 1 4 3v7l-3-1-1-5-3-1z" fill="#fff"/>
<path transform="translate(2038,76)" d="m0 0 3 3-3 7-3-1-1-3z" fill="#fff"/>
<path transform="translate(2233,29)" d="m0 0h2l-1 6-2 4h-3l-1-4z" fill="#fff"/>
<path transform="translate(11,76)" d="m0 0 2 1v6l-2 3-3-1v-6z" fill="#fff"/>
<path transform="translate(3733,70)" d="m0 0h3l-1 5-4 9h-2l2-9z" fill="#F1F1F1"/>
<path transform="translate(2592,69)" d="m0 0 5 1 1 4-4 2-4-3z" fill="#fff"/>
<path transform="translate(3351,133)" d="m0 0 7 1v2l-4 2-1 2h-2l-4-6z" fill="#fff"/>
<path transform="translate(1340,134)" d="m0 0h14v3h-9l-5-1z" fill="#EAEAEA"/>
<path transform="translate(688,68)" d="m0 0 5 1-1 4-8-1-1-3z" fill="#fff"/>
<path transform="translate(2800,63)" d="m0 0 4 2 1 5-4 3-1-1z" fill="#fff"/>
<path transform="translate(105,25)" d="m0 0h5l1 4-4 2v2h-3v-3h2z" fill="#fff"/>
<path transform="translate(3584,112)" d="m0 0 4 1-1 5-3 1-3-2 1-4z" fill="#fff"/>
<path transform="translate(565,69)" d="m0 0 5 2v4l-4 1-3-2v-4z" fill="#fff"/>
<path transform="translate(205,29)" d="m0 0h2l-1 8-1 2-4-1 2-6z" fill="#fff"/>
<path transform="translate(2715,68)" d="m0 0 5 1-1 4-7-1-1-3z" fill="#fff"/>
<path transform="translate(2288,35)" d="m0 0h2l1 2v6l-1 2-4-1z" fill="#fff"/>
<path transform="translate(2132,25)" d="m0 0h5l1 3-5 5h-2z" fill="#fff"/>
<path transform="translate(2920,88)" d="m0 0h2l1 3v8h-3l-1-7z" fill="#fff"/>
<path transform="translate(2040,60)" d="m0 0 3 1-1 7h-3l-1-1v-5z" fill="#fff"/>
<path transform="translate(2080,38)" d="m0 0h3l-2 6-5 5h-2l2-5h2z" fill="#fff"/>
<path transform="translate(53,38)" d="m0 0 3 1-4 7-3 3-3-1 2-3h2l2-6z" fill="#fff"/>
<path transform="translate(2967,89)" d="m0 0h2l-1 5-2 4-4-1 3-6z" fill="#fff"/>
<path transform="translate(1706,70)" d="m0 0 3 1-3 9-3-1 1-5z" fill="#fff"/>
<path transform="translate(260,35)" d="m0 0 3 1 1 6-1 3h-3z" fill="#fff"/>
<path transform="translate(893,89)" d="m0 0 2 1 1 8-4 1v-9z" fill="#fff"/>
<path transform="translate(939,89)" d="m0 0 3 1-3 8h-3l1-6z" fill="#F6F6F6"/>
<path transform="translate(1759,76)" d="m0 0h2v8l-3 2-2-1z" fill="#fff"/>
<path transform="translate(2078,66)" d="m0 0h3v5l-1 1h-5l1-5z" fill="#fff"/>
<path transform="translate(52,65)" d="m0 0 2 1v5l-1 1h-5v-4z" fill="#F6F6F6"/>
<path transform="translate(12,60)" d="m0 0h3v8h-3l-2-4z" fill="#fff"/>
<path transform="translate(3018,95)" d="m0 0 3 1v6l-5 2z" fill="#fff"/>
<path transform="translate(3601,74)" d="m0 0 4 1-1 7h-3z" fill="#fff"/>
<path transform="translate(208,35)" d="m0 0 2 1v9h-3l-1-7z" fill="#fff"/>
<path transform="translate(3449,151)" d="m0 0h6l1 5-2 1-5-3z" fill="#fff"/>
<path transform="translate(4067,108)" d="m0 0h5l1 5-6-1z" fill="#fff"/>
<path transform="translate(4095,99)" d="m0 0h1v8l-5-1 2-6z" fill="#fff"/>
<path transform="translate(1565,78)" d="m0 0h2l-1 5-5 6h-2l3-6h2z" fill="#fff"/>
<path transform="translate(2077,76)" d="m0 0 3 3-2 5h-4l1-4z" fill="#fff"/>
<path transform="translate(2172,43)" d="m0 0 4 2v5l-4 1-1-2z" fill="#fff"/>
<path transform="translate(145,43)" d="m0 0 3 1 1 6-4 1-1-3z" fill="#fff"/>
<path transform="translate(2292,42)" d="m0 0 4 2 1 4-3 1-3-2z" fill="#fff"/>
<path transform="translate(2085,38)" d="m0 0h2l1 9h-3l-1-7z" fill="#fff"/>
<path transform="translate(3559,96)" d="m0 0 3 1 1 4-1 3-3-1-1-6z" fill="#fff"/>
<path transform="translate(2752,95)" d="m0 0 6 2-1 4-5-2z" fill="#fff"/>
<path transform="translate(3786,77)" d="m0 0 3 1-1 6-3 2-1-5z" fill="#fff"/>
<path transform="translate(2196,46)" d="m0 0h3l-1 5-3 3-2-4z" fill="#fff"/>
<path transform="translate(169,46)" d="m0 0h3l-1 5-2 2h-3l1-5z" fill="#fff"/>
<path transform="translate(2235,35)" d="m0 0h2v10h-3v-8z" fill="#fff"/>
<path transform="translate(3008,100)" d="m0 0 5 2-1 3h-7v-4z" fill="#fff"/>
<path transform="translate(2961,89)" d="m0 0 2 1-1 6-3 2-1-3 2-5z" fill="#fff"/>
<path transform="translate(3592,78)" d="m0 0h2l-1 6-5 5h-2v-2l4-4z" fill="#fff"/>
<path transform="translate(3640,66)" d="m0 0h5l1 4-4 2-2-3z" fill="#fff"/>
<path transform="translate(1613,66)" d="m0 0h5l1 2-2 4h-3z" fill="#fff"/>
<path transform="translate(16,47)" d="m0 0 4 1 1 3-3 2h-3v-5z" fill="#fff"/>
<path transform="translate(2090,34)" d="m0 0h3l1 6-3 3-1-5z" fill="#fff"/>
<path transform="translate(63,34)" d="m0 0h3l1 4-1 5-3-1z" fill="#fff"/>
<path transform="translate(3300,127)" d="m0 0h5v4l-3 1-3-2z" fill="#fff"/>
<path transform="translate(2933,104)" d="m0 0h2l-1 5-4 4 1-7z" fill="#F5F5F5"/>
<path transform="translate(3590,104)" d="m0 0 3 1-1 5-2 1-2-1 1-5z" fill="#fff"/>
<path transform="translate(1532,96)" d="m0 0 3 1v6l-3 1-1-7z" fill="#fff"/>
<path transform="translate(1674,85)" d="m0 0 2 1-1 4-2 3-3-1 2-5z" fill="#fff"/>
<path transform="translate(3720,69)" d="m0 0h4l-1 6-1 2h-2z" fill="#fff"/>
<path transform="translate(2044,47)" d="m0 0 4 2-1 3-4 1-1-5z" fill="#fff"/>
<path transform="translate(68,40)" d="m0 0h3l2 3-1 4-4-1z" fill="#fff"/>
<path transform="translate(2226,29)" d="m0 0h2l-1 9h-3l1-7z" fill="#fff"/>
<path transform="translate(1422,151)" d="m0 0h5l1 5-4-1-3-3z" fill="#fff"/>
<path transform="translate(1273,127)" d="m0 0h5v4l-3 1-3-2z" fill="#fff"/>
<path transform="translate(724,95)" d="m0 0 6 1v5l-4-1-2-2z" fill="#fff"/>
<path transform="translate(2969,95)" d="m0 0h2v8l-3 1v-8z" fill="#fff"/>
<path transform="translate(942,95)" d="m0 0h2v8l-3 1v-8z" fill="#fff"/>
<path transform="translate(3628,91)" d="m0 0h3l-1 4-2 3h-3l2-6z" fill="#fff"/>
<path transform="translate(3700,86)" d="m0 0h3l-1 4-2 3h-2l-1-3z" fill="#fff"/>
<path transform="translate(1762,83)" d="m0 0 4 1v4h-4l-1-4z" fill="#fff"/>
<path transform="translate(2182,46)" d="m0 0 3 1h3v4l-7-1z" fill="#fff"/>
<path transform="translate(199,30)" d="m0 0h2v6l-1 2h-3l1-7z" fill="#fff"/>
<path transform="translate(3416,134)" d="m0 0h12v2h-12z" fill="#fff"/>
<path transform="translate(1389,134)" d="m0 0h12v2h-12z" fill="#fff"/>
<path transform="translate(891,105)" d="m0 0h6v4h-6l-1-3z" fill="#fff"/>
<path transform="translate(905,104)" d="m0 0 3 1-2 6-3 1v-5z" fill="#F4F4F4"/>
<path transform="translate(883,102)" d="m0 0 4 2-1 5h-3z" fill="#fff"/>
<path transform="translate(2686,92)" d="m0 0h6v4h-6z" fill="#fff"/>
<path transform="translate(933,90)" d="m0 0h2v7h-4z" fill="#fff"/>
<path transform="translate(1530,87)" d="m0 0 5 1v3l-5 1-1-3z" fill="#fff"/>
<path transform="translate(1710,76)" d="m0 0 2 1v6l-1 2-3-1 1-7z" fill="#fff"/>
<path transform="translate(1574,74)" d="m0 0 3 1v8l-3-1z" fill="#fff"/>
<path transform="translate(2784,66)" d="m0 0 4 1-1 4-5-1z" fill="#fff"/>
<path transform="translate(2168,44)" d="m0 0h3l-1 5-4 1 1-5z" fill="#fff"/>
<path transform="translate(265,43)" d="m0 0 4 1v5l-4-1-1-4z" fill="#fff"/>
<path transform="translate(854,115)" d="m0 0 2 4-1 5-3-2 1-6z" fill="#fff"/>
<path transform="translate(3647,97)" d="m0 0 3 1v6l-3 1-1-3z" fill="#fff"/>
<path transform="translate(659,92)" d="m0 0h6l-1 4h-5z" fill="#fff"/>
<path transform="translate(2954,87)" d="m0 0 3 1-1 7-3-1-1-3z" fill="#fff"/>
<path transform="translate(926,87)" d="m0 0h3v6l-3 3z" fill="#fff"/>
<path transform="translate(2045,58)" d="m0 0h3v7l-3-1-1-5z" fill="#fff"/>
<path transform="translate(18,57)" d="m0 0 3 2v5h-3l-1-6z" fill="#fff"/>
<path transform="translate(2823,48)" d="m0 0 4 2-1 4-4-1z" fill="#fff"/>
<path transform="translate(2096,40)" d="m0 0h2l2 3v4h-4l-1-6z" fill="#fff"/>
<path transform="translate(1562,115)" d="m0 0 3 1-1 4-4 1 1-5z" fill="#fff"/>
<path transform="translate(1620,98)" d="m0 0h3v6h-4z" fill="#fff"/>
<path transform="translate(3558,87)" d="m0 0 4 1v3l-5 1v-4z" fill="#fff"/>
<path transform="translate(2872,85)" d="m0 0h5l1 4h-4z" fill="#fff"/>
<path transform="translate(845,85)" d="m0 0h5l1 2-2 4-4-4z" fill="#fff"/>
<path transform="translate(3736,76)" d="m0 0h2v9h-3z" fill="#fff"/>
<path transform="translate(3709,72)" d="m0 0h3l-1 5h-4z" fill="#fff"/>
<path transform="translate(3727,71)" d="m0 0h2v8h-3v-6z" fill="#fff"/>
<path transform="translate(757,66)" d="m0 0h3l1 4-5 1v-4z" fill="#fff"/>
<path transform="translate(2454,51)" d="m0 0 3 1-1 4h-4l1-4z" fill="#fff"/>
<path transform="translate(2366,44)" d="m0 0 4 1 2 4-5-1-2-1z" fill="#fff"/>
<path transform="translate(141,44)" d="m0 0h2v5l-4 1v-4z" fill="#fff"/>
<path transform="translate(1362,148)" d="m0 0h5l1 3-6 1z" fill="#fff"/>
<path transform="translate(3417,125)" d="m0 0 3 1-2 4-6-3v-1z" fill="#fff"/>
<path transform="translate(1389,125)" d="m0 0 3 1v4l-4-1-3-3z" fill="#fff"/>
<path transform="translate(879,103)" d="m0 0 3 1-1 4h-4z" fill="#fff"/>
<path transform="translate(2942,91)" d="m0 0h2l1 5-4 2-1-3z" fill="#fff"/>
<path transform="translate(3550,88)" d="m0 0h2l2 4v4l-3-1-2-6z" fill="#fff"/>
<path transform="translate(3789,83)" d="m0 0 5 2-1 4-4-2z" fill="#fff"/>
<path transform="translate(1682,72)" d="m0 0 3 1-2 5h-3l1-5z" fill="#fff"/>
<path transform="translate(235,41)" d="m0 0 5 1 2 3-3 1-4-2z" fill="#fff"/>
<path transform="translate(178,32)" d="m0 0 4 1-2 4-3 1z" fill="#fff"/>
<path transform="translate(2188,28)" d="m0 0h4v6l-4-2z" fill="#fff"/>
<path transform="translate(3022,101)" d="m0 0 3 1 1 5-4-1-1-4z" fill="#fff"/>
<path transform="translate(1526,100)" d="m0 0h3v6h-3l-1-4z" fill="#fff"/>
<path transform="translate(914,91)" d="m0 0 4 4-4 3-1-5z" fill="#fff"/>
<path transform="translate(1522,88)" d="m0 0h2v3h2l1 4h-4z" fill="#fff"/>
<path transform="translate(3580,82)" d="m0 0 4 2v3l-5-1z" fill="#fff"/>
<path transform="translate(3693,69)" d="m0 0 4 1v4l-4-1z" fill="#fff"/>
<path transform="translate(427,51)" d="m0 0h2v5l-4 1 1-5z" fill="#fff"/>
<path transform="translate(339,44)" d="m0 0 4 1 1 4-6-2z" fill="#fff"/>
<path transform="translate(2132,42)" d="m0 0h3v5h-4z" fill="#fff"/>
<path transform="translate(2075,33)" d="m0 0h2l-1 7-3-1 1-5z" fill="#fff"/>
<path transform="translate(2205,32)" d="m0 0h3l1 4-4 2-1-3z" fill="#fff"/>
<path transform="translate(3589,115)" d="m0 0 3 1-1 4-3 1-1-3z" fill="#F1F1F1"/>
<path transform="translate(3516,107)" d="m0 0 4 1-2 4h-3z" fill="#fff"/>
<path transform="translate(3678,84)" d="m0 0 3 1-1 5h-2l-1-5z" fill="#fff"/>
<path transform="translate(2715,82)" d="m0 0 7 1v2h-7z" fill="#F1F1F1"/>
<path transform="translate(382,48)" d="m0 0h4l-1 5h-3z" fill="#fff"/>
<path transform="translate(2068,41)" d="m0 0 3 2-1 4h-3v-5z" fill="#fff"/>
<path transform="translate(3389,148)" d="m0 0h5l-1 4-4-1z" fill="#fff"/>
<path transform="translate(1488,107)" d="m0 0 4 1-1 4h-3z" fill="#fff"/>
<path transform="translate(2705,96)" d="m0 0h3v6l-2 1z" fill="#fff"/>
<path transform="translate(3759,92)" d="m0 0h2v5h-4z" fill="#fff"/>
<path transform="translate(3940,91)" d="m0 0h3l-1 5-4-1z" fill="#fff"/>
<path transform="translate(1913,91)" d="m0 0 3 1-3 5-2-1 1-4z" fill="#fff"/>
<path transform="translate(3858,84)" d="m0 0 5 1v3l-6-1z" fill="#fff"/>
<path transform="translate(1832,84)" d="m0 0 4 1v3l-6-1v-2z" fill="#fff"/>
<path transform="translate(688,82)" d="m0 0h5l1 3h-6z" fill="#fff"/>
<path transform="translate(3607,81)" d="m0 0 4 2-2 4h-2z" fill="#fff"/>
<path transform="translate(733,75)" d="m0 0 4 2-3 3-3-1v-3z" fill="#fff"/>
<path transform="translate(1700,71)" d="m0 0 2 1-1 7h-2v-6z" fill="#fff"/>
<path transform="translate(1666,69)" d="m0 0h3l1 3-1 2h-3l-1-4z" fill="#fff"/>
<path transform="translate(2259,53)" d="m0 0h3l-1 5-3 1z" fill="#fff"/>
<path transform="translate(795,49)" d="m0 0h4l-1 5-3-1z" fill="#fff"/>
<path transform="translate(2409,48)" d="m0 0h4l-1 5-3-1z" fill="#fff"/>
<path transform="translate(105,42)" d="m0 0h3l-1 6-3-1z" fill="#fff"/>
<path transform="translate(2262,41)" d="m0 0 5 1 2 3h-5z" fill="#fff"/>
<path transform="translate(41,41)" d="m0 0h2v6h-3v-5z" fill="#fff"/>
<path transform="translate(243,38)" d="m0 0h2v5l-2 1-2-1 1-4z" fill="#fff"/>
<path transform="translate(3457,132)" d="m0 0h3l-1 5-3-1z" fill="#fff"/>
<path transform="translate(1145,110)" d="m0 0h3l-1 5h-3z" fill="#fff"/>
<path transform="translate(2921,105)" d="m0 0 4 1-1 4-3-1z" fill="#fff"/>
<path transform="translate(967,100)" d="m0 0 4 1 1 4h-3z" fill="#fff"/>
<path transform="translate(3898,88)" d="m0 0h4v4l-5-1z" fill="#fff"/>
<path transform="translate(1651,84)" d="m0 0 3 1-1 5-3-1z" fill="#fff"/>
<path transform="translate(1553,82)" d="m0 0 3 1v4l-4-1z" fill="#fff"/>
<path transform="translate(1580,81)" d="m0 0 4 2-2 4-2-1z" fill="#fff"/>
<path transform="translate(2760,75)" d="m0 0 4 2-1 2h-5z" fill="#fff"/>
<path transform="translate(42,55)" d="m0 0h4l-2 4h-3z" fill="#fff"/>
<path transform="translate(47,33)" d="m0 0h2v6h-3z" fill="#fff"/>
<path transform="translate(3320,137)" d="m0 0 3 1-1 5-2-1-1-4z" fill="#fff"/>
<path transform="translate(3303,134)" d="m0 0h3l-1 5-3-1z" fill="#fff"/>
<path transform="translate(1430,132)" d="m0 0 3 1-1 4-3-1z" fill="#fff"/>
<path transform="translate(1494,111)" d="m0 0 3 1-5 4-2-2z" fill="#fff"/>
<path transform="translate(3172,110)" d="m0 0h3l-1 5-3-1z" fill="#fff"/>
<path transform="translate(1063,103)" d="m0 0 5 1v3l-4-1z" fill="#fff"/>
<path transform="translate(2994,100)" d="m0 0 4 1 1 4-4-2z" fill="#fff"/>
<path transform="translate(974,98)" d="m0 0h3l-1 4-3 1z" fill="#fff"/>
<path transform="translate(3583,94)" d="m0 0h2l-1 4-3 1-1-4z" fill="#fff"/>
<path transform="translate(1556,94)" d="m0 0h2l-2 4h-4l1-3z" fill="#fff"/>
<path transform="translate(3641,82)" d="m0 0 3 1-1 4h-3z" fill="#fff"/>
<path transform="translate(1614,82)" d="m0 0h2v5l-3 1v-5z" fill="#fff"/>
<path transform="translate(1741,79)" d="m0 0 3 1-1 4-3-1z" fill="#fff"/>
<path transform="translate(1560,74)" d="m0 0 2 1-1 4h-2l-1 2 1-6z" fill="#fff"/>
<path transform="translate(2069,55)" d="m0 0h4l-2 4h-3z" fill="#fff"/>
<path transform="translate(2827,53)" d="m0 0h3v3l-4 2v-4z" fill="#fff"/>
<path transform="translate(800,53)" d="m0 0h3v3l-6 1z" fill="#fff"/>
<path transform="translate(232,53)" d="m0 0 3 1-1 4h-3z" fill="#fff"/>
<path transform="translate(158,46)" d="m0 0h2l1 5h-4z" fill="#fff"/>
<path transform="translate(4057,132)" d="m0 0h3l-1 6h-2z" fill="#eee"/>
<path transform="translate(3091,103)" d="m0 0 4 1v3l-4-1z" fill="#fff"/>
<path transform="translate(3e3 98)" d="m0 0h3l-1 4h-3z" fill="#fff"/>
<path transform="translate(679,96)" d="m0 0 2 1v5l-3-1z" fill="#fff"/>
<path transform="translate(1732,92)" d="m0 0 2 1-1 5-3-1z" fill="#fff"/>
<path transform="translate(674,92)" d="m0 0 3 1-1 4-3-1z" fill="#fff"/>
<path transform="translate(1871,88)" d="m0 0 4 1-1 3-4-1z" fill="#fff"/>
<path transform="translate(3673,85)" d="m0 0h3v4h-4z" fill="#fff"/>
<path transform="translate(1646,85)" d="m0 0h3l-1 4h-3z" fill="#fff"/>
<path transform="translate(648,82)" d="m0 0 1 3h-7v-2z" fill="#fff"/>
<path transform="translate(3762,81)" d="m0 0 5 2v3l-5-2z" fill="#fff"/>
<path transform="translate(586,80)" d="m0 0 2 1v4l-3 1-1-3z" fill="#fff"/>
<path transform="translate(3769,79)" d="m0 0h2v4l-3 1-1-4z" fill="#fff"/>
<path transform="translate(738,75)" d="m0 0 4 1 1 4-4-2z" fill="#fff"/>
<path transform="translate(2125,59)" d="m0 0 3 1-2 4h-2z" fill="#fff"/>
<path transform="translate(7,56)" d="m0 0 3 1v5l-4-3z" fill="#fff"/>
<path transform="translate(2353,42)" d="m0 0 3 1-2 5-2-4z" fill="#fff"/>
<path transform="translate(1389,138)" d="m0 0 5 1-3 3-2-1z" fill="#fff"/>
<path transform="translate(1276,134)" d="m0 0 3 1-1 4-3-1z" fill="#fff"/>
<path transform="translate(3480,123)" d="m0 0 3 1-2 4-2-1z" fill="#fff"/>
<path transform="translate(1453,123)" d="m0 0 3 1-2 4-2-1z" fill="#F6F4F4"/>
<path transform="translate(4071,115)" d="m0 0h2v5h-3z" fill="#fff"/>
<path transform="translate(3132,106)" d="m0 0h2v5h-3z" fill="#fff"/>
<path transform="translate(2580,96)" d="m0 0 3 1-2 4h-2z" fill="#fff"/>
<path transform="translate(1522,96)" d="m0 0 4 2v2h-4l-1-3z" fill="#fff"/>
<path transform="translate(2702,92)" d="m0 0h2l-1 5-3-1z" fill="#fff"/>
<path transform="translate(2613,80)" d="m0 0 2 1-1 5-2-1z" fill="#fff"/>
<path transform="translate(1735,81)" d="m0 0 4 2 1 3-5-2z" fill="#fff"/>
<path transform="translate(2594,78)" d="m0 0h3l-1 4h-3z" fill="#fff"/>
<path transform="translate(2766,75)" d="m0 0 4 2-1 4-3-4z" fill="#fff"/>
<path transform="translate(389,56)" d="m0 0 4 2-2 2h-3z" fill="#fff"/>
<path transform="translate(2271,38)" d="m0 0h1v5h-3v-3z" fill="#fff"/>
<path transform="translate(3403,148)" d="m0 0h2l-1 5h-2z" fill="#fff"/>
<path transform="translate(1376,148)" d="m0 0h2l-1 5-2 1v-5z" fill="#fff"/>
<path transform="translate(3312,146)" d="m0 0h3l-1 4-3-1z" fill="#fff"/>
<path transform="translate(1284,146)" d="m0 0 4 1-1 3-3-1z" fill="#fff"/>
<path transform="translate(4088,118)" d="m0 0h2l-1 5h-2z" fill="#fff"/>
<path transform="translate(1104,107)" d="m0 0h3l-1 4-3-1z" fill="#fff"/>
<path transform="translate(1051,101)" d="m0 0 3 1-1 4h-2z" fill="#fff"/>
<path transform="translate(3897,95)" d="m0 0 3 1-1 3h-3z" fill="#EBEBEB"/>
<path transform="translate(553,96)" d="m0 0h2v5h-3z" fill="#fff"/>
<path transform="translate(2745,94)" d="m0 0 4 1v3l-4-1z" fill="#fff"/>
<path transform="translate(683,92)" d="m0 0h8v2h-8z" fill="#fff"/>
<path transform="translate(2603,91)" d="m0 0h4v3l-5-1z" fill="#fff"/>
<path transform="translate(1608,91)" d="m0 0h2l-1 5h-2z" fill="#fff"/>
<path transform="translate(3742,76)" d="m0 0h2l-1 5h-2z" fill="#EBEBEB"/>
<path transform="translate(98,59)" d="m0 0h2l-1 5h-2z" fill="#EBEBEB"/>
<path transform="translate(2034,57)" d="m0 0h3l1 4h-3z" fill="#fff"/>
<path transform="translate(2399,53)" d="m0 0 3 1 1 4-4-2z" fill="#fff"/>
<path transform="translate(10,52)" d="m0 0 3 3-4 1-1-3z" fill="#fff"/>
<path transform="translate(325,43)" d="m0 0 4 1-2 4-2-2z" fill="#fff"/>
<path transform="translate(3444,149)" d="m0 0 3 1v3l-4-1z" fill="#fff"/>
<path transform="translate(3417,138)" d="m0 0 4 1v2h-5z" fill="#fff"/>
<path transform="translate(1110,114)" d="m0 0 4 1-1 2h-4z" fill="#fff"/>
<path transform="translate(1102,114)" d="m0 0 4 1-1 2h-4z" fill="#fff"/>
<path transform="translate(964,112)" d="m0 0 3 2-1 3h-2l-1-4z" fill="#fff"/>
<path transform="translate(2991,112)" d="m0 0h2l-1 5h-2z" fill="#fff"/>
<path transform="translate(3159,109)" d="m0 0 3 1 1 5h-2z" fill="#fff"/>
<path transform="translate(3007,106)" d="m0 0 3 1-1 4-2-1z" fill="#fff"/>
<path transform="translate(3079,101)" d="m0 0 2 1-1 4h-2z" fill="#fff"/>
<path transform="translate(1631,99)" d="m0 0 4 1-1 3-3-1z" fill="#fff"/>
<path transform="translate(2740,95)" d="m0 0h2l-1 4-3 1z" fill="#fff"/>
<path transform="translate(975,93)" d="m0 0h3l-1 4-3-1z" fill="#fff"/>
<path transform="translate(3636,91)" d="m0 0 2 1-1 4-3-1z" fill="#fff"/>
<path transform="translate(1715,76)" d="m0 0 2 1-1 4h-2z" fill="#fff"/>
<path transform="translate(381,56)" d="m0 0 3 1-1 3h-3z" fill="#fff"/>
<path transform="translate(2111,45)" d="m0 0 3 1-4 3h-2l1-3z" fill="#fff"/>
<path transform="translate(2271,33)" d="m0 0 3 1-1 3-3-1z" fill="#fff"/>
<path transform="translate(244,33)" d="m0 0 3 1-1 3-3-1z" fill="#fff"/>
<path transform="translate(1417,149)" d="m0 0 3 2v2l-4-1z" fill="#fff"/>
<path transform="translate(1477,127)" d="m0 0 4 1v2l-5-1z" fill="#fff"/>
<path transform="translate(1202,115)" d="m0 0h2l-1 5-2-1z" fill="#fff"/>
<path transform="translate(3137,114)" d="m0 0 4 1-1 2-4-1z" fill="#fff"/>
<path transform="translate(916,98)" d="m0 0h3l-1 4h-2z" fill="#fff"/>
<path transform="translate(1870,95)" d="m0 0 3 1v2l-4 1z" fill="#E7E7E7"/>
<path transform="translate(2681,92)" d="m0 0 4 1-1 3-3-2z" fill="#fff"/>
<path transform="translate(654,92)" d="m0 0h3v4l-3-1z" fill="#fff"/>
<path transform="translate(2905,91)" d="m0 0 4 1v2h-4z" fill="#fff"/>
<path transform="translate(878,91)" d="m0 0 4 1-1 2-4-1z" fill="#D0D0D0"/>
<path transform="translate(685,86)" d="m0 0h2l1 3h-4z" fill="#E7E7E7"/>
<path transform="translate(3586,74)" d="m0 0h2v5l-3-1z" fill="#fff"/>
<path transform="translate(3715,72)" d="m0 0 2 1-1 4-2-1z" fill="#fff"/>
<path transform="translate(1687,72)" d="m0 0 3 1-1 3h-3z" fill="#fff"/>
<path transform="translate(2152,60)" d="m0 0h2v4h-3z" fill="#fff"/>
<path transform="translate(2037,52)" d="m0 0h2v4h-3z" fill="#fff"/>
<path transform="translate(154,46)" d="m0 0h2v5l-3-2z" fill="#B9B9B9"/>
<path transform="translate(84,44)" d="m0 0 2 2-3 1v2h-2l2-4z" fill="#fff"/>
<path transform="translate(214,36)" d="m0 0h2v4h-3z" fill="#fff"/>
<path transform="translate(2166,32)" d="m0 0h4v3l-4-1z" fill="#fff"/>
<path transform="translate(43,32)" d="m0 0 2 1-3 4h-2l2-4z" fill="#fff"/>
<path transform="translate(2152,26)" d="m0 0 4 2-1 2-3-1z" fill="#fff"/>
<path transform="translate(3430,152)" d="m0 0 2 1v3h-3z" fill="#fff"/>
<path transform="translate(1402,153)" d="m0 0h3v3l-4-1z" fill="#fff"/>
<path transform="translate(1352,148)" d="m0 0h2l-1 4h-2z" fill="#fff"/>
<path transform="translate(3384,147)" d="m0 0 3 1v3l-3-1z" fill="#F3F1F1"/>
<path transform="translate(4079,127)" d="m0 0 3 1v2h-4z" fill="#D8D9D9"/>
<path transform="translate(1133,109)" d="m0 0h2v6l-2-2z" fill="#fff"/>
<path transform="translate(2919,104)" d="m0 0h1v5l-3-1z" fill="#fff"/>
<path transform="translate(3634,98)" d="m0 0 2 1v3h-3z" fill="#fff"/>
<path transform="translate(1606,99)" d="m0 0 3 1-3 3z" fill="#fff"/>
<path transform="translate(713,95)" d="m0 0h2v4l-3-1z" fill="#fff"/>
<path transform="translate(718,94)" d="m0 0h3l-1 4-2-1z" fill="#fff"/>
<path transform="translate(3e3 93)" d="m0 0 4 1-1 2h-3z" fill="#fff"/>
<path transform="translate(1900,91)" d="m0 0h2l2 5-3-1z" fill="#fff"/>
<path transform="translate(2872,90)" d="m0 0h3v3l-4-1z" fill="#fff"/>
<path transform="translate(2712,86)" d="m0 0 3 1v2h-4z" fill="#fff"/>
<path transform="translate(1819,83)" d="m0 0h2v4l-3-1z" fill="#fff"/>
<path transform="translate(567,78)" d="m0 0 3 1-1 3h-2z" fill="#fff"/>
<path transform="translate(3770,74)" d="m0 0 3 1-3 3z" fill="#F2F2F2"/>
<path transform="translate(1742,74)" d="m0 0 4 1-1 2h-3z" fill="#fff"/>
<path transform="translate(1633,72)" d="m0 0 2 2-5 1v-2z" fill="#fff"/>
<path transform="translate(629,70)" d="m0 0h4l-1 3-3-1z" fill="#fff"/>
<path transform="translate(2416,57)" d="m0 0h3v3l-4-1z" fill="#fff"/>
<path transform="translate(2407,57)" d="m0 0h4l-1 3-3-1z" fill="#fff"/>
<path transform="translate(2127,52)" d="m0 0h2l-1 4h-2z" fill="#fff"/>
<path transform="translate(100,52)" d="m0 0h2l-1 4h-2z" fill="#fff"/>
<path transform="translate(2035,47)" d="m0 0h1v6l-2-1z" fill="#fff"/>
<path transform="translate(2284,35)" d="m0 0h2v4l-3-1z" fill="#fff"/>
<path transform="translate(256,35)" d="m0 0 3 1-1 3h-2z" fill="#fff"/>
<path transform="translate(139,32)" d="m0 0h4l-1 3-3-1z" fill="#fff"/>
<path transform="translate(3289,152)" d="m0 0h3v3h-3z" fill="#fff"/>
<path transform="translate(3379,148)" d="m0 0h2v4l-3-1z" fill="#E2E2E2"/>
<path transform="translate(3413,142)" d="m0 0 3 1-1 2h-3z" fill="#C6C6C6"/>
<path transform="translate(3355,117)" d="m0 0 3 1-1 3-2-1z" fill="#fff"/>
<path transform="translate(3167,114)" d="m0 0h3v3h-3z" fill="#E2E2E2"/>
<path transform="translate(3129,114)" d="m0 0h3v3h-3z" fill="#fff"/>
<path transform="translate(2944,98)" d="m0 0h2l-1 4-2-1z" fill="#fff"/>
<path transform="translate(948,96)" d="m0 0h2l-1 4-2-1z" fill="#fff"/>
<path transform="translate(3014,95)" d="m0 0h2l-1 4-2-1z" fill="#fff"/>
<path transform="translate(986,95)" d="m0 0 3 1-1 3-2-1z" fill="#fff"/>
<path transform="translate(3870,93)" d="m0 0 3 1-1 2h-3z" fill="#fff"/>
<path transform="translate(3618,90)" d="m0 0 2 1-1 3h-2z" fill="#fff"/>
<path transform="translate(3691,86)" d="m0 0 2 1-1 3h-2z" fill="#E2E2E2"/>
<path transform="translate(1663,86)" d="m0 0 2 1v3l-3-1z" fill="#fff"/>
<path transform="translate(3619,85)" d="m0 0h2l-1 4h-2z" fill="#fff"/>
<path transform="translate(3846,83)" d="m0 0 3 1-1 3h-2z" fill="#fff"/>
<path transform="translate(3581,74)" d="m0 0h2l-1 4h-2z" fill="#fff"/>
<path transform="translate(1554,74)" d="m0 0h2l-1 4h-2z" fill="#fff"/>
<path transform="translate(1646,72)" d="m0 0h3l-1 3-3-1z" fill="#fff"/>
<path transform="translate(3547,67)" d="m0 0 3 1v2h-4z" fill="#fff"/>
<path transform="translate(623,59)" d="m0 0 3 1-1 3-2-1z" fill="#E2E2E2"/>
<path transform="translate(7,48)" d="m0 0h2l-1 5h-1z" fill="#fff"/>
<path transform="translate(2058,36)" d="m0 0 2 1v3l-3-1z" fill="#fff"/>
<path transform="translate(273,36)" d="m0 0 3 1-1 3-2-1z" fill="#D5D5D3"/>
<path transform="translate(2069,33)" d="m0 0h2v3l-3 1z" fill="#fff"/>
<path transform="translate(2032,26)" d="m0 0 2 1v3l-3-1z" fill="#fff"/>
<path transform="translate(125,26)" d="m0 0 3 1v3l-3-1z" fill="#fff"/>
<path transform="translate(1357,147)" d="m0 0h2v4h-2z" fill="#fff"/>
<path transform="translate(1385,142)" d="m0 0 3 1v2h-3z" fill="#fff"/>
<path transform="translate(3356,138)" d="m0 0 4 1-3 2z" fill="#fff"/>
<path transform="translate(1314,137)" d="m0 0 1 3-3 1z" fill="#fff"/>
<path transform="translate(3504,127)" d="m0 0 3 1v2h-3z" fill="#fff"/>
<path transform="translate(2891,119)" d="m0 0 4 1-3 2z" fill="#fff"/>
<path transform="translate(1328,117)" d="m0 0 3 1v2h-3z" fill="#fff"/>
<path transform="translate(4094,115)" d="m0 0h2v4h-2z" fill="#fff"/>
<path transform="translate(3229,115)" d="m0 0h2v4h-2z" fill="#fff"/>
<path transform="translate(3108,104)" d="m0 0h3v3l-3-1z" fill="#fff"/>
<path transform="translate(2677,92)" d="m0 0 2 3-3 1z" fill="#fff"/>
<path transform="translate(1842,93)" d="m0 0h3l-1 3h-2z" fill="#fff"/>
<path transform="translate(649,92)" d="m0 0h2v4h-2z" fill="#fff"/>
<path transform="translate(626,91)" d="m0 0 3 1-1 2-3-1z" fill="#BFBFBF"/>
<path transform="translate(2886,91)" d="m0 0h3l-1 3h-2z" fill="#fff"/>
<path transform="translate(859,91)" d="m0 0 3 1-1 2-3-1z" fill="#fff"/>
<path transform="translate(1659,86)" d="m0 0 2 1-1 3-2-1z" fill="#fff"/>
<path transform="translate(1849,85)" d="m0 0 3 1v2h-3z" fill="#fff"/>
<path transform="translate(1592,85)" d="m0 0h2l-2 4-1-3z" fill="#fff"/>
<path transform="translate(3586,82)" d="m0 0h2v4h-2z" fill="#fff"/>
<path transform="translate(2674,82)" d="m0 0h2v3h-3z" fill="#fff"/>
<path transform="translate(2651,81)" d="m0 0 4 1-3 2z" fill="#fff"/>
<path transform="translate(2633,81)" d="m0 0h3l-1 3h-2z" fill="#fff"/>
<path transform="translate(625,80)" d="m0 0 2 1v2l-4-1z" fill="#DFDFDF"/>
<path transform="translate(1544,77)" d="m0 0h2l-1 4-2-3z" fill="#fff"/>
<path transform="translate(3673,72)" d="m0 0h3l-1 3h-2z" fill="#fff"/>
<path transform="translate(1549,72)" d="m0 0h3l-1 3h-2z" fill="#fff"/>
<path transform="translate(2657,70)" d="m0 0h3l-1 3h-2z" fill="#fff"/>
<path transform="translate(1520,67)" d="m0 0 2 1-1 3-2-1z" fill="#fff"/>
<path transform="translate(2806,62)" d="m0 0 3 3-3 1z" fill="#fff"/>
<path transform="translate(2052,55)" d="m0 0h3l-1 3h-2z" fill="#fff"/>
<path transform="translate(25,55)" d="m0 0h3l-1 3h-2z" fill="#fff"/>
<path transform="translate(2385,46)" d="m0 0h3v3l-3-1z" fill="#fff"/>
<path transform="translate(358,46)" d="m0 0h3v3l-3-1z" fill="#fff"/>
<path transform="translate(45,42)" d="m0 0h3v3l-3-1z" fill="#DFDFDF"/>
<path transform="translate(2207,39)" d="m0 0h3v3l-3-1z" fill="#fff"/>
<path transform="translate(2301,36)" d="m0 0 2 1v3h-2l-1-3z" fill="#fff"/>
<path transform="translate(2123,37)" d="m0 0 3 1-4 2z" fill="#fff"/>
<path transform="translate(95,37)" d="m0 0h3l-1 3h-2z" fill="#fff"/>
<path transform="translate(2241,36)" d="m0 0h2v4h-2z" fill="#fff"/>
<path transform="translate(30,36)" d="m0 0h2v4h-2z" fill="#fff"/>
<path transform="translate(2211,32)" d="m0 0 3 1v2h-3z" fill="#fff"/>
<path transform="translate(2153,32)" d="m0 0h2l-1 3-3-1z" fill="#fff"/>
<path transform="translate(2146,31)" d="m0 0 3 1v2h-3z" fill="#fff"/>
<path transform="translate(4,27)" d="m0 0h3l-1 3h-2z" fill="#fff"/>
<path transform="translate(3439,151)" d="m0 0h2l-1 4z" fill="#fff"/>
<path transform="translate(1412,151)" d="m0 0h2l-1 3h-2z" fill="#fff"/>
<path transform="translate(3340,138)" d="m0 0h2l-1 3h-2z" fill="#fff"/>
<path transform="translate(1329,138)" d="m0 0h3l-1 3-2-1z" fill="#fff"/>
<path transform="translate(3351,120)" d="m0 0 3 1-1 2h-2z" fill="#fff"/>
<path transform="translate(1324,120)" d="m0 0h2v3l-3-1z" fill="#fff"/>
<path transform="translate(1140,114)" d="m0 0h2v3l-3-1z" fill="#fff"/>
<path transform="translate(1082,104)" d="m0 0h2v3l-3-1z" fill="#fff"/>
<path transform="translate(2990,100)" d="m0 0 2 1v2h-3z" fill="#fff"/>
<path transform="translate(963,100)" d="m0 0 2 1v2h-3z" fill="#fff"/>
<path transform="translate(2730,97)" d="m0 0 2 1v3h-2z" fill="#fff"/>
<path transform="translate(3905,95)" d="m0 0 2 1v2h-3z" fill="#fff"/>
<path transform="translate(2973,96)" d="m0 0 3 1-1 2h-2z" fill="#fff"/>
<path transform="translate(1878,95)" d="m0 0 2 1v2h-3z" fill="#fff"/>
<path transform="translate(1e3 96)" d="m0 0h3l-1 3-2-1z" fill="#fff"/>
<path transform="translate(3929,93)" d="m0 0 3 1-1 2h-2z" fill="#fff"/>
<path transform="translate(2982,91)" d="m0 0h2v3l-3-1z" fill="#919191"/>
<path transform="translate(2947,92)" d="m0 0h3v2l-4-1z" fill="#fff"/>
<path transform="translate(954,91)" d="m0 0 3 1-1 2h-2z" fill="#919191"/>
<path transform="translate(919,92)" d="m0 0h3l-1 3-2-1z" fill="#fff"/>
<path transform="translate(2715,91)" d="m0 0 3 1-1 2h-2z" fill="#fff"/>
<path transform="translate(1591,90)" d="m0 0 1 4h-2z" fill="#fff"/>
<path transform="translate(2911,89)" d="m0 0 3 1-1 2h-2z" fill="#fff"/>
<path transform="translate(1581,89)" d="m0 0 3 1v2l-3-1z" fill="#fff"/>
<path transform="translate(884,89)" d="m0 0h2v3l-3-1z" fill="#DADADA"/>
<path transform="translate(3687,86)" d="m0 0 2 3h-3z" fill="#fff"/>
<path transform="translate(2947,87)" d="m0 0h3l-1 3-2-1z" fill="#B6B6B6"/>
<path transform="translate(2916,87)" d="m0 0h2l-1 4z" fill="#fff"/>
<path transform="translate(920,87)" d="m0 0 3 1-1 2h-2z" fill="#DADADA"/>
<path transform="translate(888,87)" d="m0 0h2l-1 4z" fill="#fff"/>
<path transform="translate(3876,85)" d="m0 0 3 1-1 2h-2z" fill="#fff"/>
<path transform="translate(3807,80)" d="m0 0 3 1v2l-3-1z" fill="#919191"/>
<path transform="translate(1779,79)" d="m0 0 3 2v2h-2z" fill="#919191"/>
<path transform="translate(3571,76)" d="m0 0 2 1v3h-2z" fill="#fff"/>
<path transform="translate(1754,76)" d="m0 0 3 1-1 2h-2z" fill="#fff"/>
<path transform="translate(3658,73)" d="m0 0 4 1-4 1z" fill="#fff"/>
<path transform="translate(3653,72)" d="m0 0h3l-1 3-2-1z" fill="#fff"/>
<path transform="translate(3576,72)" d="m0 0h3l-1 3-2-1z" fill="#fff"/>
<path transform="translate(1626,72)" d="m0 0 3 1-1 2h-2z" fill="#fff"/>
<path transform="translate(1656,69)" d="m0 0h2v3l-3-1z" fill="#fff"/>
<path transform="translate(3659,68)" d="m0 0 4 1-4 1z" fill="#fff"/>
<path transform="translate(1,57)" d="m0 0 3 1v2l-3-1z" fill="#fff"/>
<path transform="translate(2379,53)" d="m0 0h3l-1 3-2-1z" fill="#fff"/>
<path transform="translate(352,53)" d="m0 0 3 1-1 2h-2z" fill="#DADADA"/>
<path transform="translate(2099,50)" d="m0 0 2 1v2h-3z" fill="#fff"/>
<path transform="translate(81,51)" d="m0 0h3l-1 3-2-1z" fill="#fff"/>
<path transform="translate(2073,42)" d="m0 0h2v3l-3-1z" fill="#fff"/>
<path transform="translate(2322,38)" d="m0 0 3 1-1 2h-2z" fill="#DADADA"/>
<path transform="translate(181,39)" d="m0 0h2v3l-3-1z" fill="#fff"/>
<path transform="translate(295,38)" d="m0 0 3 1-1 2h-2z" fill="#fff"/>
<path transform="translate(126,32)" d="m0 0h2l-1 3h-2z" fill="#fff"/>
<path transform="translate(120,31)" d="m0 0 2 1v2h-3z" fill="#fff"/>
<path transform="translate(152,27)" d="m0 0 2 1v2h-3z" fill="#fff"/>
<path transform="translate(2148,25)" d="m0 0 1 4h-2z" fill="#fff"/>
<path transform="translate(1389,148)" d="m0 0h3v2h-3z" fill="#fff"/>
<path transform="translate(3362,127)" d="m0 0 2 1v2l-3-1z" fill="#fff"/>
<path transform="translate(1335,127)" d="m0 0 2 2-3 1z" fill="#fff"/>
<path transform="translate(4073,122)" d="m0 0h2v3h-2z" fill="#fff"/>
<path transform="translate(1477,113)" d="m0 0h3v2h-3z" fill="#fff"/>
<path transform="translate(1075,113)" d="m0 0h3v2h-3z" fill="#fff"/>
<path transform="translate(2901,106)" d="m0 0 2 1v2l-3-1z" fill="#fff"/>
<path transform="translate(702,98)" d="m0 0h3v2h-3z" fill="#fff"/>
<path transform="translate(3029,96)" d="m0 0 3 1-2 2z" fill="#fff"/>
<path transform="translate(2893,91)" d="m0 0 2 2-3 1z" fill="#D4D4D4"/>
<path transform="translate(2654,91)" d="m0 0 2 2-3 1z" fill="#D4D4D4"/>
<path transform="translate(864,92)" d="m0 0h3v2h-3z" fill="#D4D4D4"/>
<path transform="translate(845,91)" d="m0 0h3v2h-3z" fill="#fff"/>
<path transform="translate(2892,87)" d="m0 0 3 1-3 2z" fill="#EAE8EA"/>
<path transform="translate(912,87)" d="m0 0h2l-1 3-2-1z" fill="#fff"/>
<path transform="translate(871,87)" d="m0 0h2l-1 3-2-2z" fill="#fff"/>
<path transform="translate(864,87)" d="m0 0h3v2h-3z" fill="#fff"/>
<path transform="translate(3545,86)" d="m0 0h2v3h-2z" fill="#fff"/>
<path transform="translate(2668,83)" d="m0 0h3v2h-3z" fill="#fff"/>
<path transform="translate(606,81)" d="m0 0h2v3h-2z" fill="#fff"/>
<path transform="translate(3817,79)" d="m0 0h3v2h-3z" fill="#fff"/>
<path transform="translate(1790,79)" d="m0 0h3v2h-3z" fill="#fff"/>
<path transform="translate(1684,79)" d="m0 0h2v3h-2z" fill="#fff"/>
<path transform="translate(3614,78)" d="m0 0 3 1-2 2z" fill="#fff"/>
<path transform="translate(3780,76)" d="m0 0h3v2h-3z" fill="#fff"/>
<path transform="translate(3763,76)" d="m0 0h2v3h-2z" fill="#fff"/>
<path transform="translate(1735,76)" d="m0 0h2v3h-2z" fill="#fff"/>
<path transform="translate(3748,72)" d="m0 0h2v3h-2z" fill="#fff"/>
<path transform="translate(576,70)" d="m0 0h3v2h-3z" fill="#fff"/>
<path transform="translate(2807,68)" d="m0 0h2v3h-2z" fill="#fff"/>
<path transform="translate(1632,68)" d="m0 0h3v2h-3z" fill="#fff"/>
<path transform="translate(1627,68)" d="m0 0h3v2h-3z" fill="#fff"/>
<path transform="translate(735,67)" d="m0 0h3v2h-3z" fill="#fff"/>
<path transform="translate(2032,66)" d="m0 0h3v2h-3z" fill="#fff"/>
<path transform="translate(1602,65)" d="m0 0 2 1v2l-3-1z" fill="#fff"/>
<path transform="translate(5,66)" d="m0 0 3 1-1 2-2-1z" fill="#fff"/>
<path transform="translate(2647,62)" d="m0 0 2 2-3 1z" fill="#fff"/>
<path transform="translate(619,62)" d="m0 0h2v3h-2z" fill="#fff"/>
<path transform="translate(2651,59)" d="m0 0h2v3h-2z" fill="#fff"/>
<path transform="translate(2028,57)" d="m0 0h2v3h-2z" fill="#D4D4D4"/>
<path transform="translate(2448,56)" d="m0 0h2v3h-2z" fill="#fff"/>
<path transform="translate(421,56)" d="m0 0h2v3h-2z" fill="#fff"/>
<path transform="translate(2811,54)" d="m0 0h2v3h-2z" fill="#fff"/>
<path transform="translate(2108,51)" d="m0 0h3v2h-3z" fill="#fff"/>
<path transform="translate(2030,46)" d="m0 0 2 1v2l-3-1z" fill="#aaa"/>
<path transform="translate(132,43)" d="m0 0h2v3h-2z" fill="#fff"/>
<path transform="translate(2311,40)" d="m0 0 3 1-2 2z" fill="#BEC3C1"/>
<path transform="translate(2227,40)" d="m0 0h2v3h-2z" fill="#fff"/>
<path transform="translate(88,38)" d="m0 0h2l-1 3-2-2z" fill="#fff"/>
<path transform="translate(2263,36)" d="m0 0h3v2h-3z" fill="#fff"/>
<path transform="translate(236,36)" d="m0 0h3v2h-3z" fill="#fff"/>
<path transform="translate(96,31)" d="m0 0h2v3h-2z" fill="#fff"/>
<path transform="translate(2064,30)" d="m0 0h2v3h-2z" fill="#fff"/>
<path transform="translate(36,30)" d="m0 0h2v3h-2z" fill="#fff"/>
<path transform="translate(2173,29)" d="m0 0h2v3h-2z" fill="#fff"/>
<path transform="translate(145,29)" d="m0 0h2v3h-2z" fill="#fff"/>
<path transform="translate(2102,24)" d="m0 0h3v2h-3z" fill="#fff"/>
<path transform="translate(3330,153)" d="m0 0h2l-1 3z" fill="#fff"/>
<path transform="translate(3440,147)" d="m0 0 3 1-3 1z" fill="#fff"/>
<path transform="translate(1385,147)" d="m0 0 3 1-3 1z" fill="#fff"/>
<path transform="translate(3378,138)" d="m0 0 1 3h-2z" fill="#ccc"/>
<path transform="translate(3103,113)" d="m0 0h3v2l-3-1z" fill="#fff"/>
<path transform="translate(1483,113)" d="m0 0 3 1-3 1z" fill="#fff"/>
<path transform="translate(2934,99)" d="m0 0h2l-1 3z"/>
<path transform="translate(3050,98)" d="m0 0h2l-1 3z" fill="#fff"/>
<path transform="translate(1970,96)" d="m0 0 1 4-2-3z" fill="#fff"/>
<path transform="translate(3544,95)" d="m0 0 1 3h-2z" fill="#fff"/>
<path transform="translate(1906,96)" d="m0 0h3v2l-3-1z" fill="#fff"/>
<path transform="translate(1539,94)" d="m0 0h2l-1 3z" fill="#fff"/>
<path transform="translate(2940,87)" d="m0 0 1 3h-2z" fill="#fff"/>
<path transform="translate(1518,86)" d="m0 0 1 3h-2z" fill="#fff"/>
<path transform="translate(860,86)" d="m0 0 2 1v2h-2z" fill="#fff"/>
<path transform="translate(3564,80)" d="m0 0 2 1v2h-2z" fill="#fff"/>
<path transform="translate(1536,81)" d="m0 0h3v2l-3-1z" fill="#fff"/>
<path transform="translate(3712,79)" d="m0 0 1 3h-2z" fill="#fff"/>
<path transform="translate(3546,72)" d="m0 0h2v2l-3-1z" fill="#fff"/>
<path transform="translate(1721,72)" d="m0 0h2v2l-3-1z" fill="#fff"/>
<path transform="translate(1520,72)" d="m0 0h2v2l-3-1z" fill="#fff"/>
<path transform="translate(2604,70)" d="m0 0h2l-1 3z" fill="#fff"/>
<path transform="translate(1651,70)" d="m0 0h2v2l-3-1z" fill="#fff"/>
<path transform="translate(3654,68)" d="m0 0 3 1-3 1z" fill="#fff"/>
<path transform="translate(2864,68)" d="m0 0 3 1-3 1z" fill="#fff"/>
<path transform="translate(3629,66)" d="m0 0 3 1-3 1z" fill="#fff"/>
<path transform="translate(2515,58)" d="m0 0 1 3h-2z" fill="#fff"/>
<path transform="translate(1612,57)" d="m0 0 2 2h-3z" fill="#fff"/>
<path transform="translate(3639,57)" d="m0 0h2l-1 3z" fill="#fff"/>
<path transform="translate(2817,55)" d="m0 0 3 1-3 1z" fill="#fff"/>
<path transform="translate(784,55)" d="m0 0 3 1-3 1z" fill="#fff"/>
<path transform="translate(231,42)" d="m0 0 2 2h-3z" fill="#fff"/>
<path transform="translate(185,32)" d="m0 0 1 3h-2z" fill="#fff"/>
<path transform="translate(2124,31)" d="m0 0 2 2h-3z" fill="#fff"/>
<path transform="translate(53,32)" d="m0 0h2l-1 3z" fill="#fff"/>
<path transform="translate(2179,28)" d="m0 0 3 1-3 1z" fill="#fff"/>
<path transform="translate(2167,27)" d="m0 0 2 2h-3z" fill="#fff"/>
<path transform="translate(120,26)" d="m0 0h2l-1 3z" fill="#fff"/>
<path transform="translate(94,24)" d="m0 0 2 1v2h-2z" fill="#fff"/>
<path transform="translate(1303,153)" d="m0 0v3z" fill="#fff"/>
<path transform="translate(3412,147)" d="m0 0 2 2-3-1z" fill="#fff"/>
<path transform="translate(3358,148)" d="m0 0h2v2h-2z" fill="#fff"/>
<path transform="translate(1331,148)" d="m0 0h2v2h-2z" fill="#fff"/>
<path transform="translate(1413,147)" d="m0 0h2v2h-2z" fill="#fff"/>
<path transform="translate(3401,143)" d="m0 0 2 2-2 1z" fill="#fff"/>
<path transform="translate(1374,143)" d="m0 0 2 2-2 1z" fill="#fff"/>
<path transform="translate(1350,138)" d="m0 0 2 1h-3z" fill="#fff"/>
<path transform="translate(3313,128)" d="m0 0h2v2h-2z" fill="#fff"/>
<path transform="translate(1285,128)" d="m0 0h2v2h-2z" fill="#fff"/>
<path transform="translate(3462,124)" d="m0 0h2v2h-2z" fill="#fff"/>
<path transform="translate(1434,124)" d="m0 0h2v2h-2z" fill="#fff"/>
<path transform="translate(3511,113)" d="m0 0h2v2h-2z" fill="#fff"/>
<path transform="translate(3505,113)" d="m0 0h2v2h-2z" fill="#fff"/>
<path transform="translate(3509,107)" d="m0 0h2v2h-2z" fill="#fff"/>
<path transform="translate(1482,107)" d="m0 0h2v2h-2z" fill="#fff"/>
<path transform="translate(3548,105)" d="m0 0h2v2h-2z" fill="#fff"/>
<path transform="translate(1521,104)" d="m0 0v3z" fill="#fff"/>
<path transform="translate(2624,98)" d="m0 0h2v2h-2z" fill="#fff"/>
<path transform="translate(1023,98)" d="m0 0h2v2h-2z" fill="#fff"/>
<path transform="translate(596,98)" d="m0 0h2v2h-2z" fill="#fff"/>
<path transform="translate(3934,96)" d="m0 0h2v2h-2z" fill="#fff"/>
<path transform="translate(1517,95)" d="m0 0 2 2-3-1z" fill="#fff"/>
<path transform="translate(3566,94)" d="m0 0h2v2h-2z" fill="#fff"/>
<path transform="translate(2711,92)" d="m0 0h2v2h-2z" fill="#fff"/>
<path transform="translate(2905,87)" d="m0 0h2v2h-2z" fill="#fff"/>
<path transform="translate(2898,87)" d="m0 0h2v2h-2z" fill="#fff"/>
<path transform="translate(2887,86)" d="m0 0 2 1-1 2z" fill="#fff"/>
<path transform="translate(570,85)" d="m0 0h2v2h-2z" fill="#fff"/>
<path transform="translate(1639,83)" d="m0 0h2v2h-2z" fill="#fff"/>
<path transform="translate(1558,83)" d="m0 0h2v2h-2z" fill="#fff"/>
<path transform="translate(1701,81)" d="m0 0h2v2h-2z" fill="#fff"/>
<path transform="translate(3624,79)" d="m0 0h2v2h-2z" fill="#fff"/>
<path transform="translate(1597,79)" d="m0 0h2v2h-2z" fill="#fff"/>
<path transform="translate(3797,78)" d="m0 0h2v2h-2z" fill="#fff"/>
<path transform="translate(3631,78)" d="m0 0h2v2h-2z" fill="#fff"/>
<path transform="translate(1770,78)" d="m0 0h2v2h-2z" fill="#fff"/>
<path transform="translate(1605,78)" d="m0 0h2v2h-2z" fill="#fff"/>
<path transform="translate(1587,78)" d="m0 0h2v2h-2z" fill="#fff"/>
<path transform="translate(3640,72)" d="m0 0h2v2h-2z" fill="#fff"/>
<path transform="translate(1612,72)" d="m0 0h2v2h-2z" fill="#fff"/>
<path transform="translate(3678,70)" d="m0 0 2 2-2 1z" fill="#fff"/>
<path transform="translate(3606,71)" d="m0 0h2v2h-2z" fill="#fff"/>
<path transform="translate(1579,71)" d="m0 0h2v2h-2z" fill="#fff"/>
<path transform="translate(2677,70)" d="m0 0h2v2h-2z" fill="#fff"/>
<path transform="translate(2611,70)" d="m0 0h2v2h-2z" fill="#fff"/>
<path transform="translate(649,70)" d="m0 0h2v2h-2z" fill="#fff"/>
<path transform="translate(9,70)" d="m0 0h2v2h-2z" fill="#fff"/>
<path transform="translate(3665,68)" d="m0 0h2v2h-2z" fill="#fff"/>
<path transform="translate(2728,68)" d="m0 0h2v2h-2z" fill="#fff"/>
<path transform="translate(1638,68)" d="m0 0h2v2h-2z" fill="#fff"/>
<path transform="translate(837,68)" d="m0 0h2v2h-2z" fill="#fff"/>
<path transform="translate(2764,67)" d="m0 0h2v2h-2z" fill="#fff"/>
<path transform="translate(3613,66)" d="m0 0h2v2h-2z" fill="#fff"/>
<path transform="translate(3601,64)" d="m0 0h2v2h-2z" fill="#fff"/>
<path transform="translate(1574,64)" d="m0 0h2v2h-2z" fill="#fff"/>
<path transform="translate(487,58)" d="m0 0 2 1-2 2z" fill="#fff"/>
<path transform="translate(2442,55)" d="m0 0h2v2h-2z" fill="#fff"/>
<path transform="translate(790,55)" d="m0 0h2v2h-2z" fill="#fff"/>
<path transform="translate(415,55)" d="m0 0h2v2h-2z" fill="#fff"/>
<path transform="translate(3550,54)" d="m0 0h2v2h-2z" fill="#fff"/>
<path transform="translate(1522,54)" d="m0 0h2v2h-2z" fill="#fff"/>
<path transform="translate(2440,51)" d="m0 0h2v2h-2z" fill="#fff"/>
<path transform="translate(412,51)" d="m0 0h2v2h-2z" fill="#fff"/>
<path transform="translate(71,51)" d="m0 0h2v2h-2z" fill="#fff"/>
<path transform="translate(2,47)" d="m0 0h2v2h-2z" fill="#fff"/>
<path transform="translate(2160,43)" d="m0 0h2v2h-2z" fill="#fff"/>
<path transform="translate(284,40)" d="m0 0h2v2h-2z" fill="#fff"/>
<path transform="translate(201,40)" d="m0 0 2 1-2 2z" fill="#fff"/>
<path transform="translate(2115,38)" d="m0 0h2v2h-2z" fill="#fff"/>
<path transform="translate(2051,34)" d="m0 0h2v2h-2z" fill="#fff"/>
<path transform="translate(24,34)" d="m0 0h2v2h-2z" fill="#fff"/>
<path transform="translate(2249,32)" d="m0 0h2v2h-2z" fill="#fff"/>
<path transform="translate(2080,32)" d="m0 0h2v2h-2z" fill="#fff"/>
<path transform="translate(222,32)" d="m0 0h2v2h-2z" fill="#fff"/>
<path transform="translate(68,30)" d="m0 0h2v2h-2z" fill="#fff"/>
<path transform="translate(2159,27)" d="m0 0h2v2h-2z" fill="#fff"/>
<path transform="translate(132,27)" d="m0 0h2v2h-2z" fill="#fff"/>
<path transform="translate(2126,25)" d="m0 0 2 2-2 1z" fill="#fff"/>
<path transform="translate(2120,24)" d="m0 0h2v2h-2z" fill="#fff"/>
<path transform="translate(75,24)" d="m0 0h2v2h-2z" fill="#fff"/>
<path transform="translate(2130,16)" d="m0 0 2 1h-3z" fill="#fff"/>
<path transform="translate(102,16)" d="m0 0h2v2h-2z" fill="#fff"/>
<path transform="translate(2035,11)" d="m0 0 2 2-3-1z" fill="#fff"/>
<path transform="translate(8,11)" d="m0 0 2 2-2 1z" fill="#fff"/>
<path transform="translate(250)" d="m0 0h2v2h-2z" fill="#fff"/>
<path transform="translate(3416,148)" d="m0 0h2l-1 2z" fill="#fff"/>
<path transform="translate(3e3 95)" d="m0 0" fill="#fff"/>
<path transform="translate(714,89)" d="m0 0 2 2h-2z" fill="#fff"/>
<path transform="translate(2699,87)" d="m0 0 2 2h-2z" fill="#fff"/>
<path transform="translate(878,87)" d="m0 0 2 2h-2z" fill="#fff"/>
<path transform="translate(3904,87)" d="m0 0 1 2-2-1z" fill="#fff"/>
<path transform="translate(673,87)" d="m0 0 1 2-2-1z" fill="#fff"/>
<path transform="translate(2598,85)" d="m0 0 1 2-2-1z" fill="#fff"/>
<path transform="translate(2660,81)" d="m0 0 2 1-2 1z" fill="#fff"/>
<path transform="translate(756,72)" d="m0 0 2 2h-2z" fill="#fff"/>
<path transform="translate(2037,70)" d="m0 0 2 1-2 1z" fill="#aaa"/>
<path transform="translate(1646,68)" d="m0 0 2 2h-2z" fill="#fff"/>
<path transform="translate(3674,68)" d="m0 0 1 2-2-1z" fill="#fff"/>
<path transform="translate(1586,66)" d="m0 0 2 1-2 1z" fill="#fff"/>
<path transform="translate(3008,62)" d="m0 0 2 1-2 1z" fill="#fff"/>
<path transform="translate(275,47)" d="m0 0 2 2h-2z" fill="#fff"/>
<path transform="translate(2115,44)" d="m0 0 2 2h-2z" fill="#fff"/>
<path transform="translate(3776,43)" d="m0 0 2 1-2 1z" fill="#fff"/>
<path transform="translate(2105,38)" d="m0 0h2l-1 2z" fill="#fff"/>
<path transform="translate(2095,31)" d="m0 0 2 1-2 1z" fill="#fff"/>
<path transform="translate(2211,28)" d="m0 0h2l-1 2z" fill="#fff"/>
<path transform="translate(140,27)" d="m0 0 1 2-2-1z" fill="#fff"/>
<path transform="translate(2278)" d="m0 0 2 1-2 1z" fill="#fff"/>
<path transform="translate(3455,158)" d="m0 0" fill="#7F7F7F"/>
<path transform="translate(3424,144)" d="m0 0 2 1z" fill="#fff"/>
<path transform="translate(3351,131)" d="m0 0 2 1z" fill="#fff"/>
<path transform="translate(1354,127)" d="m0 0" fill="#fff"/>
<path transform="translate(1172,124)" d="m0 0" fill="#7F7F7F"/>
<path transform="translate(3456,120)" d="m0 0" fill="#fff"/>
<path transform="translate(3112,118)" d="m0 0 2 1z" fill="#fff"/>
<path transform="translate(872,102)" d="m0 0" fill="#fff"/>
<path transform="translate(863,100)" d="m0 0" fill="#fff"/>
<path transform="translate(3039,99)" d="m0 0" fill="#fff"/>
<path transform="translate(2910,96)" d="m0 0 2 1z" fill="#fff"/>
<path transform="translate(344,94)" d="m0 0" fill="#fff"/>
<path transform="translate(2741,89)" d="m0 0" fill="#fff"/>
<path transform="translate(1610,85)" d="m0 0" fill="#fff"/>
<path transform="translate(1540,75)" d="m0 0 2 1z" fill="#fff"/>
<path transform="translate(584,71)" d="m0 0 2 1z" fill="#fff"/>
<path transform="translate(701,69)" d="m0 0 2 1z" fill="#fff"/>
<path transform="translate(1610,67)" d="m0 0 2 1z" fill="#fff"/>
<path transform="translate(790,49)" d="m0 0" fill="#fff"/>
<path transform="translate(2302,47)" d="m0 0" fill="#fff"/>
<path transform="translate(113,47)" d="m0 0 2 1z" fill="#fff"/>
<path transform="translate(2107,43)" d="m0 0 2 1z" fill="#fff"/>
<path transform="translate(80,42)" d="m0 0" fill="#fff"/>
<path transform="translate(23,41)" d="m0 0 2 1z" fill="#fff"/>
<path transform="translate(77,38)" d="m0 0 2 1z" fill="#fff"/>
<path transform="translate(2171,36)" d="m0 0 2 1z" fill="#fff"/>
<path transform="translate(2203,29)" d="m0 0" fill="#7F7F7F"/>
<path transform="translate(99,26)" d="m0 0 2 1z" fill="#fff"/>
<path transform="translate(64,24)" d="m0 0 2 1z" fill="#fff"/>
<path transform="translate(3447,167)" d="m0 0" fill="#fff"/>
<path transform="translate(3344,166)" d="m0 0" fill="#fff"/>
<path transform="translate(3261,141)" d="m0 0" fill="#fff"/>
<path transform="translate(3373,139)" d="m0 0" fill="#fff"/>
<path transform="translate(3894,135)" d="m0 0"/>
<path transform="translate(1466,132)" d="m0 0"/>
<path transform="translate(3523,114)" d="m0 0" fill="#fff"/>
<path transform="translate(1028,111)" d="m0 0" fill="#fff"/>
<path transform="translate(2669,109)" d="m0 0"/>
<path transform="translate(1827,109)" d="m0 0" fill="#fff"/>
<path transform="translate(3552,108)" d="m0 0" fill="#fff"/>
<path transform="translate(1524,108)" d="m0 0" fill="#fff"/>
<path transform="translate(2899,103)" d="m0 0" fill="#fff"/>
<path transform="translate(678,102)" d="m0 0" fill="#fff"/>
<path transform="translate(3664,99)" d="m0 0" fill="#fff"/>
<path transform="translate(3947,97)" d="m0 0" fill="#fff"/>
<path transform="translate(3927,91)" d="m0 0" fill="#fff"/>
<path transform="translate(3670,88)" d="m0 0" fill="#fff"/>
<path transform="translate(1876,88)" d="m0 0" fill="#fff"/>
<path transform="translate(526,86)" d="m0 0"/>
<path transform="translate(3592,73)" d="m0 0" fill="#fff"/>
<path transform="translate(1565,73)" d="m0 0" fill="#fff"/>
<path transform="translate(8,69)" d="m0 0" fill="#fff"/>
<path transform="translate(2038,68)" d="m0 0" fill="#798579"/>
<path transform="translate(2806,67)" d="m0 0" fill="#fff"/>
<path transform="translate(2223,56)" d="m0 0"/>
<path transform="translate(2816,50)" d="m0 0" fill="#fff"/>
<path transform="translate(88,45)" d="m0 0" fill="#fff"/>
<path transform="translate(1749,43)" d="m0 0" fill="#fff"/>
<path transform="translate(2150,42)" d="m0 0" fill="#fff"/>
<path transform="translate(122,42)" d="m0 0" fill="#fff"/>
<path transform="translate(2052,41)" d="m0 0" fill="#fff"/>
<path transform="translate(2091,24)" d="m0 0" fill="#fff"/>
</svg>
