<?xml version="1.0" standalone="no"?>
<!DOCTYPE svg PUBLIC "-//W3C//DTD SVG 20010904//EN"
 "http://www.w3.org/TR/2001/REC-SVG-20010904/DTD/svg10.dtd">
<svg version="1.0" xmlns="http://www.w3.org/2000/svg"
 width="1600.000000pt" height="1497.000000pt" viewBox="0 0 1600.000000 1497.000000"
 preserveAspectRatio="xMidYMid meet">

<g transform="translate(0.000000,1497.000000) scale(0.100000,-0.100000)"
fill="#000000" stroke="none">
<path d="M8805 14362 c-38 -8 -72 -17 -74 -18 -2 -2 4 -13 14 -24 18 -19 18
-29 6 -153 -26 -278 -40 -453 -41 -489 0 -20 -7 -44 -16 -52 -20 -21 -13 -23
99 -31 87 -6 88 -6 77 15 -8 15 -8 60 0 168 15 207 38 477 46 545 7 56 6 57
-17 56 -13 -1 -55 -8 -94 -17z"/>
<path d="M7573 14163 l-73 -4 19 -21 c11 -11 29 -46 41 -77 12 -31 28 -69 36
-86 14 -32 77 -185 114 -278 12 -31 25 -59 29 -61 3 -2 24 -1 46 3 36 6 41 10
57 53 17 47 17 49 -3 83 -19 32 -40 83 -105 254 -14 35 -29 72 -35 82 -6 13
-6 25 1 39 10 18 8 20 -22 18 -18 -1 -66 -4 -105 -5z"/>
<path d="M7968 14163 c6 -2 12 -14 12 -26 1 -22 1 -22 15 -3 21 28 19 36 -12
35 -16 0 -22 -3 -15 -6z"/>
<path d="M8267 14156 c-103 -28 -165 -114 -174 -241 -13 -175 111 -304 282
-293 61 4 175 49 175 69 0 5 -15 0 -32 -11 -44 -27 -126 -27 -178 0 -25 13
-49 37 -67 67 -26 44 -28 56 -28 149 1 93 3 105 34 168 22 44 44 74 64 87 l32
19 -30 -1 c-16 0 -52 -6 -78 -13z"/>
<path d="M6005 14146 l-50 -12 40 -8 c56 -11 94 -32 142 -79 l42 -40 -31 77
c-29 72 -32 76 -62 75 -17 0 -53 -6 -81 -13z"/>
<path d="M8459 14146 c9 -10 14 -38 14 -65 -1 -80 -75 -173 -148 -187 -54 -10
-31 -24 33 -20 79 6 171 41 205 79 31 36 37 98 12 134 -17 24 -67 57 -105 68
-23 7 -24 6 -11 -9z"/>
<path d="M7228 14127 c24 -26 29 -48 37 -157 19 -292 15 -267 54 -311 43 -48
99 -62 147 -36 18 10 23 16 13 17 -33 0 -41 29 -50 177 -12 201 -22 247 -62
276 -36 27 -75 42 -126 51 l-35 6 22 -23z"/>
<path d="M7017 14125 c-80 -28 -116 -84 -92 -141 24 -59 90 -71 136 -25 36 36
37 70 4 109 -30 35 -31 47 -7 61 24 14 4 13 -41 -4z"/>
<path d="M9999 14111 c8 -14 2 -57 -20 -162 -17 -79 -44 -207 -60 -283 -16
-77 -38 -154 -48 -171 l-19 -32 80 -17 c44 -10 86 -20 92 -22 9 -3 11 4 8 26
-2 16 7 78 22 137 14 60 42 182 62 273 42 193 51 220 73 221 16 1 -163 48
-187 49 -9 0 -10 -5 -3 -19z"/>
<path d="M5723 14087 c-73 -16 -90 -22 -78 -31 9 -6 24 -49 35 -96 58 -259
100 -476 100 -516 0 -38 3 -45 18 -40 9 2 44 10 77 16 94 18 99 20 82 33 -15
13 -43 121 -82 317 -14 69 -33 164 -43 211 -11 52 -16 94 -11 107 5 12 5 21 1
21 -4 -1 -49 -11 -99 -22z"/>
<path d="M6653 14092 c-8 -5 -9 -13 -3 -22 6 -8 10 -32 10 -53 0 -67 64 -107
122 -76 30 16 51 74 37 102 -25 48 -40 57 -98 57 -31 0 -61 -4 -68 -8z"/>
<path d="M9123 14089 c-77 -22 -111 -131 -60 -195 32 -42 66 -71 117 -101 76
-45 138 -102 150 -137 12 -38 1 -79 -27 -95 -16 -9 -16 -10 5 -11 66 -1 132
62 132 126 0 51 -50 116 -131 170 -40 27 -94 70 -121 95 -40 38 -48 52 -48 82
0 24 7 43 22 57 24 22 14 24 -39 9z"/>
<path d="M9329 14072 c7 -13 4 -30 -10 -62 -16 -36 -18 -49 -8 -66 23 -44 103
-59 134 -24 38 42 -6 121 -88 155 -36 15 -38 15 -28 -3z"/>
<path d="M6400 14027 c-91 -37 -86 -33 -67 -52 21 -20 23 -28 46 -175 31 -195
35 -248 21 -265 -11 -13 -9 -15 13 -15 15 0 60 5 102 11 53 8 73 15 67 23 -21
26 -46 172 -62 352 -11 120 -18 154 -34 153 -6 0 -45 -15 -86 -32z"/>
<path d="M10350 14023 c32 -36 32 -37 28 -128 -3 -77 -8 -98 -31 -138 -28 -47
-69 -77 -107 -77 -24 0 -25 -8 -5 -34 11 -14 15 -47 15 -113 0 -89 1 -94 30
-127 31 -35 101 -66 148 -66 24 0 24 1 9 18 -11 12 -20 49 -26 106 -8 76 -12
91 -37 118 -16 16 -46 37 -66 45 -21 8 -38 19 -38 23 0 4 29 10 65 12 87 7
145 42 174 103 37 79 25 160 -31 212 -21 20 -139 83 -154 83 -3 0 8 -16 26
-37z"/>
<path d="M5450 14030 c-14 -5 -42 -11 -62 -15 l-38 -6 1 -117 c1 -93 3 -107 9
-66 12 85 47 140 125 198 23 17 7 20 -35 6z"/>
<path d="M7072 13890 c-59 -20 -120 -64 -140 -101 -17 -31 -8 -116 14 -140 48
-53 157 -73 234 -44 l35 13 -42 1 c-49 1 -78 26 -93 80 -20 71 -5 143 36 185
31 30 27 31 -44 6z"/>
<path d="M10716 13768 c-82 -22 -153 -129 -163 -247 -8 -91 8 -146 57 -198 68
-74 172 -109 268 -92 71 14 68 24 -8 24 -61 0 -72 3 -107 31 -78 63 -92 181
-37 313 25 60 67 113 111 142 l43 27 -31 6 c-42 8 -86 6 -133 -6z"/>
<path d="M9006 13729 c-9 -13 -16 -31 -16 -40 0 -25 61 -87 101 -104 l36 -14
6 47 c4 26 9 56 12 67 10 34 -17 57 -72 62 -44 5 -52 2 -67 -18z"/>
<path d="M10977 13701 c12 -86 -94 -189 -197 -192 l-35 -1 34 -15 c19 -8 66
-15 105 -15 129 -1 208 59 192 144 -6 33 -51 89 -87 108 -15 9 -16 5 -12 -29z"/>
<path d="M4841 13711 c-10 -7 -11 -13 -1 -31 13 -25 15 -24 24 13 7 28 1 33
-23 18z"/>
<path d="M4531 13607 c-22 -11 -23 -15 -19 -85 4 -54 10 -77 21 -83 15 -9 124
-142 191 -234 58 -78 56 -77 110 -59 l48 17 -6 54 c-4 30 -13 62 -21 70 -9 8
-28 31 -43 51 -15 20 -67 86 -116 147 -48 60 -91 115 -93 122 -6 16 -39 16
-72 0z"/>
<path d="M11239 13597 c-81 -54 -37 -167 60 -153 54 8 66 27 66 106 l0 70 -46
0 c-31 0 -57 -7 -80 -23z"/>
<path d="M11536 13518 c5 -40 -16 -123 -56 -213 -5 -11 -18 -51 -30 -90 -12
-38 -26 -75 -31 -81 -9 -11 1 -56 21 -93 17 -34 70 -61 115 -60 34 0 37 2 18
9 -14 6 -23 18 -23 30 0 12 23 88 51 168 28 81 56 161 61 178 15 44 -25 118
-86 162 l-46 33 6 -43z"/>
<path d="M4170 13480 c-58 -21 -97 -39 -88 -39 14 -1 73 -65 143 -156 199
-256 211 -270 235 -266 14 1 37 9 52 17 26 13 27 17 21 67 -3 28 -10 53 -14
55 -5 2 -30 31 -57 65 -162 208 -185 241 -185 269 0 15 -1 28 -1 27 -1 0 -48
-18 -106 -39z"/>
<path d="M11163 13365 c-47 -21 -76 -69 -77 -126 -1 -42 4 -53 34 -84 42 -44
73 -61 125 -70 33 -5 37 -4 22 5 -77 48 -37 227 58 261 19 7 35 17 35 21 0 14
-163 7 -197 -7z"/>
<path d="M11882 13367 c-37 -21 -54 -55 -54 -105 0 -64 18 -101 88 -180 124
-139 138 -189 72 -252 l-23 -22 47 5 c61 6 96 29 115 75 27 63 -9 151 -103
252 -100 108 -114 203 -34 233 8 3 -7 6 -35 6 -27 0 -60 -5 -73 -12z"/>
<path d="M3858 13327 c12 -12 27 -45 33 -73 16 -69 -8 -155 -58 -201 -38 -36
-37 -39 4 -21 111 48 186 133 186 210 0 64 -59 108 -144 108 l-42 0 21 -23z"/>
<path d="M12135 13310 c4 -6 -7 -31 -24 -57 -17 -26 -31 -51 -31 -57 0 -23 31
-55 65 -66 30 -10 40 -9 60 4 38 25 41 59 11 110 -25 42 -60 76 -79 76 -4 0
-5 -5 -2 -10z"/>
<path d="M3714 13297 c-68 -38 -118 -109 -130 -184 -8 -52 35 -182 79 -234 89
-108 251 -119 373 -26 38 29 74 74 74 92 0 4 -17 -9 -37 -29 -74 -71 -173 -74
-247 -6 -95 88 -144 281 -94 373 13 24 8 28 -18 14z"/>
<path d="M3307 13276 c-14 -11 -15 -15 -3 -19 8 -3 16 2 19 14 3 10 4 19 4 19
-1 0 -10 -7 -20 -14z"/>
<path d="M12414 13111 c-84 -38 -164 -182 -164 -296 0 -61 31 -128 75 -161
l30 -23 1 57 c2 66 21 129 71 226 49 96 99 162 133 178 36 15 38 24 8 32 -43
11 -113 5 -154 -13z"/>
<path d="M2850 13043 c-66 -31 -72 -36 -52 -44 12 -4 22 -12 22 -16 0 -5 18
-14 40 -21 22 -6 106 -44 187 -83 428 -205 511 -241 532 -229 27 14 27 21 -10
96 -23 46 -37 64 -51 64 -19 0 -38 8 -223 95 -212 100 -272 128 -320 150 l-50
23 -75 -35z"/>
<path d="M11733 13065 c-45 -32 -15 -122 57 -172 18 -13 20 -12 20 6 0 11 11
33 25 49 32 39 32 81 0 105 -36 26 -76 31 -102 12z"/>
<path d="M12688 13036 c13 -112 -125 -388 -215 -431 l-38 -19 35 -9 c127 -33
242 41 303 197 24 62 26 159 4 202 -15 30 -75 94 -87 94 -3 0 -4 -15 -2 -34z"/>
<path d="M12957 12846 c6 -28 7 -25 -104 -223 -48 -84 -95 -155 -106 -160 -18
-8 -10 -15 60 -56 44 -26 83 -47 86 -47 4 0 7 9 7 20 0 11 19 53 41 93 55 95
107 185 129 222 43 72 68 125 61 129 -8 5 -161 46 -171 46 -4 0 -5 -11 -3 -24z"/>
<path d="M13259 12724 c39 -49 33 -67 -79 -264 -23 -41 -49 -86 -56 -100 -33
-59 -8 -132 56 -165 39 -20 48 -19 43 8 -2 12 2 32 9 44 13 22 62 107 113 198
57 101 65 120 65 158 0 64 -43 117 -110 137 -56 16 -64 13 -41 -16z"/>
<path d="M13587 12488 c-32 -12 -67 -73 -67 -118 0 -35 33 -120 64 -165 89
-128 95 -226 16 -257 l-25 -11 25 -7 c67 -21 131 4 162 61 30 56 23 88 -48
228 -76 150 -86 193 -54 234 12 15 29 27 38 28 25 1 -28 17 -58 17 -14 0 -37
-4 -53 -10z"/>
<path d="M1539 12460 c-63 -11 -123 -43 -137 -75 -22 -47 -15 -182 14 -260 35
-96 84 -290 84 -330 0 -19 5 -46 11 -62 9 -22 13 -285 8 -458 0 -11 4 -72 9
-135 9 -122 26 -173 74 -217 31 -29 160 -89 235 -108 75 -20 342 -32 369 -17
17 10 17 12 2 13 -10 1 -21 2 -25 3 -5 1 -26 5 -48 10 -109 22 -158 50 -171
100 -3 14 -16 32 -29 40 -26 17 -42 80 -25 101 8 10 7 14 -2 18 -39 16 193 3
418 -23 347 -40 359 -43 395 -81 16 -17 29 -37 29 -44 0 -7 7 -16 16 -19 9 -3
14 -15 12 -28 -3 -21 -9 -23 -75 -26 l-73 -3 16 -25 c9 -13 52 -43 96 -66 85
-44 93 -66 17 -49 -24 6 -62 11 -84 11 -22 0 -91 14 -154 30 -132 34 -248 50
-237 32 4 -7 17 -12 29 -12 64 -1 340 -74 385 -103 58 -38 -98 -30 -211 10
-40 14 -115 31 -167 39 -114 16 -113 16 -106 5 4 -5 25 -12 48 -16 23 -4 58
-13 77 -20 34 -11 33 -12 -59 -23 -176 -21 -225 -31 -351 -70 -178 -56 -209
-75 -223 -137 -7 -27 -79 -105 -98 -105 -16 0 -89 -51 -95 -66 -3 -8 11 -34
32 -60 35 -42 37 -49 33 -99 -4 -49 -10 -61 -57 -115 -59 -67 -58 -76 6 -99
98 -35 139 -126 93 -210 -32 -60 -50 -111 -43 -126 3 -8 17 -18 32 -20 56 -12
75 -21 95 -48 44 -59 16 -160 -70 -256 -44 -49 -184 -161 -202 -161 -4 0 -40
-24 -78 -53 -71 -54 -114 -107 -114 -137 0 -28 38 -68 75 -80 30 -10 41 -9 73
7 32 17 45 36 93 134 65 133 119 194 204 234 45 22 67 26 104 23 81 -8 122
-35 159 -106 29 -54 36 -62 55 -56 12 3 29 13 38 21 10 8 42 17 72 20 46 5 62
2 90 -16 19 -11 44 -21 56 -21 45 0 5 -92 -45 -104 -58 -15 -73 -55 -29 -78
25 -13 95 -112 95 -133 0 -7 -12 -22 -26 -36 -23 -21 -25 -28 -18 -69 4 -25 7
-60 6 -78 -1 -18 5 -47 14 -64 9 -18 20 -60 24 -94 5 -42 16 -74 33 -96 40
-54 82 -147 116 -256 28 -90 39 -110 90 -170 32 -38 70 -91 84 -118 14 -27 53
-76 87 -109 78 -76 128 -142 170 -228 33 -67 40 -107 26 -139 -12 -27 37 -47
59 -24 15 14 19 14 44 1 16 -8 31 -21 34 -30 5 -11 22 -15 67 -15 40 0 74 -7
98 -19 24 -12 71 -21 135 -26 90 -7 100 -10 109 -31 9 -19 14 -21 35 -13 34
13 38 12 70 -15 43 -36 69 -40 92 -17 26 26 47 26 107 0 31 -14 71 -22 109
-23 70 -1 175 -47 221 -96 15 -15 42 -31 59 -34 37 -7 169 -97 179 -121 3 -9
6 -32 6 -51 0 -29 6 -38 51 -68 68 -46 130 -132 168 -231 7 -17 48 -67 91
-110 102 -102 126 -138 134 -199 8 -62 27 -92 64 -100 15 -4 35 -19 45 -34 16
-26 16 -26 17 -4 0 14 9 27 27 35 32 14 61 77 93 199 25 97 59 147 119 178 21
10 43 26 50 34 8 9 22 16 32 16 10 0 33 13 51 29 l32 29 -33 31 c-25 24 -31
35 -26 53 19 61 64 74 113 33 17 -14 44 -28 61 -31 27 -6 32 -3 41 20 5 15 10
40 10 56 0 25 5 31 33 38 26 6 37 18 60 62 18 35 37 58 56 66 15 6 31 19 34
28 4 9 21 24 39 32 69 33 78 39 78 55 0 22 -60 33 -123 24 -47 -7 -87 6 -87
29 0 17 33 46 53 46 11 0 -1 17 -33 50 -28 28 -50 56 -50 62 0 7 14 26 31 44
29 30 30 34 20 67 -10 29 -21 39 -72 61 -51 22 -76 26 -157 27 l-97 0 -35 44
c-19 23 -45 48 -57 54 -13 6 -23 17 -23 24 0 7 -13 25 -28 40 -23 22 -38 27
-76 27 -43 0 -48 -2 -43 -20 11 -42 -51 -57 -100 -23 -15 11 -40 23 -54 26
-45 11 -126 83 -131 116 -3 22 0 31 14 34 11 3 18 14 18 31 0 22 -5 26 -27 26
-32 0 -58 20 -97 74 -16 21 -47 47 -70 57 -23 10 -58 34 -78 53 -34 33 -36 37
-27 76 8 33 6 48 -11 80 -26 52 -35 115 -22 165 15 57 2 197 -21 219 -21 22
-13 40 13 26 32 -17 62 -77 55 -109 -3 -16 -1 -48 6 -71 19 -62 68 -93 204
-126 l114 -28 49 23 c62 29 106 23 120 -17 13 -35 75 -102 95 -102 8 0 17 9
20 19 3 14 17 21 50 26 56 9 93 -9 162 -79 34 -35 66 -57 101 -69 40 -13 53
-23 58 -43 4 -15 2 -32 -5 -41 -10 -12 -10 -16 2 -24 8 -5 20 -9 27 -9 25 0
68 -29 82 -54 7 -14 16 -26 20 -26 3 0 63 -38 133 -84 70 -46 140 -89 157 -96
33 -14 38 -27 15 -36 -8 -4 -15 -13 -15 -21 0 -12 24 -13 158 -8 198 7 222 0
235 -65 6 -31 22 -59 49 -88 l39 -43 -27 -46 -27 -47 30 -25 c17 -14 40 -34
51 -43 12 -10 22 -28 22 -40 0 -15 13 -31 35 -47 20 -13 75 -74 122 -135 l87
-111 1 -63 0 -63 -52 -49 c-29 -28 -53 -55 -53 -60 0 -6 -11 -28 -25 -48 -26
-38 -32 -76 -15 -87 15 -9 12 -51 -5 -65 -23 -19 -18 -30 14 -30 35 0 55 -22
49 -55 -6 -27 23 -62 41 -51 21 13 49 -14 82 -80 29 -58 42 -73 93 -103 32
-20 73 -48 90 -62 17 -14 43 -29 57 -32 16 -4 35 -21 48 -42 24 -41 44 -44
135 -20 42 11 68 13 94 6 101 -27 172 -40 184 -36 8 3 24 -3 36 -14 13 -10 30
-17 40 -15 9 2 67 -9 127 -25 61 -16 114 -25 119 -21 5 5 26 -3 47 -17 40 -26
179 -56 217 -46 11 3 30 -7 50 -25 31 -29 134 -73 163 -69 9 1 37 -18 64 -42
41 -38 48 -50 52 -91 4 -41 1 -50 -18 -64 -23 -16 -23 -16 13 -16 28 0 42 -7
61 -30 21 -25 31 -29 55 -24 25 5 31 2 37 -15 5 -17 10 -19 25 -11 38 20 98 5
227 -56 39 -19 75 -34 79 -34 18 0 364 -176 429 -218 90 -58 235 -189 235
-212 0 -26 19 -38 111 -70 45 -16 91 -38 103 -48 12 -10 33 -26 48 -35 28 -18
52 -94 41 -135 -4 -17 -1 -22 15 -22 12 0 24 5 27 10 3 6 18 10 33 10 22 -1
43 -20 105 -94 43 -51 100 -116 128 -145 27 -28 49 -56 49 -61 0 -6 13 -10 30
-10 18 0 33 -7 39 -18 5 -10 26 -27 45 -37 20 -11 36 -22 37 -25 5 -54 4 -98
-4 -111 -8 -12 -3 -36 16 -88 28 -75 36 -174 16 -187 -13 -7 -58 43 -59 65 0
8 7 22 15 31 14 16 14 22 -1 59 -9 24 -14 54 -11 70 8 39 -33 145 -57 149 -16
3 -18 0 -11 -25 4 -15 10 -81 13 -146 5 -80 11 -120 20 -126 7 -4 15 -29 17
-55 2 -26 9 -54 15 -61 6 -8 9 -24 5 -35 -6 -19 -5 -20 13 -11 26 14 52 4 52
-18 0 -10 15 -25 35 -34 19 -9 35 -21 35 -27 0 -15 -36 -12 -50 5 -21 25 -47
18 -59 -16 -20 -57 -15 -69 24 -69 47 0 88 -22 103 -54 11 -24 9 -26 -31 -44
-44 -20 -170 -130 -188 -164 -9 -17 -7 -25 13 -45 21 -20 28 -22 51 -14 15 6
27 15 27 21 0 5 7 10 15 10 36 0 2 -43 -52 -66 -41 -18 -42 -19 -46 -79 -7
-90 -27 -168 -48 -186 -10 -10 -46 -20 -84 -24 -81 -8 -112 -32 -126 -95 -6
-25 -21 -56 -34 -70 -13 -14 -31 -43 -40 -66 -15 -39 -15 -42 10 -97 23 -53
27 -57 51 -51 22 6 36 -4 107 -77 46 -46 107 -111 137 -144 30 -33 84 -81 120
-108 35 -26 73 -63 82 -82 13 -23 37 -44 80 -68 l63 -34 88 10 c71 8 109 7
205 -7 103 -15 132 -24 247 -77 167 -78 154 -72 265 -114 131 -50 140 -52 169
-21 17 18 22 32 18 53 -3 15 1 47 9 70 13 38 13 46 -1 72 -20 40 -19 63 5 94
l21 26 -37 48 -36 47 7 82 c4 52 3 84 -4 88 -5 4 -12 2 -16 -4 -13 -21 -38 -8
-94 49 -60 61 -102 81 -167 81 -38 0 -126 62 -197 139 -44 47 -48 56 -43 86 4
20 2 45 -5 57 -15 31 -137 148 -154 148 -39 0 -21 64 23 81 28 11 98 3 108
-12 12 -20 61 -9 90 22 23 24 35 30 59 26 17 -3 37 1 45 8 19 16 119 4 152
-19 12 -9 33 -16 46 -16 22 0 24 -3 18 -32 -4 -18 -9 -52 -13 -75 -5 -40 -4
-42 33 -61 22 -11 52 -34 68 -51 21 -21 36 -29 49 -25 10 3 40 3 66 -1 44 -6
50 -10 77 -56 26 -45 30 -48 38 -29 11 24 54 27 62 5 4 -9 19 -15 35 -15 16 0
45 -7 65 -15 31 -13 34 -18 32 -49 -2 -40 34 -99 110 -178 44 -46 49 -71 13
-61 -19 5 -19 4 -3 -39 15 -38 45 -82 102 -150 8 -10 29 -46 47 -80 l32 -61
-20 -28 c-10 -15 -19 -36 -19 -47 0 -21 -72 -98 -101 -107 -8 -3 -20 -20 -27
-38 -21 -60 -15 -85 33 -139 52 -59 94 -89 190 -143 60 -33 104 -65 197 -140
10 -8 39 -25 66 -39 26 -13 67 -44 90 -68 66 -67 152 -203 179 -283 13 -40 40
-99 59 -131 48 -80 54 -130 20 -171 -15 -18 -26 -43 -26 -59 0 -36 34 -94 55
-94 8 0 18 -1 22 -2 8 -4 11 17 19 158 7 120 6 122 -25 199 -24 61 -31 93 -31
149 l-1 71 -41 28 c-39 28 -40 30 -35 75 3 30 -1 68 -11 105 -17 56 -18 58
-72 78 -37 14 -68 19 -95 15 -38 -5 -43 -2 -92 47 -29 28 -72 58 -95 67 -31
11 -45 24 -55 48 -12 30 -12 34 11 56 14 12 58 35 98 51 67 26 82 38 193 152
l120 124 50 -2 c65 -3 111 8 160 37 54 31 80 68 109 156 23 66 24 81 15 143
-9 65 -8 70 17 109 l27 41 -17 87 c-13 61 -15 92 -8 105 8 14 2 30 -33 79 -24
34 -55 85 -68 115 -19 43 -35 61 -79 91 -75 49 -130 137 -121 192 5 30 13 41
44 57 24 12 39 26 39 38 0 11 12 24 31 31 17 7 37 23 46 36 14 21 13 26 -9 56
-26 37 -25 50 4 91 23 32 49 44 123 58 28 5 63 18 78 30 15 11 56 25 90 31 49
9 67 17 87 41 53 63 97 103 143 129 59 34 60 53 5 110 -23 24 -50 62 -60 85
-23 53 -66 84 -144 104 -44 11 -76 28 -110 58 -27 22 -84 63 -127 90 -62 39
-86 61 -114 105 -39 63 -65 71 -118 36 -46 -31 -73 -26 -80 13 -3 17 -4 335
-3 706 l3 674 40 14 c22 8 71 22 108 31 37 10 69 22 70 27 1 6 -20 14 -48 19
-110 18 -453 87 -504 101 l-55 14 -67 -64 c-150 -142 -215 -175 -339 -177 -96
-1 -171 21 -249 73 -73 48 -116 97 -155 174 -24 48 -28 69 -28 133 0 43 2 83
4 91 2 9 -19 22 -62 38 -164 61 -368 141 -507 199 l-151 63 -219 -9 c-900 -38
-1335 -7 -1718 124 -292 100 -452 237 -506 432 -46 168 9 327 163 469 72 67
150 120 228 154 109 48 122 53 173 67 29 8 78 22 109 31 l57 16 -62 39 c-87
56 -130 111 -160 207 -51 162 16 343 161 428 46 28 48 32 28 71 -39 77 -65
308 -47 426 11 76 48 161 93 212 17 19 80 64 142 100 61 37 136 82 168 100 31
19 63 34 71 34 16 0 30 -38 69 -194 48 -188 261 -535 526 -856 29 -36 70 -85
90 -110 50 -60 232 -261 302 -334 l57 -58 119 -14 c350 -39 594 -62 937 -88
41 -3 47 -1 42 13 -14 34 -17 118 -6 159 16 59 72 118 132 139 27 10 49 20 49
23 0 9 -82 90 -90 90 -5 0 -12 11 -17 24 -14 42 -182 246 -202 246 -11 0 -37
29 -71 83 -65 100 -101 146 -205 262 -106 118 -204 257 -313 445 -110 189
-141 249 -193 376 -29 71 -59 133 -66 137 -7 4 -13 20 -13 35 0 36 -15 75
-105 282 -60 136 -82 199 -99 285 l-22 110 -28 -72 c-15 -40 -31 -73 -35 -73
-4 0 -17 10 -28 23 -15 16 -21 36 -21 72 0 31 -13 82 -32 134 -21 59 -28 87
-20 95 14 14 22 3 53 -79 l27 -71 35 4 c19 2 35 9 35 16 -1 40 -65 227 -106
310 -61 124 -127 198 -201 226 -65 24 -74 13 -33 -38 23 -30 30 -47 28 -74 -1
-21 6 -47 16 -63 15 -23 17 -40 12 -86 -4 -40 -1 -71 10 -101 20 -56 11 -97
-27 -134 -27 -26 -38 -29 -99 -31 -55 -2 -82 -9 -131 -34 -37 -18 -90 -35
-128 -40 -59 -8 -70 -13 -103 -49 -32 -35 -45 -42 -90 -47 -44 -5 -58 -12 -88
-45 -36 -37 -37 -38 -111 -38 -56 0 -82 -5 -107 -20 -43 -26 -70 -25 -81 3 -6
15 -23 26 -54 34 -34 9 -49 20 -65 47 -12 21 -43 48 -75 66 -36 20 -61 42 -71
64 -16 34 -67 67 -74 47 -9 -26 -34 -40 -60 -35 -23 5 -30 1 -40 -20 -14 -30
-31 -32 -96 -10 -39 13 -55 14 -84 6 -41 -13 -57 -5 -66 32 -6 23 -10 24 -113
28 -60 2 -112 0 -117 -4 -17 -14 -32 -9 -46 17 -7 14 -17 25 -22 25 -13 0 -88
49 -88 58 0 4 13 15 29 24 33 18 47 65 37 121 -9 47 -70 91 -157 112 -59 15
-75 23 -101 56 -23 29 -40 39 -72 44 -43 8 -76 29 -76 51 0 7 -14 29 -30 48
-28 32 -30 37 -21 77 10 44 4 66 -26 101 -14 16 -18 16 -51 -7 -20 -14 -58
-32 -85 -41 -26 -9 -60 -27 -74 -40 -19 -18 -37 -24 -71 -24 -44 0 -49 3 -121
78 -59 60 -91 84 -141 106 -158 68 -200 90 -205 105 -3 9 -12 24 -19 34 -13
16 -15 16 -57 -3 -24 -11 -54 -20 -67 -20 -21 0 -89 35 -207 106 -22 13 -49
24 -59 24 -10 0 -47 -18 -82 -40 -35 -22 -66 -40 -69 -40 -3 0 -22 -11 -43
-23 -69 -44 -256 -154 -387 -227 -71 -40 -152 -86 -179 -102 -27 -17 -63 -32
-81 -35 -34 -5 -105 19 -105 37 0 24 41 72 182 210 170 167 238 260 238 325 0
40 -2 42 -52 66 -98 46 -283 25 -523 -58 -55 -19 -122 -45 -150 -58 -27 -13
-77 -35 -109 -50 -33 -14 -69 -35 -80 -46 -25 -25 -114 -80 -176 -109 l-45
-22 -65 23 c-108 37 -168 64 -434 193 l-254 124 -117 6 c-106 5 -128 10 -243
52 -70 25 -140 52 -157 59 -16 7 -42 17 -57 20 -16 4 -28 10 -28 14 0 4 -29
42 -65 83 l-65 76 -85 12 c-104 15 -131 10 -138 -27 -3 -16 -31 -68 -61 -118
-30 -49 -66 -111 -80 -137 -14 -26 -30 -49 -36 -53 -5 -3 -36 22 -67 56 -64
68 -191 195 -249 247 -47 42 -260 202 -269 202 -3 0 -21 11 -38 24 -40 29
-210 116 -302 155 -69 29 -252 75 -330 84 -22 2 -61 1 -86 -3z m826 -449 c37
-23 158 -141 151 -148 -11 -11 -246 136 -246 154 0 20 60 16 95 -6z m216 -96
c95 -94 96 -95 74 -95 -19 0 -205 181 -205 200 0 15 53 -28 131 -105z m-234 9
c104 -66 167 -111 192 -138 l25 -26 -65 6 c-39 3 -96 19 -146 40 -90 38 -93
38 -93 24 0 -5 5 -10 10 -10 6 0 29 -9 53 -19 23 -11 63 -28 90 -40 26 -11 47
-27 47 -35 0 -15 -26 -46 -39 -46 -7 0 -16 -26 -37 -98 -5 -16 -61 -9 -128 14
-21 8 -48 14 -60 13 -11 0 15 -13 59 -28 130 -46 133 -48 156 -93 12 -24 34
-61 49 -83 16 -22 31 -50 35 -62 8 -29 6 -29 -170 2 -77 14 -171 30 -210 36
-77 11 -163 36 -182 51 -20 16 -15 28 10 28 23 0 53 35 38 44 -7 5 -14 28 -27
89 -3 12 2 17 16 17 11 0 20 5 20 11 0 6 11 8 28 5 125 -23 158 -13 61 18 -56
19 -99 43 -99 57 0 5 18 20 40 34 32 20 41 33 46 64 7 46 21 52 101 44 64 -7
65 4 6 31 -60 26 -55 60 12 84 47 18 95 7 162 -34z m244 -256 c7 -13 34 -52
62 -87 l49 -64 -1 -87 c-1 -68 3 -97 19 -134 11 -26 18 -52 14 -57 -17 -28
-122 15 -152 62 -37 58 -46 71 -69 95 -13 13 -23 28 -23 35 0 6 -14 28 -31 50
-16 21 -33 54 -36 74 -5 32 -1 40 44 85 58 58 103 68 124 28z m2553 -159 c-3
-6 -27 -20 -53 -31 -25 -11 -72 -36 -104 -56 -60 -37 -93 -35 -44 2 75 57 223
120 201 85z m56 -47 c0 -10 -168 -77 -175 -70 -5 5 64 56 95 70 21 9 80 10 80
0z m-13 -73 c14 -14 4 -58 -16 -68 -25 -13 -156 -41 -194 -41 -35 0 -64 21
-53 39 11 18 120 63 171 71 73 11 80 11 92 -1z m-3002 -40 c66 -11 155 -24
197 -29 42 -5 95 -18 117 -30 46 -23 145 -122 161 -160 6 -14 23 -34 39 -45
28 -18 33 -38 8 -30 -7 2 -86 9 -177 15 -463 31 -578 51 -572 100 1 12 10 29
20 36 16 11 16 13 -2 32 -10 12 -15 25 -12 31 10 16 -24 61 -45 61 -23 0 -24
8 -2 32 19 22 78 19 268 -13z m2669 -143 c-1 -37 -7 -63 -18 -75 -9 -9 -16
-22 -16 -27 0 -10 -74 -74 -86 -74 -4 0 -30 -19 -58 -43 -83 -70 -146 -103
-146 -77 0 6 7 10 15 10 11 0 14 7 9 25 -5 19 -3 24 8 20 8 -3 23 3 33 15 14
15 15 20 4 20 -8 0 1 10 19 21 20 13 32 29 32 42 0 20 29 55 109 132 17 17 41
40 53 53 32 33 43 22 42 -42z m286 54 c-8 -5 -11 -10 -7 -10 5 0 1 -10 -7 -22
-9 -12 -16 -36 -16 -53 0 -17 -6 -39 -13 -49 -15 -20 -77 -35 -149 -36 -84 0
-93 12 -56 83 12 23 24 49 28 57 4 8 27 20 51 26 55 15 191 18 169 4z m-97
-189 c17 -6 17 -9 -5 -36 -12 -17 -28 -34 -35 -38 -7 -4 -19 -23 -28 -41 -33
-68 -47 -76 -143 -77 l-87 -1 60 -13 c106 -22 114 -33 71 -90 -14 -18 -28 -43
-31 -56 -4 -13 -24 -44 -46 -68 -39 -43 -39 -44 -90 -37 -28 4 -73 16 -100 26
-53 21 -79 25 -79 12 0 -4 44 -24 97 -43 77 -28 98 -40 98 -55 0 -10 -4 -25
-9 -32 -5 -6 -12 -27 -15 -45 -5 -23 -13 -33 -28 -35 -13 -2 -20 -9 -17 -16 3
-7 -12 -28 -32 -45 -35 -31 -39 -32 -98 -26 l-61 7 53 -36 c58 -41 65 -56 26
-56 -77 0 -295 47 -352 76 -26 13 -53 24 -59 24 -7 0 -13 7 -13 16 0 15 11 16
98 11 53 -3 123 -13 155 -22 32 -9 64 -14 70 -12 14 5 -140 53 -193 61 -123
18 -133 24 -83 48 15 7 29 22 31 33 2 11 10 27 17 35 7 8 16 39 20 68 4 28 11
52 16 52 5 0 9 7 9 16 0 8 4 13 9 10 5 -3 14 1 21 9 19 23 64 18 142 -15 99
-42 114 -23 19 25 l-72 36 28 22 c15 13 39 28 53 35 14 7 50 28 80 47 49 31
63 35 125 36 l70 1 -45 15 -44 16 34 30 c83 70 137 111 165 123 32 14 167 18
198 5z m-520 -142 c-6 -6 -9 -18 -6 -25 6 -15 -12 -19 -22 -5 -5 9 20 41 33
41 3 0 1 -5 -5 -11z m-1670 -574 c21 -1 40 -4 42 -7 3 -2 7 -35 9 -72 3 -37 7
-70 10 -74 14 -13 4 -40 -19 -50 -14 -6 -25 -15 -25 -20 0 -4 -10 -8 -22 -9
-11 -1 -24 -7 -28 -13 -7 -11 -101 -47 -160 -61 -41 -10 -140 17 -140 37 0 15
32 78 43 82 4 2 7 8 7 14 0 6 10 21 23 34 102 105 123 124 131 121 5 -2 18 5
29 16 13 13 25 17 40 11 12 -4 39 -8 60 -9z m-198 -7 c8 -7 -17 -34 -63 -67
-26 -18 -40 -22 -65 -16 -18 4 -64 9 -104 11 -83 5 -142 23 -157 48 -20 32 11
37 201 34 100 -2 184 -6 188 -10z m789 -85 c-1 -29 -26 -43 -40 -22 -5 9 10
28 41 49 1 0 0 -12 -1 -27z m-44 -78 c0 -8 -4 -15 -10 -15 -5 0 -10 7 -10 15
0 8 5 15 10 15 6 0 10 -7 10 -15z m-973 -27 c1 -11 -1 -18 -4 -14 -4 3 -22 -6
-41 -21 -38 -29 -124 -42 -152 -24 -36 25 65 78 150 79 39 0 46 -3 47 -20z
m1407 2 c17 -6 29 -22 37 -49 8 -27 16 -38 26 -34 14 5 67 -13 91 -32 49 -37
112 -107 112 -124 0 -30 -83 -75 -127 -68 -42 7 -103 69 -103 106 -1 18 -6 10
-20 -29 -21 -57 -26 -85 -11 -61 15 23 39 5 81 -60 55 -86 52 -118 -15 -158
-51 -30 -80 -27 -93 7 -33 86 -32 113 2 141 9 7 16 18 16 25 0 6 -11 -1 -25
-16 -28 -30 -78 -43 -124 -33 -59 13 -121 117 -121 201 1 47 24 79 77 100 21
9 51 28 68 42 27 23 79 51 97 52 4 0 18 -4 32 -10z m-454 -20 c0 -5 -4 -10
-10 -10 -5 0 -10 5 -10 10 0 6 5 10 10 10 6 0 10 -4 10 -10z m-33 -65 c-7 -14
-18 -25 -24 -25 -17 0 -16 11 3 38 20 29 36 19 21 -13z m-582 -88 c-4 -9 -13
-13 -23 -10 -11 5 -14 2 -9 -10 3 -9 -6 -32 -23 -56 -35 -48 -62 -65 -78 -49
-18 18 -14 46 8 58 11 6 18 15 15 21 -10 15 -43 10 -54 -8 -5 -10 -12 -15 -15
-12 -4 3 3 18 15 32 17 22 29 27 67 27 31 0 42 3 33 9 -10 7 -7 12 15 23 33
17 59 3 49 -25z m535 13 c0 -5 -7 -10 -16 -10 -8 0 -12 5 -9 10 3 6 10 10 16
10 5 0 9 -4 9 -10z m-22 -51 c-2 -6 -8 -10 -13 -10 -5 0 -11 4 -13 10 -2 6 4
11 13 11 9 0 15 -5 13 -11z m-18 -39 c0 -5 -7 -10 -16 -10 -8 0 -12 5 -9 10 3
6 10 10 16 10 5 0 9 -4 9 -10z m328 -100 c9 -14 22 -29 29 -33 7 -4 13 -17 13
-29 0 -17 3 -18 15 -8 22 18 45 4 45 -27 l1 -28 15 28 c35 64 71 12 81 -118 8
-97 -30 -164 -68 -119 -7 8 -20 13 -30 11 -12 -3 -16 0 -12 9 2 7 1 20 -4 29
-7 12 -15 -1 -33 -52 -13 -38 -26 -70 -29 -73 -4 -3 -11 -18 -16 -35 -8 -23
-16 -30 -41 -31 -17 -1 -41 -5 -53 -9 -22 -7 -23 -5 -19 29 2 20 2 36 -2 36
-3 0 -20 -25 -39 -54 -18 -30 -45 -60 -60 -66 -14 -7 -33 -16 -41 -20 -31 -15
-40 -1 -34 53 4 29 13 64 20 80 8 15 12 27 10 27 -14 0 83 286 119 350 8 14
27 49 42 78 l28 53 23 -28 c13 -15 31 -39 40 -53z m-358 46 c0 -3 -4 -8 -10
-11 -5 -3 -10 -1 -10 4 0 6 5 11 10 11 6 0 10 -2 10 -4z m-17 -41 c0 -6 -7
-11 -16 -13 -12 -3 -15 1 -11 13 7 17 25 17 27 0z m-53 -94 c0 -12 -20 -25
-27 -18 -7 7 6 27 18 27 5 0 9 -4 9 -9z m-110 -211 c0 -5 -4 -10 -10 -10 -5 0
-10 5 -10 10 0 6 5 10 10 10 6 0 10 -4 10 -10z m7220 -6190 c0 -5 -9 -10 -20
-10 -11 0 -20 5 -20 10 0 6 9 10 20 10 11 0 20 -4 20 -10z m1587 -604 c15 -19
39 -56 52 -81 24 -44 24 -46 5 -60 -33 -25 -44 -18 -44 30 0 34 -5 47 -20 55
-19 10 -50 59 -50 80 0 21 30 9 57 -24z"/>
<path d="M2628 11083 c7 -3 16 -2 19 1 4 3 -2 6 -13 5 -11 0 -14 -3 -6 -6z"/>
<path d="M4677 11093 c-12 -12 -7 -22 8 -17 8 4 15 10 15 15 0 11 -14 12 -23
2z"/>
<path d="M3090 12415 c0 -9 5 -15 11 -13 6 2 11 8 11 13 0 5 -5 11 -11 13 -6
2 -11 -4 -11 -13z"/>
<path d="M13840 12398 c0 -10 -18 -37 -40 -60 -45 -49 -45 -67 1 -110 66 -62
140 -5 110 84 -15 43 -70 110 -71 86z"/>
<path d="M13392 12224 c-34 -23 -30 -89 7 -142 27 -36 64 -72 47 -44 -3 6 12
31 34 57 22 25 40 52 40 58 0 23 -33 59 -66 73 -41 17 -35 17 -62 -2z"/>
<path d="M10925 11279 c-115 -43 -186 -183 -172 -340 6 -69 30 -115 78 -147
30 -21 43 -23 104 -20 39 3 84 12 102 21 38 20 79 71 88 110 7 26 6 27 -34 27
-34 0 -43 -4 -55 -28 -22 -42 -51 -63 -95 -69 -35 -5 -44 -2 -71 25 -26 26
-30 38 -30 84 0 71 18 174 35 208 31 60 124 89 173 55 12 -9 25 -30 30 -48 7
-28 13 -32 45 -35 27 -2 39 1 43 12 10 26 -38 109 -73 129 -39 22 -127 31
-168 16z"/>
<path d="M11408 11276 c-21 -8 -49 -21 -63 -30 -73 -48 -121 -175 -113 -295 6
-80 28 -125 79 -159 29 -20 44 -23 99 -20 84 4 135 31 177 92 38 56 52 97 60
187 10 120 -35 204 -125 229 -48 13 -69 12 -114 -4z m123 -85 c27 -27 29 -35
29 -103 0 -145 -53 -244 -137 -255 -37 -5 -46 -2 -72 24 -17 17 -33 46 -37 68
-9 49 8 149 36 207 40 87 125 114 181 59z"/>
<path d="M11878 11276 c-58 -21 -83 -41 -103 -82 -36 -77 1 -142 108 -189 88
-37 91 -39 101 -67 21 -59 -24 -108 -97 -108 -40 0 -84 31 -89 63 -2 18 -10
23 -47 25 l-44 3 6 -31 c15 -74 85 -120 183 -120 74 0 136 28 164 72 28 44 23
118 -11 155 -23 25 -132 83 -156 83 -6 0 -19 10 -27 22 -39 56 2 118 78 118
46 0 86 -26 86 -57 0 -9 15 -13 45 -13 49 0 53 6 31 48 -41 78 -136 111 -228
78z"/>
<path d="M14118 11280 c-111 -33 -179 -148 -182 -305 -2 -133 45 -195 153
-203 94 -7 171 30 206 99 24 46 20 59 -20 59 -29 0 -39 -6 -60 -39 -53 -79
-142 -84 -181 -9 -13 25 -15 47 -10 104 10 109 30 167 71 203 63 55 154 33
168 -39 6 -27 10 -30 47 -30 36 0 40 2 40 25 0 97 -122 168 -232 135z"/>
<path d="M12207 11273 c-11 -10 -8 -53 3 -54 6 0 31 -1 58 -1 75 -1 75 -2 68
-77 -3 -36 -17 -122 -31 -191 -13 -69 -25 -138 -25 -154 0 -27 2 -28 31 -22
17 3 37 6 44 6 8 0 15 22 19 58 15 127 64 365 77 373 8 5 37 7 65 4 67 -7 84
0 84 36 l0 29 -193 0 c-107 0 -197 -3 -200 -7z"/>
<path d="M12767 11238 c-45 -79 -177 -326 -177 -331 0 -3 -14 -28 -31 -56 -36
-57 -33 -81 8 -81 39 0 53 12 77 62 l21 43 100 0 100 0 9 -48 c6 -36 13 -48
30 -52 22 -5 52 -2 60 6 4 4 -12 95 -65 377 l-23 122 -42 0 c-40 0 -45 -3 -67
-42z m62 -125 c6 -21 12 -65 13 -98 l3 -60 -59 -3 c-32 -2 -63 1 -68 6 -11 11
76 192 92 192 5 0 14 -17 19 -37z"/>
<path d="M13316 11258 c-16 -75 -67 -373 -72 -427 l-7 -64 38 6 c47 8 52 15
60 91 11 95 18 106 65 106 48 0 58 -14 89 -117 21 -71 21 -71 62 -78 22 -4 43
-4 46 -1 7 7 -14 84 -43 160 -19 48 -19 49 0 60 11 6 35 25 55 42 32 29 35 37
39 96 4 58 2 67 -23 96 -34 41 -77 52 -202 52 -98 0 -103 -1 -107 -22z m210
-54 c31 -15 34 -20 34 -61 0 -57 -14 -81 -55 -99 -48 -20 -124 -19 -132 2 -9
25 17 147 35 162 22 17 77 15 118 -4z"/>
<path d="M13786 11263 c-3 -10 -17 -90 -30 -178 -14 -88 -32 -191 -40 -230 -8
-38 -12 -73 -10 -77 8 -12 72 -9 80 4 4 6 13 46 20 87 7 42 24 144 38 226 34
195 34 185 -13 185 -29 0 -41 -5 -45 -17z"/>
<path d="M14607 11262 c-9 -10 -17 -22 -17 -25 0 -4 -32 -67 -71 -139 -113
-210 -169 -316 -169 -322 0 -3 16 -6 35 -6 39 0 68 23 97 78 l17 32 85 0 c108
0 116 -3 116 -49 0 -20 5 -42 12 -49 13 -13 74 -16 82 -4 2 4 -10 84 -29 177
-18 94 -39 204 -47 245 l-13 75 -41 3 c-29 2 -45 -2 -57 -16z m47 -129 c12
-45 27 -163 21 -173 -8 -13 -122 -13 -130 0 -6 9 55 148 78 178 13 17 25 15
31 -5z"/>
<path d="M2008 10943 c7 -3 16 -2 19 1 4 3 -2 6 -13 5 -11 0 -14 -3 -6 -6z"/>
<path d="M10600 10220 c0 -5 18 -51 41 -102 22 -51 47 -110 55 -130 16 -37 17
-38 172 -87 87 -27 220 -68 297 -91 211 -63 654 -212 806 -270 282 -108 592
-279 789 -437 83 -66 240 -223 293 -293 85 -112 162 -263 197 -386 84 -294 19
-636 -180 -951 -10 -15 -11 -26 -5 -32 6 -6 102 -53 214 -106 112 -52 210
-100 218 -107 7 -6 15 -9 16 -7 2 2 26 33 53 69 187 241 304 481 350 718 23
116 23 329 0 435 -78 361 -331 685 -751 964 -273 181 -517 295 -920 429 -435
144 -1075 304 -1475 369 -177 29 -170 28 -170 15z"/>
<path d="M10814 9693 c9 -40 129 -277 179 -353 l42 -64 130 -56 c387 -165 711
-395 915 -649 78 -97 188 -305 215 -410 9 -34 22 -106 29 -158 l11 -95 220
227 c257 266 304 317 305 328 0 5 -18 40 -40 78 -223 381 -685 724 -1280 950
-198 76 -686 229 -727 229 -3 0 -2 -12 1 -27z"/>
<path d="M9222 9053 c-86 -52 -118 -170 -87 -323 19 -91 69 -243 109 -329 14
-30 23 -58 20 -62 -5 -9 -117 -45 -165 -53 -75 -13 -119 -72 -119 -159 0 -65
28 -113 80 -139 53 -27 93 -22 204 26 55 24 111 47 123 50 23 7 22 10 128
-159 21 -33 64 -99 96 -147 33 -48 59 -92 59 -97 0 -14 -28 -21 -88 -21 -90 0
-315 -28 -447 -55 -325 -67 -520 -164 -618 -306 -70 -102 -61 -210 27 -307
125 -138 414 -232 886 -287 172 -21 695 -21 1068 -1 l263 15 72 -31 c40 -16
90 -38 112 -48 64 -28 214 -90 285 -116 122 -46 475 -171 503 -178 40 -10 34
-32 -27 -96 -44 -46 -56 -65 -61 -102 -12 -81 47 -157 149 -192 100 -34 141
-15 296 134 134 128 98 121 340 65 192 -45 525 -102 643 -111 48 -4 90 -11 93
-16 4 -6 -2 -22 -13 -36 -58 -78 -69 -144 -30 -180 44 -42 115 -54 165 -28 16
8 56 59 100 129 l72 116 53 5 c28 3 101 8 161 11 115 7 291 36 326 55 61 32
-28 73 -218 101 -354 51 -925 174 -1277 275 -481 138 -935 294 -935 321 0 7 9
13 20 13 32 0 288 68 391 104 108 38 257 110 327 158 26 18 81 65 123 104 62
59 81 72 100 67 13 -3 67 -16 119 -29 692 -170 740 -180 740 -151 0 6 -28 26
-63 43 -90 45 -236 114 -241 114 -3 0 -69 31 -148 69 -79 38 -187 89 -240 114
-54 25 -98 48 -98 52 0 3 22 33 49 68 89 113 207 310 309 513 52 103 112 262
112 295 0 38 -42 21 -104 -43 -229 -235 -618 -639 -645 -670 -18 -21 -40 -38
-49 -38 -9 0 -39 15 -67 33 -331 219 -449 282 -468 250 -13 -22 28 -64 193
-198 123 -99 179 -150 172 -157 -7 -7 -47 -7 -124 1 -99 10 -462 39 -888 71
-74 6 -223 22 -330 35 -107 13 -241 27 -297 31 l-103 7 -104 106 c-241 246
-429 468 -635 750 -118 163 -301 484 -323 569 -8 28 -23 27 -76 -5z"/>
<path d="M1984 8228 c-387 -350 -638 -714 -741 -1076 -36 -126 -36 -129 -36
-317 -1 -185 0 -193 31 -291 71 -228 174 -396 352 -574 133 -133 272 -241 450
-348 521 -315 1220 -552 2078 -706 139 -25 598 -89 717 -100 836 -76 1442 -79
2305 -10 256 20 639 67 928 115 273 44 686 124 708 137 16 9 6 14 -203 106
-72 32 -88 36 -132 30 -35 -4 -66 -1 -107 12 -70 22 -67 22 -349 4 -277 -18
-888 -19 -1130 -2 -758 54 -1372 171 -2000 384 -388 131 -766 299 -1032 459
-386 232 -617 518 -694 861 -23 101 -36 120 -79 112 -39 -8 -196 33 -255 66
-101 58 -129 102 -130 205 0 62 -4 77 -32 120 -30 47 -62 81 -105 114 -16 12
-20 9 -33 -22 -8 -19 -28 -92 -45 -161 -26 -110 -30 -144 -30 -270 0 -128 3
-158 30 -262 101 -390 398 -722 898 -1003 194 -110 385 -195 737 -331 130 -50
412 -134 655 -195 551 -138 1212 -233 1850 -266 295 -15 353 -20 344 -29 -26
-26 -817 -46 -1144 -30 -768 38 -1404 148 -2045 353 -548 175 -1089 432 -1366
648 -79 61 -233 223 -286 301 -78 113 -140 246 -176 376 -31 112 -32 124 -32
307 0 181 2 196 32 317 54 211 141 408 273 617 l52 82 -12 47 c-15 55 -66 161
-103 215 -14 21 -29 47 -32 58 -4 10 -12 19 -19 19 -7 0 -48 -32 -92 -72z"/>
<path d="M12559 6988 c-69 -65 -196 -152 -287 -196 -35 -16 -60 -32 -55 -35 4
-3 42 -15 83 -26 41 -12 111 -33 155 -46 240 -72 662 -178 674 -168 3 2 -8 30
-24 62 -25 53 -27 64 -17 101 10 40 10 42 -11 36 -66 -20 -86 -18 -130 7 -24
14 -57 43 -72 64 -106 143 -135 172 -188 187 -92 25 -114 28 -128 14z"/>
<path d="M4615 3998 c-10 -31 -85 -467 -85 -494 0 -20 60 -18 75 3 11 15 16
14 58 -6 39 -19 51 -21 85 -11 48 12 97 64 111 117 6 21 11 71 11 112 0 70 -1
74 -34 107 -27 27 -42 34 -74 34 -23 0 -44 -4 -47 -10 -3 -5 -15 -10 -26 -10
-23 0 -24 19 -5 108 l14 62 -40 0 c-22 0 -40 -5 -43 -12z m168 -245 c15 -50
-1 -139 -30 -173 -30 -36 -80 -41 -108 -10 -17 18 -17 26 -5 93 20 113 32 129
95 125 35 -3 40 -7 48 -35z"/>
<path d="M5016 3993 c-6 -19 -86 -479 -86 -494 0 -5 16 -9 35 -9 27 0 38 5 45
23 7 17 90 470 90 493 0 2 -18 4 -39 4 -29 0 -41 -5 -45 -17z"/>
<path d="M7542 3988 c-28 -28 -3 -72 39 -66 30 4 47 33 33 56 -14 21 -55 27
-72 10z"/>
<path d="M1483 3978 c-12 -14 -263 -478 -263 -485 0 -2 21 -3 47 -1 44 3 48 5
68 47 12 24 29 47 36 52 22 14 165 11 177 -3 5 -7 13 -32 17 -55 l7 -43 45 0
c42 0 45 2 40 23 -3 12 -18 85 -32 162 -14 77 -34 178 -43 225 l-17 85 -36 3
c-21 2 -40 -2 -46 -10z m45 -208 c7 -46 10 -90 8 -97 -7 -16 -112 -18 -122 -2
-9 15 77 190 91 186 5 -2 16 -41 23 -87z"/>
<path d="M1995 3853 c-11 -3 -23 -8 -27 -11 -5 -5 -68 -327 -68 -348 0 -8 79
-4 84 4 3 5 14 64 26 133 25 144 35 161 94 157 41 -3 41 -3 44 -47 2 -25 -4
-86 -12 -137 -9 -50 -16 -97 -16 -103 0 -9 80 -18 80 -8 0 1 11 60 24 130 27
146 39 167 97 167 51 0 55 -17 35 -152 -23 -149 -23 -148 18 -148 19 0 38 5
41 10 11 18 35 191 35 253 0 48 -4 62 -25 82 -33 34 -90 34 -140 -1 l-38 -25
-22 21 c-32 30 -87 36 -135 15 -36 -16 -40 -16 -55 -1 -9 9 -17 15 -18 15 -1
-1 -11 -3 -22 -6z"/>
<path d="M2645 3846 c-128 -56 -157 -276 -45 -340 82 -48 253 5 198 61 -14 13
-19 13 -46 -1 -65 -33 -131 -9 -135 49 l-2 30 115 5 115 5 3 47 c8 120 -94
192 -203 144z m119 -88 c17 -49 4 -59 -71 -56 -62 3 -68 5 -65 23 12 69 114
94 136 33z"/>
<path d="M2982 3853 c-30 -6 -36 -23 -61 -188 -28 -186 -29 -177 16 -173 42 3
40 -2 68 168 19 110 32 130 87 130 55 0 60 -20 37 -155 -25 -152 -26 -145 20
-145 l40 0 10 53 c6 28 16 86 22 127 13 88 35 120 85 120 56 0 59 -15 39 -158
-10 -70 -18 -129 -17 -132 1 -3 19 -5 39 -5 l37 0 17 90 c30 160 28 216 -6
250 -33 34 -90 34 -140 -1 l-38 -25 -22 21 c-32 30 -87 36 -135 15 -36 -16
-40 -16 -55 -1 -9 9 -17 15 -18 15 -1 -1 -12 -4 -25 -6z"/>
<path d="M3619 3837 c-84 -44 -126 -183 -84 -278 23 -49 88 -84 142 -76 99 16
162 90 170 199 3 48 0 71 -14 98 -40 77 -129 101 -214 57z m131 -62 c18 -22
23 -86 10 -134 -15 -58 -49 -91 -94 -91 -45 0 -66 29 -66 92 0 90 39 148 101
148 20 0 42 -7 49 -15z"/>
<path d="M3972 3851 c-12 -7 -74 -339 -65 -353 2 -5 19 -8 38 -8 39 0 37 -3
60 125 8 50 18 100 20 112 6 26 36 44 85 52 32 6 35 9 38 44 3 32 0 37 -18 37
-12 0 -35 -8 -51 -17 -21 -12 -32 -14 -37 -7 -10 15 -54 25 -70 15z"/>
<path d="M4282 3853 c-25 -5 -92 -64 -92 -82 0 -20 78 -13 100 9 40 40 104 14
98 -38 -3 -29 -27 -39 -96 -41 -109 -3 -179 -102 -122 -174 37 -47 119 -55
166 -16 11 9 15 8 20 -5 4 -11 18 -16 45 -16 36 0 39 2 39 28 0 15 7 62 15
105 24 125 21 168 -15 202 -24 23 -40 29 -82 31 -29 1 -63 0 -76 -3z m88 -222
c0 -62 -77 -108 -121 -72 -20 16 -21 21 -10 48 15 36 42 51 94 52 34 1 37 -1
37 -28z"/>
<path d="M5245 3846 c-39 -18 -80 -62 -99 -108 -23 -53 -21 -145 4 -185 47
-77 173 -92 246 -30 26 22 26 22 6 40 -19 17 -22 17 -51 3 -55 -29 -104 -19
-126 25 -27 51 -15 58 108 61 l112 3 3 47 c8 120 -94 192 -203 144z m106 -67
c13 -13 19 -30 17 -47 -3 -26 -6 -27 -69 -30 -84 -4 -96 13 -45 64 39 39 67
43 97 13z"/>
<path d="M5805 3846 c-68 -30 -116 -112 -118 -201 -1 -62 24 -111 73 -139 82
-48 254 5 198 61 -14 13 -19 13 -46 -1 -49 -25 -97 -21 -122 11 -11 15 -20 36
-18 47 3 19 11 21 118 26 l115 5 3 47 c8 120 -94 192 -203 144z m106 -67 c13
-13 19 -30 17 -47 -3 -26 -6 -27 -67 -30 -76 -4 -89 8 -59 51 34 48 77 58 109
26z"/>
<path d="M6123 3852 c-13 -2 -23 -6 -23 -8 0 -3 14 -41 31 -84 l32 -80 -39
-54 c-22 -31 -49 -70 -61 -87 -32 -44 -29 -51 19 -47 39 3 46 8 78 55 19 29
40 52 46 53 6 0 20 -24 31 -52 19 -49 23 -53 57 -56 45 -4 46 3 6 103 l-30 76
60 84 c33 46 60 86 60 89 0 3 -19 6 -42 6 -40 0 -45 -3 -77 -50 -19 -28 -37
-50 -41 -50 -12 0 -27 23 -39 61 -12 38 -28 47 -68 41z"/>
<path d="M6484 3852 c-18 -13 -102 -481 -89 -502 7 -12 45 -13 61 -2 6 4 19
41 29 82 10 41 19 76 20 78 2 2 25 -4 52 -14 47 -17 50 -16 95 4 38 17 52 30
75 74 23 44 27 66 28 129 0 48 -5 86 -15 103 -27 51 -98 71 -149 42 -20 -11
-28 -11 -50 0 -29 16 -41 17 -57 6z m177 -79 c23 -27 17 -133 -10 -176 -12
-19 -28 -38 -37 -41 -31 -12 -71 -6 -88 13 -16 18 -17 25 -2 102 8 45 23 90
32 100 22 24 86 25 105 2z"/>
<path d="M6933 3841 c-50 -23 -88 -77 -104 -147 -22 -98 12 -167 97 -200 39
-15 53 -16 91 -6 44 12 93 39 93 51 0 3 -7 15 -15 26 -15 18 -16 18 -44 2 -63
-37 -148 -4 -139 55 3 22 6 23 113 26 118 3 125 6 125 57 0 126 -100 189 -217
136z m108 -51 c14 0 30 -50 24 -71 -5 -16 -17 -19 -70 -19 -35 0 -66 4 -70 9
-17 29 59 98 93 86 8 -3 18 -5 23 -5z"/>
<path d="M7264 3852 c-10 -6 -52 -200 -70 -320 l-7 -43 44 3 44 3 16 100 c8
55 18 111 22 125 7 29 54 60 90 60 26 0 37 16 37 56 0 29 -26 32 -72 8 -28
-15 -32 -15 -40 0 -9 17 -45 21 -64 8z"/>
<path d="M7515 3849 c-3 -8 -18 -90 -34 -182 -30 -182 -30 -182 26 -175 l28 3
31 175 c18 96 31 176 29 178 -1 2 -19 5 -39 9 -25 4 -37 2 -41 -8z"/>
<path d="M7757 3839 c-74 -39 -124 -163 -99 -247 24 -81 107 -125 192 -102 44
12 90 37 90 49 0 3 -7 14 -15 25 -13 18 -16 18 -49 2 -70 -33 -141 -5 -134 52
l3 27 112 3 112 3 6 29 c7 34 -1 82 -21 121 -28 56 -127 75 -197 38z m114 -49
c14 0 30 -50 24 -71 -5 -16 -17 -19 -76 -19 -59 0 -69 2 -69 18 1 37 66 87 98
76 8 -2 18 -4 23 -4z"/>
<path d="M8089 3848 c-11 -9 -24 -64 -43 -173 -14 -88 -26 -166 -26 -172 0 -8
15 -13 40 -13 36 0 39 2 44 33 41 252 48 267 118 267 33 0 39 -4 44 -27 4 -15
1 -68 -6 -117 -7 -50 -15 -106 -18 -124 -4 -33 -4 -33 34 -30 l39 3 23 105
c29 136 26 204 -12 237 -33 28 -85 30 -127 6 -22 -13 -32 -15 -37 -6 -12 19
-55 25 -73 11z"/>
<path d="M8530 3838 c-86 -44 -129 -181 -85 -277 19 -43 78 -81 126 -81 61 0
165 86 144 120 -13 20 -57 10 -85 -20 -33 -35 -78 -40 -103 -12 -25 28 -22
117 6 172 21 43 24 45 67 45 39 0 46 -4 58 -27 11 -23 20 -28 48 -28 31 0 34
3 34 28 0 86 -113 129 -210 80z"/>
<path d="M8915 3846 c-69 -31 -116 -110 -118 -200 -1 -63 24 -111 73 -140 82
-48 254 5 198 61 -14 13 -19 13 -46 -1 -17 -9 -45 -16 -62 -16 -39 0 -83 41
-78 73 3 21 8 22 118 27 l115 5 3 47 c8 120 -94 192 -203 144z m113 -69 c7 -6
12 -24 10 -41 -3 -31 -4 -31 -67 -34 -78 -4 -93 7 -65 45 37 50 83 61 122 30z"/>
<path d="M9198 3569 c-23 -13 -24 -65 -2 -73 32 -12 55 -6 66 20 11 23 10 29
-11 45 -27 22 -30 22 -53 8z"/>
</g>
</svg>
