<svg width="86" height="13" viewBox="0 0 86 13" fill="none" xmlns="http://www.w3.org/2000/svg">
<path d="M6.45 0C2.89605 0 0 2.9185 0 6.5C0 10.0815 2.89605 13 6.45 13C10.0039 13 12.9 10.0858 12.9 6.5C12.9 2.9185 10.0082 0 6.45 0Z" fill="#00AA6C"/>
<path d="M24.7254 0C21.1714 0 18.2754 2.9185 18.2754 6.5C18.2754 10.0815 21.1714 13 24.7254 13C28.2793 13 31.1754 10.0858 31.1754 6.5C31.1754 2.9185 28.2836 0 24.7254 0Z" fill="#00AA6C"/>
<path d="M43.0008 0C39.4468 0 36.5508 2.9185 36.5508 6.5C36.5508 10.0815 39.4468 13 43.0008 13C46.5547 13 49.4508 10.0858 49.4508 6.5C49.4508 2.9185 46.559 0 43.0008 0Z" fill="#00AA6C"/>
<path d="M61.2742 0C57.7203 0 54.8242 2.9185 54.8242 6.5C54.8242 10.0815 57.7203 13 61.2742 13C64.8282 13 67.7242 10.0858 67.7242 6.5C67.7242 2.9185 64.8325 0 61.2742 0Z" fill="#00AA6C"/>
<path d="M79.5496 0C75.9962 0 73.0996 2.91904 73.0996 6.5C73.0996 10.0858 75.9962 13 79.5496 13C83.1079 13 85.9996 10.0864 85.9996 6.5C85.9996 2.91363 83.1084 0 79.5496 0Z" fill="#00AA6C"/>
</svg>
